<svg width="52" height="63" viewBox="0 0 52 63" fill="none" xmlns="http://www.w3.org/2000/svg">
<path fill-rule="evenodd" clip-rule="evenodd" d="M38.2778 44.8051C39.0755 44.8051 39.7222 45.4518 39.7222 46.2495C39.7222 47.0473 39.0755 47.694 38.2778 47.694H25.2778C25.1928 47.694 25.1097 47.6867 25.0288 47.6726C20.3887 47.4679 16.1278 45.8038 12.6939 43.128C12.4146 42.9104 11.9937 42.5497 11.6818 42.2783C11.415 42.0461 11.074 41.9162 10.7204 41.9162H7.2222C6.42445 41.9162 5.77775 41.2695 5.77775 40.4718C5.77775 39.674 6.42445 39.0273 7.2222 39.0273H8.66664C9.46438 39.0273 10.1111 38.3806 10.1111 37.5829C10.1111 36.7851 9.46438 36.1384 8.66664 36.1384H5.05553C4.25778 36.1384 3.61108 35.4917 3.61108 34.694C3.61108 33.8962 4.25778 33.2495 5.05553 33.2495H5.77775C6.5755 33.2495 7.2222 32.6028 7.2222 31.8051C7.2222 31.0074 6.5755 30.3607 5.77775 30.3607C5.19369 30.3607 4.69414 29.9397 4.59696 29.3637C4.56165 29.1545 4.53361 28.986 4.52898 28.9517C4.39994 27.9953 4.33331 27.0191 4.33331 26.0273C4.33331 14.0612 14.0338 4.36066 26 4.36066C29.6111 4.36066 33.2222 4.36066 36.8333 4.36066C37.6311 4.36066 38.2778 5.00736 38.2778 5.8051C38.2778 6.60285 37.6311 7.24955 36.8333 7.24955H34.6666C33.8689 7.24955 33.2222 7.89625 33.2222 8.69399C33.2222 9.49173 33.8689 10.1384 34.6666 10.1384H43.3333C44.1311 10.1384 44.7777 10.7851 44.7777 11.5829C44.7777 12.3801 44.1319 13.0265 43.3349 13.0273L41.1666 13.0273C40.3689 13.0273 39.7222 13.674 39.7222 14.4718C39.7222 15.2695 40.3689 15.9162 41.1666 15.9162H44.2765C44.8228 15.9162 45.3235 16.2238 45.5603 16.716C45.7027 17.0119 45.8524 17.331 45.9504 17.5617C47.0554 20.1624 47.6666 23.0235 47.6666 26.0273C47.6666 26.9712 47.6063 27.9009 47.4892 28.8129C47.4696 28.9662 47.4393 29.163 47.4065 29.3646C47.3122 29.9427 46.808 30.3607 46.2222 30.3607C45.4244 30.3607 44.7777 31.0074 44.7777 31.8051C44.7777 32.6028 45.4244 33.2495 46.2222 33.2495H46.9444C47.7422 33.2495 48.3889 33.8962 48.3889 34.694C48.3889 35.4917 47.7422 36.1384 46.9444 36.1384H46.0172C45.4928 36.1384 45.0106 36.4231 44.7486 36.8774C44.5785 37.1724 44.3893 37.4934 44.2487 37.7125C43.9193 38.2259 43.5688 38.7245 43.1984 39.2071C42.8264 39.6918 42.4343 40.1604 42.0235 40.6115C41.7981 40.859 41.4328 41.2258 41.1479 41.5075C40.8813 41.771 40.5211 41.9162 40.1462 41.9162H36.1111C35.3133 41.9162 34.6666 42.5629 34.6666 43.3607C34.6666 44.1528 35.3044 44.7961 36.0944 44.805L38.2778 44.8051Z" fill="url(#paint0_linear_29_4778)"/>
<g opacity="0.1">
<path fill-rule="evenodd" clip-rule="evenodd" d="M17.414 14.2077C22.5337 10.488 29.4662 10.488 34.5859 14.2077C39.7056 17.9273 41.8478 24.5206 39.8923 30.5391C37.9368 36.5576 32.3282 40.6325 26 40.6325C19.6717 40.6325 14.0632 36.5576 12.1076 30.5391C10.1521 24.5206 12.2944 17.9273 17.414 14.2077Z" fill="#0298F3" style="mix-blend-mode:multiply"/>
</g>
<g filter="url(#filter0_d_29_4778)">
<path fill-rule="evenodd" clip-rule="evenodd" d="M20.2222 26.0273H31.7777V44.6679C31.7777 47.3495 28.9222 49.0659 26.5541 47.8078L25.9999 47.5135L25.4458 47.8078C23.0776 49.0659 20.2222 47.3495 20.2222 44.6679V26.0273Z" fill="#7F45F6"/>
</g>
<mask id="mask0_29_4778" style="mask-type:luminance" maskUnits="userSpaceOnUse" x="20" y="26" width="12" height="23">
<path fill-rule="evenodd" clip-rule="evenodd" d="M20.2222 26.0273H31.7777V44.6679C31.7777 47.3495 28.9222 49.0659 26.5541 47.8078L25.9999 47.5135L25.4458 47.8078C23.0776 49.0659 20.2222 47.3495 20.2222 44.6679V26.0273Z" fill="white"/>
</mask>
<g mask="url(#mask0_29_4778)">
<path fill-rule="evenodd" clip-rule="evenodd" d="M23.1111 37.5829H28.8889V50.5829H23.1111V37.5829Z" fill="white"/>
</g>
<path style="mix-blend-mode:multiply" opacity="0.2" fill-rule="evenodd" clip-rule="evenodd" d="M18.1003 16.5983C22.8104 13.1762 29.1883 13.1762 33.8984 16.5983C38.6085 20.0204 40.5794 26.0861 38.7803 31.6232C36.9812 37.1602 31.8213 40.9091 25.9994 40.9091C20.1774 40.9091 15.0175 37.1602 13.2184 31.6232C11.4193 26.0861 13.3902 20.0204 18.1003 16.5983Z" fill="#0298F3"/>
<path fill-rule="evenodd" clip-rule="evenodd" d="M18.101 15.1548C22.8111 11.7327 29.189 11.7327 33.8991 15.1548C38.6092 18.5768 40.5801 24.6426 38.781 30.1797C36.9819 35.7167 31.822 39.4656 26 39.4656C20.178 39.4656 15.0182 35.7167 13.2191 30.1797C11.42 24.6426 13.3909 18.5768 18.101 15.1548Z" fill="url(#paint1_linear_29_4778)" stroke="#FEFFFF" stroke-opacity="0.2" stroke-width="3.55556"/>
<mask id="mask1_29_4778" style="mask-type:luminance" maskUnits="userSpaceOnUse" x="10" y="10" width="32" height="32">
<path fill-rule="evenodd" clip-rule="evenodd" d="M18.101 15.1548C22.8111 11.7327 29.189 11.7327 33.8991 15.1548C38.6092 18.5768 40.5801 24.6426 38.781 30.1797C36.9819 35.7167 31.822 39.4656 26 39.4656C20.178 39.4656 15.0182 35.7167 13.2191 30.1797C11.42 24.6426 13.3909 18.5768 18.101 15.1548Z" fill="white" stroke="white" stroke-width="3.55556"/>
</mask>
<g mask="url(#mask1_29_4778)">
<path d="M27.4853 10.9402C26.5994 10.2965 25.3997 10.2965 24.5138 10.9402L12.1117 19.9508C11.2258 20.5945 10.8551 21.7355 11.1935 22.777L15.9306 37.3564C16.269 38.3979 17.2396 39.103 18.3347 39.103H33.6644C34.7595 39.103 35.7301 38.3979 36.0685 37.3564L40.8056 22.777C41.144 21.7355 40.7733 20.5945 39.8873 19.9508L27.4853 10.9402Z" stroke="#94B4BD" stroke-width="3.55556" stroke-linecap="round"/>
<path d="M36.0696 37.3563L40.8067 22.7769" stroke="#B1CDD0" stroke-width="3.55556" stroke-linecap="round"/>
<path d="M11.1946 22.7769L15.9317 37.3563" stroke="#B1CDD0" stroke-width="3.55556" stroke-linecap="round"/>
<path d="M40.8056 22.777C41.144 21.7355 40.7733 20.5945 39.8873 19.9508L27.4853 10.9402C26.5994 10.2965 25.3997 10.2965 24.5138 10.9402L12.1117 19.9508C11.2258 20.5945 10.8551 21.7355 11.1935 22.777" stroke="#C3E6E7" stroke-width="3.55556" stroke-linecap="round"/>
<path opacity="0.4" d="M27.4864 10.9402C26.6004 10.2965 25.4008 10.2965 24.5148 10.9402L12.1128 19.9508" stroke="#E5FEFF" stroke-width="3.55556" stroke-linecap="round"/>
<path d="M24.5138 10.9435L21.4133 13.1962" stroke="white" stroke-width="3.55556" stroke-linecap="round"/>
</g>
<g filter="url(#filter1_d_29_4778)">
<path fill-rule="evenodd" clip-rule="evenodd" d="M21.8201 17.5084C24.3124 15.6976 27.6873 15.6976 30.1797 17.5084L32.8101 19.4194C35.3024 21.2302 36.3453 24.44 35.3933 27.3699L34.3886 30.4621C33.4366 33.392 30.7063 35.3758 27.6256 35.3758H24.3742C21.2935 35.3758 18.5632 33.392 17.6112 30.4621L16.6064 27.3699C15.6545 24.44 16.6974 21.2302 19.1897 19.4194L21.8201 17.5084Z" fill="url(#paint2_linear_29_4778)"/>
<path d="M31.2246 16.0701C28.1092 13.8066 23.8906 13.8066 20.7751 16.0701L18.1448 17.9812C15.0293 20.2447 13.7257 24.2568 14.9157 27.9193L15.9204 31.0115C17.1104 34.6739 20.5233 37.1535 24.3742 37.1535H27.6256C31.4764 37.1535 34.8894 34.6739 36.0794 31.0115L37.0841 27.9193C38.2741 24.2568 36.9705 20.2447 33.855 17.9812L31.2246 16.0701Z" stroke="#94A0A4" stroke-opacity="0.06" stroke-width="3.55556"/>
</g>
<mask id="mask2_29_4778" style="mask-type:luminance" maskUnits="userSpaceOnUse" x="16" y="16" width="20" height="20">
<path fill-rule="evenodd" clip-rule="evenodd" d="M21.8201 17.5084C24.3124 15.6976 27.6873 15.6976 30.1797 17.5084L32.8101 19.4194C35.3024 21.2302 36.3453 24.44 35.3933 27.3699L34.3886 30.4621C33.4366 33.392 30.7063 35.3758 27.6256 35.3758H24.3742C21.2935 35.3758 18.5632 33.392 17.6112 30.4621L16.6064 27.3699C15.6545 24.44 16.6974 21.2302 19.1897 19.4194L21.8201 17.5084Z" fill="white"/>
</mask>
<g mask="url(#mask2_29_4778)">
<g style="mix-blend-mode:multiply" opacity="0.2">
<path fill-rule="evenodd" clip-rule="evenodd" d="M25.9999 26.0271L14.4443 28.916V23.1382L25.9999 26.0271ZM25.9999 26.0271L28.8888 14.4716H23.111L25.9999 26.0271ZM25.9999 26.0271L37.5554 23.1382V28.916L25.9999 26.0271ZM25.9999 26.0271L32.1281 15.8133L36.2137 19.8989L25.9999 26.0271ZM25.9999 26.0271L32.1281 36.2409L36.2137 32.1554L25.9999 26.0271ZM25.9999 26.0271L23.111 37.5827H28.8888L25.9999 26.0271ZM25.9999 26.0271L19.8716 36.2409L15.7861 32.1554L25.9999 26.0271Z" fill="url(#paint3_linear_29_4778)"/>
<path d="M19.8716 15.8133L15.7861 19.8989L25.9999 26.0271L19.8716 15.8133Z" fill="url(#paint4_linear_29_4778)"/>
</g>
<path d="M24.2014 16.2216C23.7 16.5858 23.3128 16.8672 23.0398 17.0655" stroke="white" stroke-width="3.55556" stroke-linecap="round"/>
</g>
<g filter="url(#filter2_d_29_4778)">
<path d="M24.1597 23.4931L26.0015 20.8057L27.8433 23.4931L30.9684 24.4144L28.9816 26.9965L29.0712 30.2532L26.0015 29.1617L22.9318 30.2532L23.0214 26.9965L21.0347 24.4144L24.1597 23.4931Z" fill="white"/>
<path d="M24.1231 33.6033L26.0015 32.9353L27.8799 33.6033C28.9848 33.9962 30.2124 33.819 31.1611 33.1297C32.1098 32.4405 32.6577 31.3277 32.6254 30.1555L32.5706 28.1626L33.7863 26.5826C34.5014 25.6531 34.7123 24.4309 34.3499 23.3156C33.9875 22.2003 33.0985 21.3355 31.9737 21.0039L30.0614 20.4402L28.9344 18.7957C28.2715 17.8284 27.1742 17.2502 26.0015 17.2502C24.8288 17.2502 23.7316 17.8284 23.0686 18.7957L21.9416 20.4402L20.0293 21.0039C18.9045 21.3355 18.0155 22.2003 17.6531 23.3156C17.2908 24.4309 17.5016 25.6531 18.2167 26.5826L19.4324 28.1626L19.3776 30.1555C19.3454 31.3277 19.8932 32.4405 20.8419 33.1297C21.7906 33.819 23.0182 33.9962 24.1231 33.6033Z" stroke="white" stroke-width="7.11111" stroke-linejoin="round"/>
</g>
<path d="M31.63 32.2266H20.41V30.8066C20.41 28.3266 21.39 27.0866 24.15 26.1466L27.35 25.0466C28.95 24.4666 29.51 23.9266 29.51 22.7466C29.51 21.3266 28.59 20.6066 26.19 20.6066C23.51 20.6066 22.51 21.5466 22.51 23.3066V23.5466H20.39V23.3466C20.39 20.8666 22.09 18.6266 26.27 18.6266C30.07 18.6266 31.67 20.4266 31.67 22.7866C31.67 24.9866 30.25 26.1466 27.89 26.8666L25.07 27.7266C23.27 28.3466 22.65 28.9866 22.65 30.5066L25.89 30.2866H31.63V32.2266Z" fill="black"/>
<g filter="url(#filter3_d_29_4778)">
<path fill-rule="evenodd" clip-rule="evenodd" d="M22.1053 35.7915L21.8553 35.6929C21.7024 35.6326 21.6273 35.4597 21.6876 35.3068C21.7178 35.2301 21.7786 35.1694 21.8553 35.1391L22.1053 35.0405C22.3937 34.9268 22.6219 34.6985 22.7357 34.4101L22.8343 34.1601C22.8946 34.0072 23.0675 33.9321 23.2204 33.9924C23.2971 34.0227 23.3578 34.0834 23.3881 34.1601L23.4867 34.4101C23.6004 34.6985 23.8287 34.9268 24.1171 35.0405L24.3671 35.1391C24.52 35.1994 24.5951 35.3723 24.5348 35.5252C24.5045 35.6019 24.4438 35.6627 24.3671 35.6929L24.1171 35.7915C23.8287 35.9053 23.6004 36.1335 23.4867 36.4219L23.3881 36.6719C23.3278 36.8248 23.1549 36.8999 23.002 36.8396C22.9253 36.8094 22.8645 36.7486 22.8343 36.6719L22.7357 36.4219C22.6219 36.1335 22.3937 35.9053 22.1053 35.7915Z" fill="white"/>
</g>
<g filter="url(#filter4_d_29_4778)">
<path fill-rule="evenodd" clip-rule="evenodd" d="M34.4926 23.2465L34.18 23.1232C33.9888 23.0479 33.895 22.8318 33.9704 22.6406C34.0082 22.5447 34.0841 22.4688 34.18 22.431L34.4926 22.3077C34.853 22.1656 35.1383 21.8802 35.2805 21.5198L35.4038 21.2072C35.4792 21.0161 35.6952 20.9222 35.8864 20.9976C35.9823 21.0354 36.0582 21.1113 36.096 21.2072L36.2193 21.5198C36.3615 21.8802 36.6468 22.1656 37.0072 22.3077L37.3198 22.431C37.5109 22.5064 37.6048 22.7225 37.5294 22.9136C37.4916 23.0095 37.4157 23.0854 37.3198 23.1232L37.0072 23.2465C36.6468 23.3887 36.3615 23.674 36.2193 24.0344L36.096 24.347C36.0206 24.5382 35.8045 24.632 35.6134 24.5566C35.5175 24.5188 35.4416 24.4429 35.4038 24.347L35.2805 24.0344C35.1383 23.674 34.853 23.3887 34.4926 23.2465Z" fill="white"/>
</g>
<g filter="url(#filter5_d_29_4778)">
<path fill-rule="evenodd" clip-rule="evenodd" d="M16.94 26.6698L16.7525 26.5959C16.6378 26.5506 16.5815 26.421 16.6267 26.3063C16.6494 26.2488 16.6949 26.2032 16.7525 26.1805L16.94 26.1066C17.1563 26.0213 17.3275 25.8501 17.4128 25.6338L17.4867 25.4463C17.532 25.3316 17.6616 25.2753 17.7763 25.3205C17.8339 25.3432 17.8794 25.3887 17.9021 25.4463L17.9761 25.6338C18.0614 25.8501 18.2325 26.0213 18.4488 26.1066L18.6364 26.1805C18.751 26.2258 18.8074 26.3554 18.7621 26.4701C18.7394 26.5276 18.6939 26.5732 18.6364 26.5959L18.4488 26.6698C18.2325 26.7551 18.0614 26.9263 17.9761 27.1426L17.9021 27.3301C17.8569 27.4448 17.7272 27.5011 17.6125 27.4559C17.555 27.4332 17.5094 27.3877 17.4867 27.3301L17.4128 27.1426C17.3275 26.9263 17.1563 26.7551 16.94 26.6698Z" fill="white"/>
</g>
<defs>
<filter id="filter0_d_29_4778" x="13.1111" y="26.0273" width="25.7779" height="36.4232" filterUnits="userSpaceOnUse" color-interpolation-filters="sRGB">
<feFlood flood-opacity="0" result="BackgroundImageFix"/>
<feColorMatrix in="SourceAlpha" type="matrix" values="0 0 0 0 0 0 0 0 0 0 0 0 0 0 0 0 0 0 127 0" result="hardAlpha"/>
<feOffset dy="7.11111"/>
<feGaussianBlur stdDeviation="3.55556"/>
<feColorMatrix type="matrix" values="0 0 0 0 0.333333 0 0 0 0 0.790431 0 0 0 0 0.819608 0 0 0 0.2 0"/>
<feBlend mode="darken" in2="BackgroundImageFix" result="effect1_dropShadow_29_4778"/>
<feBlend mode="normal" in="SourceGraphic" in2="effect1_dropShadow_29_4778" result="shape"/>
</filter>
<filter id="filter1_d_29_4778" x="5.59104" y="9.03917" width="40.8177" height="40.5588" filterUnits="userSpaceOnUse" color-interpolation-filters="sRGB">
<feFlood flood-opacity="0" result="BackgroundImageFix"/>
<feColorMatrix in="SourceAlpha" type="matrix" values="0 0 0 0 0 0 0 0 0 0 0 0 0 0 0 0 0 0 127 0" result="hardAlpha"/>
<feOffset dy="3.55556"/>
<feGaussianBlur stdDeviation="3.55556"/>
<feColorMatrix type="matrix" values="0 0 0 0 0.0196078 0 0 0 0 0.443137 0 0 0 0 0.643137 0 0 0 0.12 0"/>
<feBlend mode="normal" in2="BackgroundImageFix" result="effect1_dropShadow_29_4778"/>
<feBlend mode="normal" in="SourceGraphic" in2="effect1_dropShadow_29_4778" result="shape"/>
</filter>
<filter id="filter2_d_29_4778" x="6.81247" y="10.1391" width="38.3782" height="37.892" filterUnits="userSpaceOnUse" color-interpolation-filters="sRGB">
<feFlood flood-opacity="0" result="BackgroundImageFix"/>
<feColorMatrix in="SourceAlpha" type="matrix" values="0 0 0 0 0 0 0 0 0 0 0 0 0 0 0 0 0 0 127 0" result="hardAlpha"/>
<feOffset dy="3.55556"/>
<feGaussianBlur stdDeviation="3.55556"/>
<feColorMatrix type="matrix" values="0 0 0 0 0.596078 0 0 0 0 0.745098 0 0 0 0 0.780392 0 0 0 0.5 0"/>
<feBlend mode="normal" in2="BackgroundImageFix" result="effect1_dropShadow_29_4778"/>
<feBlend mode="normal" in="SourceGraphic" in2="effect1_dropShadow_29_4778" result="shape"/>
</filter>
<filter id="filter3_d_29_4778" x="14.5556" y="26.8604" width="17.1111" height="17.1111" filterUnits="userSpaceOnUse" color-interpolation-filters="sRGB">
<feFlood flood-opacity="0" result="BackgroundImageFix"/>
<feColorMatrix in="SourceAlpha" type="matrix" values="0 0 0 0 0 0 0 0 0 0 0 0 0 0 0 0 0 0 127 0" result="hardAlpha"/>
<feOffset/>
<feGaussianBlur stdDeviation="3.55556"/>
<feColorMatrix type="matrix" values="0 0 0 0 0.705882 0 0 0 0 0.823529 0 0 0 0 0.831373 0 0 0 1 0"/>
<feBlend mode="normal" in2="BackgroundImageFix" result="effect1_dropShadow_29_4778"/>
<feBlend mode="normal" in="SourceGraphic" in2="effect1_dropShadow_29_4778" result="shape"/>
</filter>
<filter id="filter4_d_29_4778" x="26.8332" y="13.8604" width="17.8333" height="17.8333" filterUnits="userSpaceOnUse" color-interpolation-filters="sRGB">
<feFlood flood-opacity="0" result="BackgroundImageFix"/>
<feColorMatrix in="SourceAlpha" type="matrix" values="0 0 0 0 0 0 0 0 0 0 0 0 0 0 0 0 0 0 127 0" result="hardAlpha"/>
<feOffset/>
<feGaussianBlur stdDeviation="3.55556"/>
<feColorMatrix type="matrix" values="0 0 0 0 0.705882 0 0 0 0 0.823529 0 0 0 0 0.831373 0 0 0 1 0"/>
<feBlend mode="normal" in2="BackgroundImageFix" result="effect1_dropShadow_29_4778"/>
<feBlend mode="normal" in="SourceGraphic" in2="effect1_dropShadow_29_4778" result="shape"/>
</filter>
<filter id="filter5_d_29_4778" x="9.49997" y="18.1938" width="16.389" height="16.3889" filterUnits="userSpaceOnUse" color-interpolation-filters="sRGB">
<feFlood flood-opacity="0" result="BackgroundImageFix"/>
<feColorMatrix in="SourceAlpha" type="matrix" values="0 0 0 0 0 0 0 0 0 0 0 0 0 0 0 0 0 0 127 0" result="hardAlpha"/>
<feOffset/>
<feGaussianBlur stdDeviation="3.55556"/>
<feColorMatrix type="matrix" values="0 0 0 0 0.705882 0 0 0 0 0.823529 0 0 0 0 0.831373 0 0 0 1 0"/>
<feBlend mode="normal" in2="BackgroundImageFix" result="effect1_dropShadow_29_4778"/>
<feBlend mode="normal" in="SourceGraphic" in2="effect1_dropShadow_29_4778" result="shape"/>
</filter>
<linearGradient id="paint0_linear_29_4778" x1="3.61108" y1="4.36066" x2="3.61108" y2="47.694" gradientUnits="userSpaceOnUse">
<stop stop-color="#59CBF2"/>
<stop offset="1" stop-color="#40A7E8"/>
</linearGradient>
<linearGradient id="paint1_linear_29_4778" x1="9.38892" y1="9.41577" x2="9.38892" y2="42.638" gradientUnits="userSpaceOnUse">
<stop stop-color="#C4ECEB"/>
<stop offset="1" stop-color="#A7BCC1"/>
</linearGradient>
<linearGradient id="paint2_linear_29_4778" x1="14.4443" y1="14.4716" x2="14.4443" y2="37.5827" gradientUnits="userSpaceOnUse">
<stop stop-color="#F0FBFE"/>
<stop offset="1" stop-color="#C0DCDC"/>
</linearGradient>
<linearGradient id="paint3_linear_29_4778" x1="15.513" y1="14.4716" x2="15.513" y2="35.4454" gradientUnits="userSpaceOnUse">
<stop stop-color="#AFD4D6"/>
<stop offset="1" stop-color="#B9D9DB" stop-opacity="0.57"/>
</linearGradient>
<linearGradient id="paint4_linear_29_4778" x1="15.513" y1="14.4716" x2="15.513" y2="35.4454" gradientUnits="userSpaceOnUse">
<stop stop-color="#AFD4D6"/>
<stop offset="1" stop-color="#B9D9DB" stop-opacity="0.57"/>
</linearGradient>
</defs>
</svg>
