<svg width="53" height="63" viewBox="0 0 53 63" fill="none" xmlns="http://www.w3.org/2000/svg">
<path fill-rule="evenodd" clip-rule="evenodd" d="M38.9443 44.8051C39.742 44.8051 40.3887 45.4518 40.3887 46.2495C40.3887 47.0473 39.742 47.694 38.9443 47.694H25.9443C25.8594 47.694 25.7762 47.6867 25.6953 47.6726C21.0552 47.4679 16.7943 45.8038 13.3604 43.128C13.0811 42.9104 12.6602 42.5497 12.3483 42.2783C12.0815 42.0461 11.7405 41.9162 11.3869 41.9162H7.8887C7.09095 41.9162 6.44425 41.2695 6.44425 40.4718C6.44425 39.674 7.09095 39.0273 7.8887 39.0273H9.33314C10.1309 39.0273 10.7776 38.3806 10.7776 37.5829C10.7776 36.7851 10.1309 36.1384 9.33314 36.1384H5.72203C4.92429 36.1384 4.27759 35.4917 4.27759 34.694C4.27759 33.8962 4.92429 33.2495 5.72203 33.2495H6.44425C7.242 33.2495 7.8887 32.6028 7.8887 31.8051C7.8887 31.0074 7.242 30.3607 6.44425 30.3607C5.86019 30.3607 5.36065 29.9397 5.26346 29.3637C5.22815 29.1545 5.20011 28.986 5.19548 28.9517C5.06645 27.9953 4.99981 27.0191 4.99981 26.0273C4.99981 14.0612 14.7003 4.36066 26.6665 4.36066C30.2776 4.36066 33.8887 4.36066 37.4998 4.36066C38.2976 4.36066 38.9443 5.00736 38.9443 5.8051C38.9443 6.60285 38.2976 7.24955 37.4998 7.24955H35.3331C34.5354 7.24955 33.8887 7.89625 33.8887 8.69399C33.8887 9.49173 34.5354 10.1384 35.3331 10.1384H43.9998C44.7976 10.1384 45.4443 10.7851 45.4443 11.5829C45.4443 12.3801 44.7984 13.0265 44.0014 13.0273H41.8331C41.0354 13.0273 40.3887 13.674 40.3887 14.4718C40.3887 15.2695 41.0354 15.9162 41.8331 15.9162H44.943C45.4893 15.9162 45.99 16.2238 46.2268 16.716C46.3692 17.0119 46.5189 17.331 46.6169 17.5617C47.7219 20.1624 48.3331 23.0235 48.3331 26.0273C48.3331 26.9712 48.2728 27.9009 48.1557 28.8129C48.1361 28.9662 48.1059 29.163 48.073 29.3646C47.9787 29.9427 47.4745 30.3607 46.8887 30.3607C46.091 30.3607 45.4443 31.0074 45.4443 31.8051C45.4443 32.6028 46.091 33.2495 46.8887 33.2495H47.6109C48.4087 33.2495 49.0554 33.8962 49.0554 34.694C49.0554 35.4917 48.4087 36.1384 47.6109 36.1384H46.6837C46.1593 36.1384 45.6771 36.4231 45.4151 36.8774C45.245 37.1724 45.0558 37.4934 44.9152 37.7125C44.5858 38.2259 44.2353 38.7245 43.8649 39.2071C43.4929 39.6918 43.1008 40.1604 42.69 40.6115C42.4646 40.859 42.0993 41.2258 41.8144 41.5075C41.5478 41.771 41.1876 41.9162 40.8127 41.9162H36.7776C35.9798 41.9162 35.3331 42.5629 35.3331 43.3607C35.3331 44.1528 35.9709 44.7961 36.7609 44.805L38.9443 44.8051Z" fill="url(#paint0_linear_29_4813)"/>
<g opacity="0.1">
<path fill-rule="evenodd" clip-rule="evenodd" d="M18.0805 14.2098C23.2001 10.4902 30.1327 10.4902 35.2523 14.2098C40.372 17.9295 42.5143 24.5227 40.5587 30.5412C38.6032 36.5598 32.9946 40.6346 26.6664 40.6346C20.3382 40.6346 14.7296 36.5598 12.7741 30.5412C10.8185 24.5227 12.9608 17.9295 18.0805 14.2098Z" fill="#0E995E" style="mix-blend-mode:multiply"/>
</g>
<g filter="url(#filter0_d_29_4813)">
<path fill-rule="evenodd" clip-rule="evenodd" d="M20.8887 26.0273H32.4442V44.6679C32.4442 47.3495 29.5887 49.0659 27.2206 47.8078L26.6665 47.5135L26.1123 47.8078C23.7442 49.0659 20.8887 47.3495 20.8887 44.6679V26.0273Z" fill="#12AAB5"/>
</g>
<mask id="mask0_29_4813" style="mask-type:luminance" maskUnits="userSpaceOnUse" x="20" y="26" width="13" height="23">
<path fill-rule="evenodd" clip-rule="evenodd" d="M20.8887 26.0273H32.4442V44.6679C32.4442 47.3495 29.5887 49.0659 27.2206 47.8078L26.6665 47.5135L26.1123 47.8078C23.7442 49.0659 20.8887 47.3495 20.8887 44.6679V26.0273Z" fill="white"/>
</mask>
<g mask="url(#mask0_29_4813)">
<path fill-rule="evenodd" clip-rule="evenodd" d="M23.7776 37.5829H29.5554V50.5829H23.7776V37.5829Z" fill="white"/>
</g>
<path style="mix-blend-mode:multiply" opacity="0.2" fill-rule="evenodd" clip-rule="evenodd" d="M18.7675 16.5997C23.4776 13.1776 29.8555 13.1776 34.5656 16.5997C39.2757 20.0217 41.2466 26.0875 39.4475 31.6245C37.6484 37.1616 32.4885 40.9104 26.6665 40.9104C20.8445 40.9104 15.6847 37.1616 13.8856 31.6245C12.0865 26.0875 14.0574 20.0217 18.7675 16.5997Z" fill="#18AC6C"/>
<path fill-rule="evenodd" clip-rule="evenodd" d="M18.7675 15.1543C23.4776 11.7323 29.8555 11.7323 34.5656 15.1543C39.2757 18.5764 41.2466 24.6422 39.4475 30.1792C37.6484 35.7163 32.4885 39.4651 26.6665 39.4651C20.8445 39.4651 15.6847 35.7163 13.8856 30.1792C12.0865 24.6422 14.0574 18.5764 18.7675 15.1543Z" fill="url(#paint1_linear_29_4813)"/>
<mask id="mask1_29_4813" style="mask-type:luminance" maskUnits="userSpaceOnUse" x="13" y="12" width="28" height="28">
<path fill-rule="evenodd" clip-rule="evenodd" d="M18.7675 15.1543C23.4776 11.7323 29.8555 11.7323 34.5656 15.1543C39.2757 18.5764 41.2466 24.6422 39.4475 30.1792C37.6484 35.7163 32.4885 39.4651 26.6665 39.4651C20.8445 39.4651 15.6847 35.7163 13.8856 30.1792C12.0865 24.6422 14.0574 18.5764 18.7675 15.1543Z" fill="white"/>
</mask>
<g mask="url(#mask1_29_4813)">
<path d="M28.1518 10.9398C27.2659 10.2961 26.0662 10.2961 25.1803 10.9398L12.7782 19.9504C11.8923 20.5941 11.5216 21.735 11.86 22.7765L16.5971 37.356C16.9355 38.3975 17.9061 39.1026 19.0012 39.1026H34.3309C35.426 39.1026 36.3966 38.3975 36.735 37.356L41.4721 22.7765C41.8105 21.735 41.4398 20.5941 40.5539 19.9504L28.1518 10.9398Z" stroke="#E67515" stroke-width="3.55556"/>
<path d="M36.7361 37.3559L41.4732 22.7764" stroke="#F68A2C" stroke-width="3.55556" stroke-linecap="round"/>
<path d="M11.8611 22.7764L16.5982 37.3559" stroke="#F68A2C" stroke-width="3.55556" stroke-linecap="round"/>
<path d="M41.4721 22.7765C41.8105 21.735 41.4398 20.5941 40.5539 19.9504L28.1518 10.9398C27.2659 10.2961 26.0662 10.2961 25.1803 10.9398L12.7782 19.9504C11.8923 20.5941 11.5216 21.735 11.86 22.7765" stroke="#FAA953" stroke-width="3.55556" stroke-linecap="round"/>
<path opacity="0.3" d="M28.1529 10.9398C27.2669 10.2961 26.0673 10.2961 25.1813 10.9398L12.7793 19.9504" stroke="white" stroke-width="3.55556" stroke-linecap="round"/>
<path d="M25.1803 10.9431L22.0798 13.1958" stroke="white" stroke-width="3.55556" stroke-linecap="round"/>
</g>
<g filter="url(#filter1_d_29_4813)">
<path fill-rule="evenodd" clip-rule="evenodd" d="M22.4863 17.5079C24.9787 15.6971 28.3536 15.6971 30.846 17.5079L33.4763 19.419C35.9687 21.2298 37.0116 24.4395 36.0596 27.3695L35.0549 30.4617C34.1029 33.3916 31.3725 35.3753 28.2918 35.3753H25.0405C21.9598 35.3753 19.2294 33.3916 18.2774 30.4617L17.2727 27.3695C16.3207 24.4395 17.3636 21.2298 19.856 19.419L22.4863 17.5079Z" fill="url(#paint2_linear_29_4813)"/>
<path d="M31.8909 16.0697C28.7755 13.8062 24.5568 13.8062 21.4414 16.0697L18.811 17.9808C15.6956 20.2443 14.3919 24.2564 15.5819 27.9188L16.5867 31.011C17.7766 34.6735 21.1896 37.1531 25.0405 37.1531H28.2918C32.1427 37.1531 35.5557 34.6735 36.7456 31.011L37.7504 27.9188C38.9404 24.2564 37.6367 20.2443 34.5213 17.9808L31.8909 16.0697Z" stroke="#E86A00" stroke-opacity="0.06" stroke-width="3.55556"/>
</g>
<mask id="mask2_29_4813" style="mask-type:luminance" maskUnits="userSpaceOnUse" x="16" y="16" width="21" height="20">
<path fill-rule="evenodd" clip-rule="evenodd" d="M22.4863 17.5079C24.9787 15.6971 28.3536 15.6971 30.846 17.5079L33.4763 19.419C35.9687 21.2298 37.0116 24.4395 36.0596 27.3695L35.0549 30.4617C34.1029 33.3916 31.3725 35.3753 28.2918 35.3753H25.0405C21.9598 35.3753 19.2294 33.3916 18.2774 30.4617L17.2727 27.3695C16.3207 24.4395 17.3636 21.2298 19.856 19.419L22.4863 17.5079Z" fill="white"/>
</mask>
<g mask="url(#mask2_29_4813)">
<path fill-rule="evenodd" clip-rule="evenodd" d="M26.6662 26.0267L15.1106 28.9156V23.1378L26.6662 26.0267ZM26.6662 26.0267L29.555 14.4711H23.7773L26.6662 26.0267ZM26.6662 26.0267L38.2217 23.1378V28.9156L26.6662 26.0267ZM26.6662 26.0267L32.7944 15.8129L36.8799 19.8984L26.6662 26.0267ZM26.6662 26.0267L32.7944 36.2404L36.8799 32.1549L26.6662 26.0267ZM26.6662 26.0267L23.7773 37.5822H29.555L26.6662 26.0267ZM26.6662 26.0267L20.5379 36.2404L16.4524 32.1549L26.6662 26.0267Z" fill="url(#paint3_linear_29_4813)"/>
<path d="M20.5379 15.8129L16.4524 19.8984L26.6662 26.0267L20.5379 15.8129Z" fill="url(#paint4_linear_29_4813)"/>
<path d="M24.8676 16.2211C24.3662 16.5854 23.979 16.8667 23.7061 17.0651" stroke="white" stroke-width="3.55556" stroke-linecap="round"/>
</g>
<g filter="url(#filter2_d_29_4813)">
<path d="M24.8245 23.4928L26.6663 20.8054L28.5081 23.4928L31.6332 24.414L29.6464 26.9961L29.736 30.2529L26.6663 29.1613L23.5966 30.2529L23.6862 26.9961L21.6995 24.414L24.8245 23.4928Z" fill="white"/>
<path d="M24.7879 33.6029L26.6663 32.935L28.5447 33.6029C29.6496 33.9958 30.8772 33.8187 31.8259 33.1294C32.7746 32.4401 33.3224 31.3273 33.2902 30.1551L33.2354 28.1622L34.4511 26.5822C35.1662 25.6528 35.3771 24.4305 35.0147 23.3153C34.6523 22.2 33.7633 21.3351 32.6385 21.0035L30.7262 20.4398L29.5992 18.7953C28.9363 17.828 27.839 17.2498 26.6663 17.2498C25.4936 17.2498 24.3964 17.828 23.7334 18.7953L22.6064 20.4398L20.6941 21.0035C19.5693 21.3351 18.6803 22.2 18.3179 23.3153C17.9556 24.4305 18.1664 25.6528 18.8815 26.5822L20.0972 28.1622L20.0424 30.1551C20.0102 31.3273 20.558 32.4401 21.5067 33.1294C22.4554 33.8187 23.683 33.9958 24.7879 33.6029Z" stroke="white" stroke-width="7.11111" stroke-linejoin="round"/>
</g>
<path d="M26.7923 32.5525C22.5923 32.5525 20.7523 30.6925 20.7523 27.9725V27.6525H23.0323V27.9325C23.0323 29.6925 23.7523 30.5125 26.7123 30.5125C29.4923 30.5125 30.4923 29.8725 30.4923 28.2925C30.4923 26.9325 29.5723 26.3125 27.8923 26.3125H24.1523V24.5125H27.5923C29.2123 24.5125 30.0523 23.9125 30.0523 22.7125C30.0523 21.4125 29.2523 20.7925 26.6523 20.7925C23.9123 20.7925 23.0323 21.6125 23.0323 23.3725V23.5125H20.7523V23.3325C20.7523 20.7125 22.6723 18.7525 26.8323 18.7525C30.2523 18.7525 32.1923 20.0125 32.1923 22.2925C32.1923 23.8125 31.2923 24.8925 29.5723 25.1725V25.3325C31.5123 25.6725 32.6723 26.7525 32.6723 28.6125C32.6723 31.1525 30.4523 32.5525 26.7923 32.5525Z" fill="black"/>
<defs>
<filter id="filter0_d_29_4813" x="13.7776" y="26.0273" width="25.7779" height="36.4232" filterUnits="userSpaceOnUse" color-interpolation-filters="sRGB">
<feFlood flood-opacity="0" result="BackgroundImageFix"/>
<feColorMatrix in="SourceAlpha" type="matrix" values="0 0 0 0 0 0 0 0 0 0 0 0 0 0 0 0 0 0 127 0" result="hardAlpha"/>
<feOffset dy="7.11111"/>
<feGaussianBlur stdDeviation="3.55556"/>
<feColorMatrix type="matrix" values="0 0 0 0 0.333333 0 0 0 0 0.819608 0 0 0 0 0.615686 0 0 0 0.2 0"/>
<feBlend mode="darken" in2="BackgroundImageFix" result="effect1_dropShadow_29_4813"/>
<feBlend mode="normal" in="SourceGraphic" in2="effect1_dropShadow_29_4813" result="shape"/>
</filter>
<filter id="filter1_d_29_4813" x="6.2573" y="9.03874" width="40.8177" height="40.5588" filterUnits="userSpaceOnUse" color-interpolation-filters="sRGB">
<feFlood flood-opacity="0" result="BackgroundImageFix"/>
<feColorMatrix in="SourceAlpha" type="matrix" values="0 0 0 0 0 0 0 0 0 0 0 0 0 0 0 0 0 0 127 0" result="hardAlpha"/>
<feOffset dy="3.55556"/>
<feGaussianBlur stdDeviation="3.55556"/>
<feColorMatrix type="matrix" values="0 0 0 0 0.95 0 0 0 0 0.442079 0 0 0 0 0 0 0 0 0.8 0"/>
<feBlend mode="normal" in2="BackgroundImageFix" result="effect1_dropShadow_29_4813"/>
<feBlend mode="normal" in="SourceGraphic" in2="effect1_dropShadow_29_4813" result="shape"/>
</filter>
<filter id="filter2_d_29_4813" x="7.47727" y="10.1387" width="38.3782" height="37.892" filterUnits="userSpaceOnUse" color-interpolation-filters="sRGB">
<feFlood flood-opacity="0" result="BackgroundImageFix"/>
<feColorMatrix in="SourceAlpha" type="matrix" values="0 0 0 0 0 0 0 0 0 0 0 0 0 0 0 0 0 0 127 0" result="hardAlpha"/>
<feOffset dy="3.55556"/>
<feGaussianBlur stdDeviation="3.55556"/>
<feColorMatrix type="matrix" values="0 0 0 0 0.643137 0 0 0 0 0.262856 0 0 0 0 0.0196078 0 0 0 0.2 0"/>
<feBlend mode="normal" in2="BackgroundImageFix" result="effect1_dropShadow_29_4813"/>
<feBlend mode="normal" in="SourceGraphic" in2="effect1_dropShadow_29_4813" result="shape"/>
</filter>
<linearGradient id="paint0_linear_29_4813" x1="4.27759" y1="4.36066" x2="4.27759" y2="47.694" gradientUnits="userSpaceOnUse">
<stop stop-color="#60DCA7"/>
<stop offset="1" stop-color="#54D09C"/>
</linearGradient>
<linearGradient id="paint1_linear_29_4813" x1="10.0554" y1="9.41534" x2="10.0554" y2="42.6376" gradientUnits="userSpaceOnUse">
<stop stop-color="#FD9C43"/>
<stop offset="1" stop-color="#F27E1D"/>
</linearGradient>
<linearGradient id="paint2_linear_29_4813" x1="15.1106" y1="14.4711" x2="15.1106" y2="37.5822" gradientUnits="userSpaceOnUse">
<stop stop-color="#FFD17B"/>
<stop offset="1" stop-color="#FBA152"/>
</linearGradient>
<linearGradient id="paint3_linear_29_4813" x1="16.1886" y1="14.4711" x2="16.1886" y2="35.4263" gradientUnits="userSpaceOnUse">
<stop stop-color="#F58425" stop-opacity="0.2"/>
<stop offset="1" stop-color="#F58425" stop-opacity="0.01"/>
</linearGradient>
<linearGradient id="paint4_linear_29_4813" x1="16.1886" y1="14.4711" x2="16.1886" y2="35.4263" gradientUnits="userSpaceOnUse">
<stop stop-color="#F58425" stop-opacity="0.2"/>
<stop offset="1" stop-color="#F58425" stop-opacity="0.01"/>
</linearGradient>
</defs>
</svg>
