<svg width="53" height="62" viewBox="0 0 53 62" fill="none" xmlns="http://www.w3.org/2000/svg">
<path fill-rule="evenodd" clip-rule="evenodd" d="M38.4445 44.8052C39.2422 44.8052 39.8889 45.4519 39.8889 46.2496C39.8889 47.0474 39.2422 47.694 38.4445 47.694H25.4445C25.3596 47.694 25.2764 47.6867 25.1955 47.6727C20.5554 47.468 16.2945 45.8039 12.8606 43.1281C12.5813 42.9105 12.1604 42.5497 11.8485 42.2783C11.5817 42.0462 11.2408 41.9163 10.8871 41.9163H7.38894C6.5912 41.9163 5.9445 41.2696 5.9445 40.4718C5.9445 39.6741 6.5912 39.0274 7.38894 39.0274H8.83339C9.63113 39.0274 10.2778 38.3807 10.2778 37.5829C10.2778 36.7852 9.63113 36.1385 8.83339 36.1385H5.22228C4.42453 36.1385 3.77783 35.4918 3.77783 34.694C3.77783 33.8963 4.42453 33.2496 5.22228 33.2496H5.9445C6.74224 33.2496 7.38894 32.6029 7.38894 31.8052C7.38894 31.0074 6.74224 30.3607 5.9445 30.3607C5.36043 30.3607 4.86089 29.9397 4.76371 29.3638C4.7284 29.1545 4.70035 28.9861 4.69573 28.9518C4.56669 27.9954 4.50005 27.0192 4.50005 26.0274C4.50005 14.0612 14.2006 4.36072 26.1667 4.36072C29.7778 4.36072 33.3889 4.36072 37.0001 4.36072C37.7978 4.36072 38.4445 5.00742 38.4445 5.80516C38.4445 6.60291 37.7978 7.24961 37.0001 7.24961H34.8334C34.0356 7.24961 33.3889 7.89631 33.3889 8.69405C33.3889 9.4918 34.0356 10.1385 34.8334 10.1385H43.5001C44.2978 10.1385 44.9445 10.7852 44.9445 11.5829C44.9445 12.3802 44.2987 13.0265 43.5016 13.0274H41.3334C40.5356 13.0274 39.8889 13.6741 39.8889 14.4718C39.8889 15.2696 40.5356 15.9163 41.3334 15.9163H44.4433C44.9895 15.9163 45.4902 16.2238 45.7271 16.7161C45.8694 17.012 46.0191 17.3311 46.1171 17.5617C47.2221 20.1624 47.8334 23.0235 47.8334 26.0274C47.8334 26.9712 47.773 27.9009 47.656 28.8129C47.6363 28.9663 47.6061 29.1631 47.5732 29.3646C47.479 29.9428 46.9747 30.3607 46.3889 30.3607C45.5912 30.3607 44.9445 31.0074 44.9445 31.8052C44.9445 32.6029 45.5912 33.2496 46.3889 33.2496H47.1112C47.9089 33.2496 48.5556 33.8963 48.5556 34.694C48.5556 35.4918 47.9089 36.1385 47.1112 36.1385H46.184C45.6596 36.1385 45.1774 36.4232 44.9154 36.8775C44.7452 37.1725 44.556 37.4935 44.4155 37.7125C44.086 38.226 43.7355 38.7246 43.3651 39.2072C42.9931 39.6919 42.6011 40.1604 42.1903 40.6115C41.9648 40.8591 41.5995 41.2259 41.3146 41.5075C41.0481 41.7711 40.6878 41.9163 40.313 41.9163H36.2778C35.4801 41.9163 34.8334 42.563 34.8334 43.3607C34.8334 44.1529 35.4711 44.7961 36.2612 44.8051L38.4445 44.8052Z" fill="url(#paint0_linear_29_4845)"/>
<g opacity="0.1">
<path fill-rule="evenodd" clip-rule="evenodd" d="M18.3304 12.4573C23.1791 9.65788 29.1529 9.65788 34.0016 12.4573C38.8503 15.2566 41.8372 20.4301 41.8372 26.0289C41.8372 31.6276 38.8503 36.8011 34.0016 39.6005C29.1529 42.3999 23.1791 42.3999 18.3305 39.6005C13.4818 36.8011 10.4949 31.6276 10.4949 26.0289C10.4949 20.4301 13.4818 15.2566 18.3304 12.4573Z" fill="#0274F3" style="mix-blend-mode:multiply"/>
</g>
<g filter="url(#filter0_d_29_4845)">
<path fill-rule="evenodd" clip-rule="evenodd" d="M21.1635 23.8594L31.1709 29.6372L21.8506 45.7803C20.5098 48.1027 17.1786 48.1614 15.7568 45.8878L15.4241 45.3558L14.797 45.3337C12.1171 45.2391 10.5024 42.3249 11.8432 40.0025L21.1635 23.8594Z" fill="#2DCD6B"/>
</g>
<mask id="mask0_29_4845" style="mask-type:luminance" maskUnits="userSpaceOnUse" x="11" y="23" width="21" height="25">
<path fill-rule="evenodd" clip-rule="evenodd" d="M21.1635 23.8594L31.1709 29.6372L21.8506 45.7803C20.5098 48.1027 17.1786 48.1614 15.7568 45.8878L15.4241 45.3558L14.797 45.3337C12.1171 45.2391 10.5024 42.3249 11.8432 40.0025L21.1635 23.8594Z" fill="white"/>
</mask>
<g mask="url(#mask0_29_4845)">
<path fill-rule="evenodd" clip-rule="evenodd" d="M17.8875 35.3108L22.8912 38.1997L16.3912 49.458L11.3875 46.5691L17.8875 35.3108Z" fill="white"/>
</g>
<g filter="url(#filter1_d_29_4845)">
<path fill-rule="evenodd" clip-rule="evenodd" d="M31.1702 23.8594L21.1628 29.6372L30.483 45.7803C31.8238 48.1027 35.155 48.1614 36.5768 45.8878L36.9095 45.3558L37.5366 45.3337C40.2165 45.2391 41.8312 42.3249 40.4904 40.0025L31.1702 23.8594Z" fill="#2DCD6B"/>
</g>
<mask id="mask1_29_4845" style="mask-type:luminance" maskUnits="userSpaceOnUse" x="21" y="23" width="20" height="25">
<path fill-rule="evenodd" clip-rule="evenodd" d="M31.1702 23.8594L21.1628 29.6372L30.483 45.7803C31.8238 48.1027 35.155 48.1614 36.5768 45.8878L36.9095 45.3558L37.5366 45.3337C40.2165 45.2391 41.8312 42.3249 40.4904 40.0025L31.1702 23.8594Z" fill="white"/>
</mask>
<g mask="url(#mask1_29_4845)">
<path fill-rule="evenodd" clip-rule="evenodd" d="M34.4463 35.3108L29.4426 38.1997L35.9426 49.458L40.9463 46.5691L34.4463 35.3108Z" fill="white"/>
</g>
<path style="mix-blend-mode:multiply" opacity="0.2" fill-rule="evenodd" clip-rule="evenodd" d="M19.0559 14.9639C23.4563 12.4233 28.8778 12.4233 33.2781 14.9639L33.4415 15.0582C37.8419 17.5988 40.5527 22.2939 40.5527 27.375V27.5637C40.5527 32.6448 37.8419 37.34 33.4416 39.8805L33.2781 39.9749C28.8778 42.5154 23.4563 42.5154 19.0559 39.9749L18.8925 39.8805C14.4921 37.34 11.7814 32.6448 11.7814 27.5637V27.375C11.7814 22.2939 14.4921 17.5988 18.8925 15.0582L19.0559 14.9639Z" fill="#0274F3"/>
<path fill-rule="evenodd" clip-rule="evenodd" d="M19.0557 13.5214C23.456 10.9808 28.8775 10.9808 33.2779 13.5214L33.4413 13.6157C37.8417 16.1563 40.5524 20.8514 40.5524 25.9325V26.1212C40.5524 31.2023 37.8417 35.8975 33.4413 38.438L33.2779 38.5324C28.8775 41.0729 23.456 41.0729 19.0557 38.5324L18.8922 38.438C14.4919 35.8975 11.7811 31.2023 11.7811 26.1212V25.9325C11.7811 20.8514 14.4919 16.1563 18.8922 13.6157L19.0557 13.5214Z" fill="url(#paint1_linear_29_4845)" stroke="#FFF04D" stroke-opacity="0.4" stroke-width="3.55556"/>
<mask id="mask2_29_4845" style="mask-type:luminance" maskUnits="userSpaceOnUse" x="10" y="9" width="33" height="34">
<path fill-rule="evenodd" clip-rule="evenodd" d="M19.0557 13.5214C23.456 10.9808 28.8775 10.9808 33.2779 13.5214L33.4413 13.6157C37.8417 16.1563 40.5524 20.8514 40.5524 25.9325V26.1212C40.5524 31.2023 37.8417 35.8975 33.4413 38.438L33.2779 38.5324C28.8775 41.0729 23.456 41.0729 19.0557 38.5324L18.8922 38.438C14.4919 35.8975 11.7811 31.2023 11.7811 26.1212V25.9325C11.7811 20.8514 14.4919 16.1563 18.8922 13.6157L19.0557 13.5214Z" fill="white" stroke="white" stroke-width="3.55556"/>
</mask>
<g mask="url(#mask2_29_4845)">
<path d="M27.4309 10.56C26.6488 10.1084 25.6852 10.1084 24.9031 10.56L13.4063 17.1976C12.6242 17.6492 12.1425 18.4837 12.1425 19.3867L12.1425 32.6621C12.1425 33.5651 12.6242 34.3996 13.4063 34.8512L24.9031 41.4888C25.6852 41.9404 26.6488 41.9404 27.4309 41.4888L38.9276 34.8512C39.7097 34.3996 40.1915 33.5651 40.1915 32.6621V19.3867C40.1915 18.4837 39.7097 17.6492 38.9276 17.1976L27.4309 10.56Z" stroke="#F9B607" stroke-width="3.55556" stroke-linecap="round"/>
<path d="M40.1915 32.6621V19.3867C40.1915 18.4837 39.7097 17.6492 38.9276 17.1976L27.4309 10.56C26.6488 10.1084 25.6852 10.1084 24.9031 10.56L13.4063 17.1976C12.6242 17.6492 12.1425 18.4837 12.1425 19.3867L12.1425 32.6621" stroke="#FBC618" stroke-width="3.55556" stroke-linecap="round"/>
<path opacity="0.6" d="M40.1915 19.3867C40.1915 18.4837 39.7097 17.6492 38.9276 17.1976L27.4309 10.56C26.6488 10.1084 25.6852 10.1084 24.9031 10.56L13.4063 17.1976C12.6242 17.6492 12.1425 18.4837 12.1425 19.3867" stroke="#FFF24E" stroke-width="3.55556" stroke-linecap="round"/>
<path opacity="0.4" d="M27.4308 10.56C26.6487 10.1084 25.6851 10.1084 24.903 10.56C24.903 10.56 21.0708 12.7725 19.1547 13.8788" stroke="white" stroke-width="3.55556" stroke-linecap="round"/>
<path d="M24.902 10.5616C24.902 10.5616 22.8738 11.7326 22.0278 12.2211" stroke="white" stroke-width="3.55556" stroke-linecap="round"/>
<path opacity="0.4" d="M27.4307 41.4918C28.7828 40.7112 29.7408 40.158 30.3049 39.8324" stroke="white" stroke-width="3.55556" stroke-linecap="round"/>
</g>
<g filter="url(#filter2_d_29_4845)">
<path fill-rule="evenodd" clip-rule="evenodd" d="M22.611 16.5244C24.8111 15.2541 27.5219 15.2541 29.7221 16.5244L32.6184 18.1965C34.8185 19.4668 36.1739 21.8144 36.1739 24.3549V27.6993C36.1739 30.2398 34.8186 32.5874 32.6184 33.8577L29.7221 35.5299C27.5219 36.8001 24.8111 36.8001 22.611 35.5299L19.7147 33.8577C17.5145 32.5874 16.1591 30.2398 16.1591 27.6993V24.3549C16.1591 21.8144 17.5145 19.4668 19.7147 18.1965L22.611 16.5244Z" fill="url(#paint2_linear_29_4845)"/>
<path d="M30.611 14.9848L29.7221 16.5244L30.611 14.9848C27.8607 13.3969 24.4723 13.3969 21.7221 14.9848L18.8258 16.6569C16.0755 18.2448 14.3813 21.1792 14.3813 24.3549V27.6993C14.3813 30.875 16.0756 33.8094 18.8258 35.3973L21.7221 37.0695C24.4723 38.6573 27.8607 38.6573 30.611 37.0695L33.5073 35.3973C36.2575 33.8094 37.9517 30.875 37.9517 27.6993V24.3549C37.9517 21.1792 36.2575 18.2448 33.5073 16.6569L30.611 14.9848Z" stroke="#F5900D" stroke-opacity="0.1" stroke-width="3.55556" style="mix-blend-mode:multiply"/>
</g>
<mask id="mask3_29_4845" style="mask-type:luminance" maskUnits="userSpaceOnUse" x="16" y="15" width="21" height="22">
<path fill-rule="evenodd" clip-rule="evenodd" d="M22.611 16.5244C24.8111 15.2541 27.5219 15.2541 29.7221 16.5244L32.6184 18.1965C34.8185 19.4668 36.1739 21.8144 36.1739 24.3549V27.6993C36.1739 30.2398 34.8186 32.5874 32.6184 33.8577L29.7221 35.5299C27.5219 36.8001 24.8111 36.8001 22.611 35.5299L19.7147 33.8577C17.5145 32.5874 16.1591 30.2398 16.1591 27.6993V24.3549C16.1591 21.8144 17.5145 19.4668 19.7147 18.1965L22.611 16.5244Z" fill="white"/>
</mask>
<g mask="url(#mask3_29_4845)">
<g style="mix-blend-mode:multiply" opacity="0.3">
<path fill-rule="evenodd" clip-rule="evenodd" d="M26.1673 26.0235L29.0555 14.4707H23.2778L26.1666 26.0263L26.1646 26.0257L20.0386 15.8158L15.9531 19.9013L26.1577 26.024L14.6111 23.1374V28.9151L26.163 26.0272L26.1652 26.0285L15.9527 32.156L20.0382 36.2415L26.1658 26.0289L26.166 26.029L23.2778 37.5818H29.0555L26.1666 26.0263L26.1687 26.0268L32.2947 36.2368L36.3802 32.1513L26.1756 26.0285L37.7222 28.9151V23.1374L26.1703 26.0253L26.1681 26.024L36.3806 19.8965L32.2951 15.811L26.1675 26.0237L26.1673 26.0235ZM26.1661 26.0283L26.1661 26.0282L26.1661 26.0283L26.1661 26.0283ZM26.166 26.028L26.1662 26.0279L26.1666 26.0263L26.1681 26.0259L26.1673 26.0245L26.167 26.0246L26.1666 26.0263L26.1651 26.0266L26.166 26.028ZM26.1671 26.0242L26.1671 26.0243L26.1672 26.0242L26.1671 26.0242Z" fill="#FFD640"/>
</g>
<path opacity="0.4" d="M35.2715 20.1437L26.7085 15.1998C26.3734 15.0063 25.9604 15.0063 25.6252 15.1998C24.6181 15.7813 23.9046 16.1933 23.4845 16.4358C22.6102 16.9405 21.8967 17.3525 21.3437 17.6717C20.3923 18.2211 18.9651 19.045 17.0623 20.1437" stroke="white" stroke-width="3.55556" stroke-linecap="round"/>
<path d="M25.6249 15.2006C24.6178 15.782 23.9042 16.194 23.4841 16.4365" stroke="white" stroke-width="3.55556" stroke-linecap="round"/>
</g>
<g filter="url(#filter3_d_29_4845)">
<path d="M24.3263 23.4931L26.1681 20.8057L28.01 23.4931L31.135 24.4143L29.1483 26.9964L29.2378 30.2532L26.1681 29.1616L23.0985 30.2532L23.188 26.9964L21.2013 24.4143L24.3263 23.4931Z" fill="white"/>
<path d="M24.2897 33.6032L26.1681 32.9353L28.0465 33.6032C29.1514 33.9961 30.379 33.819 31.3277 33.1297C32.2764 32.4404 32.8243 31.3277 32.792 30.1554L32.7372 28.1625L33.953 26.5825C34.6681 25.6531 34.8789 24.4308 34.5165 23.3156C34.1542 22.2003 33.2652 21.3354 32.1403 21.0038L30.2281 20.4401L29.101 18.7956C28.4381 17.8283 27.3408 17.2501 26.1681 17.2501C24.9955 17.2501 23.8982 17.8283 23.2353 18.7956L22.1082 20.4401L20.196 21.0038C19.0711 21.3354 18.1821 22.2003 17.8198 23.3156C17.4574 24.4308 17.6682 25.6531 18.3833 26.5825L19.5991 28.1625L19.5443 30.1554C19.512 31.3277 20.0598 32.4404 21.0086 33.1297C21.9573 33.819 23.1848 33.9961 24.2897 33.6032Z" stroke="white" stroke-width="7.11111" stroke-linejoin="round"/>
</g>
<path d="M29.1397 32.8894H26.9997V30.1694H18.4397V28.6694L26.6397 19.4894H29.1397V28.2294H31.4397V30.1694H29.1397V32.8894ZM21.4197 28.2294H26.9997V22.0094H26.8397L21.4197 28.0694V28.2294Z" fill="black"/>
<g filter="url(#filter4_d_29_4845)">
<path fill-rule="evenodd" clip-rule="evenodd" d="M33.3244 20.8131L32.9493 20.6652C32.7199 20.5747 32.6073 20.3154 32.6978 20.086C32.7431 19.9709 32.8342 19.8798 32.9493 19.8344L33.3244 19.6865C33.7569 19.5159 34.0993 19.1735 34.2699 18.741L34.4178 18.3659C34.5083 18.1365 34.7676 18.0239 34.997 18.1144C35.1121 18.1598 35.2031 18.2509 35.2485 18.3659L35.3965 18.741C35.567 19.1735 35.9094 19.5159 36.342 19.6865L36.717 19.8344C36.9464 19.9249 37.0591 20.1842 36.9686 20.4136C36.9232 20.5287 36.8321 20.6198 36.717 20.6652L36.342 20.8131C35.9094 20.9837 35.567 21.3261 35.3965 21.7586L35.2485 22.1337C35.1581 22.3631 34.8988 22.4757 34.6694 22.3852C34.5543 22.3398 34.4632 22.2487 34.4178 22.1337L34.2699 21.7586C34.0993 21.3261 33.7569 20.9837 33.3244 20.8131Z" fill="white"/>
</g>
<g filter="url(#filter5_d_29_4845)">
<path fill-rule="evenodd" clip-rule="evenodd" d="M18.6606 32.1809L18.4106 32.0823C18.2576 32.022 18.1826 31.8491 18.2429 31.6962C18.2731 31.6195 18.3339 31.5588 18.4106 31.5285L18.6606 31.4299C18.949 31.3162 19.1772 31.0879 19.291 30.7995L19.3896 30.5495C19.4499 30.3966 19.6228 30.3215 19.7757 30.3818C19.8524 30.4121 19.9131 30.4728 19.9434 30.5495L20.042 30.7995C20.1557 31.0879 20.384 31.3162 20.6724 31.4299L20.9224 31.5285C21.0753 31.5888 21.1504 31.7617 21.0901 31.9146C21.0598 31.9913 20.9991 32.0521 20.9224 32.0823L20.6724 32.1809C20.384 32.2947 20.1557 32.5229 20.042 32.8113L19.9434 33.0613C19.8831 33.2142 19.7102 33.2893 19.5573 33.229C19.4806 33.1988 19.4198 33.138 19.3896 33.0613L19.291 32.8113C19.1772 32.5229 18.949 32.2947 18.6606 32.1809Z" fill="white"/>
</g>
<g filter="url(#filter6_d_29_4845)">
<path fill-rule="evenodd" clip-rule="evenodd" d="M17.7192 21.1597L17.5941 21.1104C17.5177 21.0803 17.4801 20.9938 17.5103 20.9174C17.5254 20.879 17.5558 20.8487 17.5941 20.8335L17.7192 20.7842C17.8633 20.7274 17.9775 20.6132 18.0343 20.469L18.0836 20.344C18.1138 20.2676 18.2002 20.23 18.2767 20.2602C18.3151 20.2753 18.3454 20.3057 18.3606 20.344L18.4099 20.469C18.4667 20.6132 18.5809 20.7274 18.725 20.7842L18.8501 20.8335C18.9265 20.8637 18.9641 20.9501 18.9339 21.0266C18.9188 21.0649 18.8884 21.0953 18.8501 21.1104L18.725 21.1597C18.5809 21.2166 18.4667 21.3307 18.4099 21.4749L18.3606 21.5999C18.3304 21.6764 18.244 21.7139 18.1675 21.6838C18.1291 21.6687 18.0988 21.6383 18.0836 21.5999L18.0343 21.4749C17.9775 21.3307 17.8633 21.2166 17.7192 21.1597Z" fill="white"/>
</g>
<g filter="url(#filter7_d_29_4845)">
<path fill-rule="evenodd" clip-rule="evenodd" d="M32.9954 33.1703L32.8079 33.0963C32.6932 33.0511 32.6369 32.9214 32.6821 32.8067C32.7048 32.7492 32.7504 32.7036 32.8079 32.681L32.9954 32.607C33.2117 32.5217 33.3829 32.3505 33.4682 32.1342L33.5422 31.9467C33.5874 31.832 33.717 31.7757 33.8317 31.8209C33.8893 31.8436 33.9348 31.8892 33.9575 31.9467L34.0315 32.1342C34.1168 32.3505 34.288 32.5217 34.5042 32.607L34.6918 32.681C34.8065 32.7262 34.8628 32.8558 34.8175 32.9705C34.7949 33.0281 34.7493 33.0736 34.6918 33.0963L34.5042 33.1703C34.288 33.2556 34.1168 33.4268 34.0315 33.643L33.9575 33.8306C33.9123 33.9453 33.7826 34.0016 33.6679 33.9563C33.6104 33.9336 33.5649 33.8881 33.5422 33.8306L33.4682 33.643C33.3829 33.4268 33.2117 33.2556 32.9954 33.1703Z" fill="white"/>
</g>
<defs>
<filter id="filter0_d_29_4845" x="4.25095" y="23.8594" width="34.0311" height="37.921" filterUnits="userSpaceOnUse" color-interpolation-filters="sRGB">
<feFlood flood-opacity="0" result="BackgroundImageFix"/>
<feColorMatrix in="SourceAlpha" type="matrix" values="0 0 0 0 0 0 0 0 0 0 0 0 0 0 0 0 0 0 127 0" result="hardAlpha"/>
<feOffset dy="7.11111"/>
<feGaussianBlur stdDeviation="3.55556"/>
<feColorMatrix type="matrix" values="0 0 0 0 0.333333 0 0 0 0 0.615373 0 0 0 0 0.819608 0 0 0 0.2 0"/>
<feBlend mode="darken" in2="BackgroundImageFix" result="effect1_dropShadow_29_4845"/>
<feBlend mode="normal" in="SourceGraphic" in2="effect1_dropShadow_29_4845" result="shape"/>
</filter>
<filter id="filter1_d_29_4845" x="14.0516" y="23.8594" width="34.0309" height="37.921" filterUnits="userSpaceOnUse" color-interpolation-filters="sRGB">
<feFlood flood-opacity="0" result="BackgroundImageFix"/>
<feColorMatrix in="SourceAlpha" type="matrix" values="0 0 0 0 0 0 0 0 0 0 0 0 0 0 0 0 0 0 127 0" result="hardAlpha"/>
<feOffset dy="7.11111"/>
<feGaussianBlur stdDeviation="3.55556"/>
<feColorMatrix type="matrix" values="0 0 0 0 0.333333 0 0 0 0 0.615373 0 0 0 0 0.819608 0 0 0 0.2 0"/>
<feBlend mode="darken" in2="BackgroundImageFix" result="effect1_dropShadow_29_4845"/>
<feBlend mode="normal" in="SourceGraphic" in2="effect1_dropShadow_29_4845" result="shape"/>
</filter>
<filter id="filter2_d_29_4845" x="5.4924" y="8.46056" width="41.3482" height="42.2442" filterUnits="userSpaceOnUse" color-interpolation-filters="sRGB">
<feFlood flood-opacity="0" result="BackgroundImageFix"/>
<feColorMatrix in="SourceAlpha" type="matrix" values="0 0 0 0 0 0 0 0 0 0 0 0 0 0 0 0 0 0 127 0" result="hardAlpha"/>
<feOffset dy="3.55556"/>
<feGaussianBlur stdDeviation="3.55556"/>
<feColorMatrix type="matrix" values="0 0 0 0 0.927721 0 0 0 0 0.665867 0 0 0 0 0.0535899 0 0 0 0.4 0"/>
<feBlend mode="normal" in2="BackgroundImageFix" result="effect1_dropShadow_29_4845"/>
<feBlend mode="normal" in="SourceGraphic" in2="effect1_dropShadow_29_4845" result="shape"/>
</filter>
<filter id="filter3_d_29_4845" x="6.97898" y="10.139" width="38.3782" height="37.892" filterUnits="userSpaceOnUse" color-interpolation-filters="sRGB">
<feFlood flood-opacity="0" result="BackgroundImageFix"/>
<feColorMatrix in="SourceAlpha" type="matrix" values="0 0 0 0 0 0 0 0 0 0 0 0 0 0 0 0 0 0 127 0" result="hardAlpha"/>
<feOffset dy="3.55556"/>
<feGaussianBlur stdDeviation="3.55556"/>
<feColorMatrix type="matrix" values="0 0 0 0 0.996078 0 0 0 0 0.733333 0 0 0 0 0.105882 0 0 0 1 0"/>
<feBlend mode="normal" in2="BackgroundImageFix" result="effect1_dropShadow_29_4845"/>
<feBlend mode="normal" in="SourceGraphic" in2="effect1_dropShadow_29_4845" result="shape"/>
</filter>
<filter id="filter4_d_29_4845" x="25.5554" y="10.972" width="18.5555" height="18.5556" filterUnits="userSpaceOnUse" color-interpolation-filters="sRGB">
<feFlood flood-opacity="0" result="BackgroundImageFix"/>
<feColorMatrix in="SourceAlpha" type="matrix" values="0 0 0 0 0 0 0 0 0 0 0 0 0 0 0 0 0 0 127 0" result="hardAlpha"/>
<feOffset/>
<feGaussianBlur stdDeviation="3.55556"/>
<feColorMatrix type="matrix" values="0 0 0 0 1 0 0 0 0 0.94902 0 0 0 0 0.305882 0 0 0 1 0"/>
<feBlend mode="normal" in2="BackgroundImageFix" result="effect1_dropShadow_29_4845"/>
<feBlend mode="normal" in="SourceGraphic" in2="effect1_dropShadow_29_4845" result="shape"/>
</filter>
<filter id="filter5_d_29_4845" x="11.1109" y="23.2499" width="17.1111" height="17.1111" filterUnits="userSpaceOnUse" color-interpolation-filters="sRGB">
<feFlood flood-opacity="0" result="BackgroundImageFix"/>
<feColorMatrix in="SourceAlpha" type="matrix" values="0 0 0 0 0 0 0 0 0 0 0 0 0 0 0 0 0 0 127 0" result="hardAlpha"/>
<feOffset/>
<feGaussianBlur stdDeviation="3.55556"/>
<feColorMatrix type="matrix" values="0 0 0 0 1 0 0 0 0 0.94902 0 0 0 0 0.305882 0 0 0 1 0"/>
<feBlend mode="normal" in2="BackgroundImageFix" result="effect1_dropShadow_29_4845"/>
<feBlend mode="normal" in="SourceGraphic" in2="effect1_dropShadow_29_4845" result="shape"/>
</filter>
<filter id="filter6_d_29_4845" x="10.3888" y="13.1386" width="15.6667" height="15.6667" filterUnits="userSpaceOnUse" color-interpolation-filters="sRGB">
<feFlood flood-opacity="0" result="BackgroundImageFix"/>
<feColorMatrix in="SourceAlpha" type="matrix" values="0 0 0 0 0 0 0 0 0 0 0 0 0 0 0 0 0 0 127 0" result="hardAlpha"/>
<feOffset/>
<feGaussianBlur stdDeviation="3.55556"/>
<feColorMatrix type="matrix" values="0 0 0 0 1 0 0 0 0 0.94902 0 0 0 0 0.305882 0 0 0 1 0"/>
<feBlend mode="normal" in2="BackgroundImageFix" result="effect1_dropShadow_29_4845"/>
<feBlend mode="normal" in="SourceGraphic" in2="effect1_dropShadow_29_4845" result="shape"/>
</filter>
<filter id="filter7_d_29_4845" x="25.5554" y="24.6942" width="16.389" height="16.3888" filterUnits="userSpaceOnUse" color-interpolation-filters="sRGB">
<feFlood flood-opacity="0" result="BackgroundImageFix"/>
<feColorMatrix in="SourceAlpha" type="matrix" values="0 0 0 0 0 0 0 0 0 0 0 0 0 0 0 0 0 0 127 0" result="hardAlpha"/>
<feOffset/>
<feGaussianBlur stdDeviation="3.55556"/>
<feColorMatrix type="matrix" values="0 0 0 0 1 0 0 0 0 0.94902 0 0 0 0 0.305882 0 0 0 1 0"/>
<feBlend mode="normal" in2="BackgroundImageFix" result="effect1_dropShadow_29_4845"/>
<feBlend mode="normal" in="SourceGraphic" in2="effect1_dropShadow_29_4845" result="shape"/>
</filter>
<linearGradient id="paint0_linear_29_4845" x1="3.77783" y1="4.36072" x2="3.77783" y2="47.694" gradientUnits="userSpaceOnUse">
<stop stop-color="#90B3FF"/>
<stop offset="1" stop-color="#0066FF"/>
</linearGradient>
<linearGradient id="paint1_linear_29_4845" x1="9.55566" y1="9.41577" x2="9.55566" y2="42.638" gradientUnits="userSpaceOnUse">
<stop stop-color="#FDE046"/>
<stop offset="1" stop-color="#F9B800"/>
</linearGradient>
<linearGradient id="paint2_linear_29_4845" x1="14.611" y1="14.4716" x2="14.611" y2="37.5827" gradientUnits="userSpaceOnUse">
<stop stop-color="#FFF550"/>
<stop offset="1" stop-color="#FFD541"/>
</linearGradient>
</defs>
</svg>
