<svg width="58" height="63" viewBox="0 0 58 63" fill="none" xmlns="http://www.w3.org/2000/svg">
<path fill-rule="evenodd" clip-rule="evenodd" d="M41.111 44.8052C41.9087 44.8052 42.5554 45.4519 42.5554 46.2496C42.5554 47.0474 41.9087 47.694 41.111 47.694H28.111C28.0261 47.694 27.9429 47.6867 27.862 47.6727C23.2219 47.468 18.961 45.8039 15.5271 43.1281C15.2478 42.9105 14.8269 42.5497 14.515 42.2783C14.2482 42.0462 13.9073 41.9163 13.5536 41.9163H10.0554C9.2577 41.9163 8.611 41.2696 8.611 40.4718C8.611 39.6741 9.2577 39.0274 10.0554 39.0274H11.4999C12.2976 39.0274 12.9443 38.3807 12.9443 37.5829C12.9443 36.7852 12.2976 36.1385 11.4999 36.1385H7.88878C7.09104 36.1385 6.44434 35.4918 6.44434 34.694C6.44434 33.8963 7.09104 33.2496 7.88878 33.2496H8.611C9.40875 33.2496 10.0554 32.6029 10.0554 31.8052C10.0554 31.0074 9.40875 30.3607 8.611 30.3607C8.02694 30.3607 7.52739 29.9397 7.43021 29.3638C7.3949 29.1545 7.36686 28.9861 7.36223 28.9518C7.23319 27.9954 7.16656 27.0192 7.16656 26.0274C7.16656 14.0612 16.8671 4.36072 28.8332 4.36072C32.4443 4.36072 36.0554 4.36072 39.6666 4.36072C40.4643 4.36072 41.111 5.00742 41.111 5.80516C41.111 6.60291 40.4643 7.24961 39.6666 7.24961H37.4999C36.7021 7.24961 36.0554 7.89631 36.0554 8.69405C36.0554 9.4918 36.7021 10.1385 37.4999 10.1385H46.1666C46.9643 10.1385 47.611 10.7852 47.611 11.5829C47.611 12.3802 46.9652 13.0265 46.1681 13.0274H43.9999C43.2021 13.0274 42.5554 13.6741 42.5554 14.4718C42.5554 15.2696 43.2021 15.9163 43.9999 15.9163H47.1098C47.656 15.9163 48.1567 16.2238 48.3936 16.7161C48.5359 17.012 48.6857 17.3311 48.7836 17.5617C49.8886 20.1624 50.4999 23.0235 50.4999 26.0274C50.4999 26.9712 50.4395 27.9009 50.3225 28.8129C50.3028 28.9663 50.2726 29.1631 50.2397 29.3646C50.1455 29.9428 49.6412 30.3607 49.0554 30.3607C48.2577 30.3607 47.611 31.0074 47.611 31.8052C47.611 32.6029 48.2577 33.2496 49.0554 33.2496H49.7777C50.5754 33.2496 51.2221 33.8963 51.2221 34.694C51.2221 35.4918 50.5754 36.1385 49.7777 36.1385H48.8505C48.3261 36.1385 47.8439 36.4232 47.5819 36.8775C47.4117 37.1725 47.2226 37.4935 47.082 37.7125C46.7525 38.226 46.402 38.7246 46.0316 39.2072C45.6596 39.6919 45.2676 40.1604 44.8568 40.6115C44.6313 40.8591 44.266 41.2259 43.9811 41.5075C43.7146 41.7711 43.3543 41.9163 42.9795 41.9163H38.9443C38.1466 41.9163 37.4999 42.563 37.4999 43.3607C37.4999 44.1529 38.1376 44.7961 38.9277 44.8051L41.111 44.8052Z" fill="url(#paint0_linear_29_4896)"/>
<g opacity="0.1">
<circle cx="28.8332" cy="26.0273" r="15.8889" fill="#F3A02A" style="mix-blend-mode:multiply"/>
</g>
<g filter="url(#filter0_d_29_4896)">
<path fill-rule="evenodd" clip-rule="evenodd" d="M23.0554 26.0273H34.611V44.6679C34.611 47.3495 31.7555 49.0659 29.3873 47.8078L28.8332 47.5135L28.2791 47.8078C25.9109 49.0659 23.0554 47.3495 23.0554 44.6679V26.0273Z" fill="#F56123"/>
</g>
<circle style="mix-blend-mode:multiply" opacity="0.2" cx="28.8334" cy="27.4718" r="14.4444" fill="#F0BA6E"/>
<g filter="url(#filter1_d_29_4896)">
<circle cx="28.8334" cy="26.0276" r="14.4444" fill="url(#paint1_linear_29_4896)"/>
</g>
<mask id="mask0_29_4896" style="mask-type:luminance" maskUnits="userSpaceOnUse" x="14" y="11" width="30" height="30">
<circle cx="28.8334" cy="26.0276" r="14.4444" fill="white"/>
</mask>
<g mask="url(#mask0_29_4896)">
<path d="M14.75 26.0265C14.75 33.8045 21.0553 40.1099 28.8333 40.1099C36.6113 40.1099 42.9167 33.8045 42.9167 26.0265" stroke="#DA913B" stroke-width="3.55556"/>
<path d="M38.7917 35.9873C41.3403 33.4387 42.9167 29.9179 42.9167 26.0289C42.9167 23.9097 42.4486 21.8998 41.6102 20.097" stroke="#E1A04B" stroke-width="3.55556" stroke-linecap="round"/>
<path d="M39.952 17.3827C37.3751 14.0731 33.3528 11.9442 28.8333 11.9442C21.0553 11.9442 14.75 18.2495 14.75 26.0275C14.75 29.9166 16.3263 33.4374 18.8749 35.986" stroke="#E1A04B" stroke-width="3.55556" stroke-linecap="round"/>
<path opacity="0.6" d="M39.9553 17.3874C37.3785 14.0751 33.3546 11.9442 28.8329 11.9442C24.2856 11.9442 20.2416 14.0994 17.6667 17.4441" stroke="#FFC875" stroke-width="3.55556" stroke-linecap="round"/>
<path opacity="0.8" d="M28.8329 11.9442C26.1909 11.9442 23.7187 12.6717 21.606 13.9374" stroke="#FFECD0" stroke-width="3.55556" stroke-linecap="round"/>
<g style="mix-blend-mode:multiply" opacity="0.2">
<rect x="31.606" y="31.3836" width="4.33333" height="22.3889" rx="2.16667" transform="rotate(45 31.606 31.3836)" stroke="#EBB570" stroke-width="4.33333"/>
</g>
<g style="mix-blend-mode:multiply" opacity="0.2">
<mask id="path-13-inside-1_29_4896" fill="white">
<path fill-rule="evenodd" clip-rule="evenodd" d="M29.7994 33.2473C30.5957 32.4511 31.8867 32.4511 32.683 33.2473C33.4793 34.0436 33.4793 35.3346 32.683 36.1309L18.7139 50.1C17.9176 50.8963 16.6266 50.8963 15.8303 50.1C15.034 49.3038 15.034 48.0127 15.8303 47.2165L29.7994 33.2473Z"/>
</mask>
<path d="M27.6547 31.1026L13.6855 45.0717L23.7422 55.1284L37.7113 41.1592L27.6547 31.1026ZM20.8586 52.2448L34.8277 38.2756L24.7711 28.219L10.802 42.1882L20.8586 52.2448ZM20.8586 45.0717C22.8394 47.0525 22.8394 50.264 20.8586 52.2448L10.802 42.1882C7.22863 45.7615 7.22864 51.555 10.802 55.1284L20.8586 45.0717ZM13.6855 45.0717C15.6663 43.0909 18.8778 43.0909 20.8586 45.0717L10.802 55.1284C14.3753 58.7017 20.1688 58.7017 23.7422 55.1284L13.6855 45.0717ZM27.6547 38.2756C25.6739 36.2949 25.6739 33.0834 27.6547 31.1026L37.7113 41.1592C41.2847 37.5859 41.2846 31.7924 37.7113 28.219L27.6547 38.2756ZM37.7113 28.219C34.138 24.6457 28.3444 24.6457 24.7711 28.219L34.8277 38.2756C32.847 40.2564 29.6355 40.2564 27.6547 38.2756L37.7113 28.219Z" fill="#EBB570" mask="url(#path-13-inside-1_29_4896)"/>
</g>
<g style="mix-blend-mode:multiply" opacity="0.2">
<path d="M4.8679 22.5233C7.20083 20.1904 10.9833 20.1904 13.3162 22.5233C15.6491 24.8563 15.6491 28.6387 13.3162 30.9716L9.94007 34.3477C7.60714 36.6807 3.82471 36.6807 1.49178 34.3477C-0.841144 32.0148 -0.841144 28.2324 1.49178 25.8994L4.8679 22.5233Z" stroke="#EBB570" stroke-width="7.11111"/>
</g>
<g style="mix-blend-mode:multiply" opacity="0.2">
<rect x="41.717" y="8.2725" width="4.33333" height="22.3889" rx="2.16667" transform="rotate(45 41.717 8.2725)" stroke="#EBB570" stroke-width="4.33333"/>
</g>
<g style="mix-blend-mode:multiply" opacity="0.2">
<mask id="path-17-inside-2_29_4896" fill="white">
<path fill-rule="evenodd" clip-rule="evenodd" d="M41.8966 8.27516C42.6929 7.47888 43.9839 7.47888 44.7802 8.27516C45.5764 9.07144 45.5764 10.3625 44.7802 11.1587L28.7683 27.1706C27.972 27.9669 26.681 27.9669 25.8847 27.1706C25.0884 26.3744 25.0884 25.0833 25.8847 24.2871L41.8966 8.27516Z"/>
</mask>
<path d="M39.7519 6.13042L23.74 22.1423L33.7966 32.1989L49.8085 16.187L39.7519 6.13042ZM30.913 29.3154L46.9249 13.3035L36.8683 3.24685L20.8564 19.2587L30.913 29.3154ZM30.913 22.1423C32.8938 24.1231 32.8938 27.3346 30.913 29.3154L20.8564 19.2587C17.283 22.8321 17.283 28.6256 20.8564 32.1989L30.913 22.1423ZM23.74 22.1423C25.7207 20.1615 28.9322 20.1615 30.913 22.1423L20.8564 32.1989C24.4297 35.7723 30.2232 35.7723 33.7966 32.1989L23.74 22.1423ZM39.7519 13.3035C37.7711 11.3227 37.7711 8.11121 39.7519 6.13042L49.8085 16.187C53.3818 12.6137 53.3818 6.82018 49.8085 3.24685L39.7519 13.3035ZM49.8085 3.24685C46.2351 -0.32649 40.4416 -0.326496 36.8683 3.24685L46.9249 13.3035C44.9441 15.2843 41.7326 15.2843 39.7519 13.3035L49.8085 3.24685Z" fill="#EBB570" mask="url(#path-17-inside-2_29_4896)"/>
</g>
</g>
<g filter="url(#filter2_d_29_4896)">
<circle cx="28.8333" cy="26.028" r="10.8333" fill="url(#paint2_linear_29_4896)"/>
<circle cx="28.8333" cy="26.028" r="12.6111" stroke="#D78834" stroke-opacity="0.06" stroke-width="3.55556"/>
</g>
<mask id="mask1_29_4896" style="mask-type:luminance" maskUnits="userSpaceOnUse" x="18" y="15" width="22" height="22">
<circle cx="28.8333" cy="26.028" r="10.8333" fill="white"/>
</mask>
<g mask="url(#mask1_29_4896)">
<g style="mix-blend-mode:multiply" opacity="0.2">
<path d="M6.31248 22.5236C8.64541 20.1906 12.4278 20.1906 14.7608 22.5236C17.0937 24.8565 17.0937 28.6389 14.7608 30.9719L11.3846 34.348C9.05172 36.6809 5.26929 36.6809 2.93636 34.348C0.603436 32.015 0.603436 28.2326 2.93636 25.8997L6.31248 22.5236Z" stroke="#EBB570" stroke-width="7.11111"/>
</g>
<g style="mix-blend-mode:multiply" opacity="0.2">
<rect x="43.3943" y="3.09221" width="4.33333" height="22.3889" rx="2.16667" transform="rotate(45 43.3943 3.09221)" stroke="#EBB570" stroke-width="4.33333"/>
</g>
<g style="mix-blend-mode:multiply" opacity="0.2">
<rect x="32.3281" y="29.9394" width="4.33333" height="22.3889" rx="2.16667" transform="rotate(45 32.3281 29.9394)" stroke="#EBB570" stroke-width="4.33333"/>
</g>
<g style="mix-blend-mode:multiply" opacity="0.2">
<mask id="path-25-inside-3_29_4896" fill="white">
<path fill-rule="evenodd" clip-rule="evenodd" d="M43.5218 2.91432C44.3181 2.11805 45.6091 2.11804 46.4054 2.91432C47.2017 3.7106 47.2017 5.00162 46.4054 5.79789L32.4363 19.767C31.64 20.5633 30.349 20.5633 29.5527 19.767C28.7564 18.9708 28.7564 17.6797 29.5527 16.8835L43.5218 2.91432Z"/>
</mask>
<path d="M41.3771 0.76958L27.408 14.7387L37.4646 24.7953L51.4337 10.8262L41.3771 0.76958ZM34.581 21.9118L48.5502 7.94264L38.4935 -2.11399L24.5244 11.8551L34.581 21.9118ZM34.581 14.7387C36.5618 16.7195 36.5618 19.931 34.581 21.9118L24.5244 11.8551C20.951 15.4285 20.951 21.222 24.5244 24.7953L34.581 14.7387ZM27.408 14.7387C29.3887 12.7579 32.6002 12.7579 34.581 14.7387L24.5244 24.7953C28.0977 28.3687 33.8913 28.3687 37.4646 24.7953L27.408 14.7387ZM41.3771 7.94264C39.3963 5.96185 39.3963 2.75037 41.3771 0.76958L51.4337 10.8262C55.0071 7.25287 55.0071 1.45934 51.4337 -2.11399L41.3771 7.94264ZM51.4337 -2.11399C47.8604 -5.68734 42.0669 -5.68733 38.4935 -2.11399L48.5502 7.94264C46.5694 9.92342 43.3579 9.92342 41.3771 7.94264L51.4337 -2.11399Z" fill="#EBB570" mask="url(#path-25-inside-3_29_4896)"/>
</g>
<g style="mix-blend-mode:multiply" opacity="0.2">
<mask id="path-27-inside-4_29_4896" fill="white">
<path fill-rule="evenodd" clip-rule="evenodd" d="M30.2875 31.9282C31.0837 31.132 32.3748 31.132 33.171 31.9282C33.9673 32.7245 33.9673 34.0155 33.171 34.8118L19.2019 48.7809C18.4056 49.5772 17.1146 49.5772 16.3183 48.7809C15.522 47.9847 15.522 46.6937 16.3183 45.8974L30.2875 31.9282Z"/>
</mask>
<path d="M28.1427 29.7835L14.1736 43.7526L24.2302 53.8093L38.1994 39.8401L28.1427 29.7835ZM21.3466 50.9257L35.3158 36.9566L25.2591 26.8999L11.29 40.8691L21.3466 50.9257ZM21.3466 43.7526C23.3274 45.7334 23.3274 48.9449 21.3466 50.9257L11.29 40.8691C7.71667 44.4424 7.71667 50.2359 11.29 53.8093L21.3466 43.7526ZM14.1736 43.7526C16.1544 41.7719 19.3659 41.7718 21.3466 43.7526L11.29 53.8093C14.8634 57.3826 20.6569 57.3826 24.2302 53.8093L14.1736 43.7526ZM28.1427 36.9566C26.1619 34.9758 26.1619 31.7643 28.1427 29.7835L38.1994 39.8401C41.7727 36.2668 41.7727 30.4733 38.1993 26.8999L28.1427 36.9566ZM38.1993 26.8999C34.626 23.3266 28.8325 23.3266 25.2591 26.8999L35.3158 36.9566C33.335 38.9373 30.1235 38.9373 28.1427 36.9566L38.1993 26.8999Z" fill="#EBB570" mask="url(#path-27-inside-4_29_4896)"/>
</g>
<path opacity="0.8" d="M28.8332 15.5558C27.4133 15.5558 26.0594 15.8384 24.8247 16.3504" stroke="#FFECD0" stroke-width="3.55556" stroke-linecap="round"/>
</g>
<g filter="url(#filter3_d_29_4896)">
<mask id="path-30-outside-5_29_4896" maskUnits="userSpaceOnUse" x="19.0554" y="14.8047" width="20" height="20" fill="black">
<rect fill="white" x="19.0554" y="14.8047" width="20" height="20"/>
<path fill-rule="evenodd" clip-rule="evenodd" d="M32.0832 18.8047C32.0832 18.8047 31.361 18.8047 30.2776 19.5269C29.5876 19.9869 29.1906 20.5935 28.9932 20.9733C28.9401 20.972 28.8867 20.9714 28.8332 20.9714C25.6422 20.9714 23.0554 23.2348 23.0554 26.0269C23.0554 28.819 25.6422 31.0825 28.8332 31.0825C32.0242 31.0825 34.611 28.819 34.611 26.0269C34.611 24.3181 33.6421 22.8073 32.1588 21.8922C32.1453 21.8342 32.1205 21.7682 32.0832 21.6936C31.361 20.2491 32.0832 18.8047 32.0832 18.8047Z"/>
</mask>
<path fill-rule="evenodd" clip-rule="evenodd" d="M32.0832 18.8047C32.0832 18.8047 31.361 18.8047 30.2776 19.5269C29.5876 19.9869 29.1906 20.5935 28.9932 20.9733C28.9401 20.972 28.8867 20.9714 28.8332 20.9714C25.6422 20.9714 23.0554 23.2348 23.0554 26.0269C23.0554 28.819 25.6422 31.0825 28.8332 31.0825C32.0242 31.0825 34.611 28.819 34.611 26.0269C34.611 24.3181 33.6421 22.8073 32.1588 21.8922C32.1453 21.8342 32.1205 21.7682 32.0832 21.6936C31.361 20.2491 32.0832 18.8047 32.0832 18.8047Z" fill="white"/>
<path d="M30.2776 19.5269L32.2499 22.4853L30.2776 19.5269ZM32.0832 18.8047L35.2634 20.3948C35.8145 19.2926 35.7556 17.9837 35.1077 16.9354C34.4599 15.8872 33.3155 15.2491 32.0832 15.2491V18.8047ZM28.9932 20.9733L28.9087 24.5278C30.2656 24.5601 31.5225 23.817 32.1483 22.6126L28.9932 20.9733ZM32.1588 21.8922L28.695 22.695C28.9093 23.6195 29.4842 24.42 30.2919 24.9183L32.1588 21.8922ZM32.0832 21.6936L35.2634 20.1035L35.2634 20.1035L32.0832 21.6936ZM32.2499 22.4853C32.4826 22.3302 32.5977 22.3039 32.5635 22.3137C32.5489 22.3179 32.5033 22.3297 32.4233 22.3403C32.3835 22.3456 32.3356 22.3506 32.279 22.3543C32.2507 22.3561 32.2203 22.3576 32.1876 22.3586C32.1713 22.3591 32.1545 22.3596 32.1371 22.3598C32.1284 22.36 32.1195 22.3601 32.1106 22.3601C32.1061 22.3602 32.1015 22.3602 32.097 22.3602C32.0947 22.3602 32.0924 22.3602 32.0901 22.3602C32.089 22.3602 32.0872 22.3602 32.0867 22.3602C32.0849 22.3602 32.0832 22.3602 32.0832 18.8047C32.0832 15.2491 32.0815 15.2491 32.0797 15.2491C32.0791 15.2491 32.0774 15.2491 32.0762 15.2491C32.0739 15.2491 32.0715 15.2492 32.0691 15.2492C32.0644 15.2492 32.0596 15.2492 32.0548 15.2492C32.0451 15.2493 32.0352 15.2494 32.0251 15.2496C32.0049 15.2499 31.9839 15.2504 31.962 15.2511C31.9183 15.2525 31.8713 15.2547 31.8211 15.2579C31.7208 15.2644 31.6079 15.275 31.4835 15.2916C31.2343 15.3248 30.9404 15.3818 30.6099 15.4762C29.9437 15.6665 29.156 16.0014 28.3054 16.5685L32.2499 22.4853ZM32.1483 22.6126C32.1566 22.5967 32.1753 22.5649 32.2014 22.5331C32.2261 22.5029 32.2436 22.4895 32.2499 22.4853L28.3054 16.5685C26.9497 17.4723 26.2024 18.6329 25.8382 19.3339L32.1483 22.6126ZM28.8332 24.5269C28.8585 24.5269 28.8836 24.5272 28.9087 24.5278L29.0778 17.4187C28.9965 17.4168 28.915 17.4158 28.8332 17.4158V24.5269ZM26.611 26.0269C26.611 25.7792 26.7174 25.4531 27.089 25.1279C27.4677 24.7966 28.0737 24.5269 28.8332 24.5269V17.4158C24.1394 17.4158 19.4999 20.84 19.4999 26.0269H26.611ZM28.8332 27.5269C28.0737 27.5269 27.4677 27.2572 27.089 26.9259C26.7174 26.6007 26.611 26.2746 26.611 26.0269H19.4999C19.4999 31.2138 24.1394 34.638 28.8332 34.638V27.5269ZM31.0554 26.0269C31.0554 26.2746 30.949 26.6007 30.5774 26.9259C30.1987 27.2572 29.5927 27.5269 28.8332 27.5269V34.638C33.527 34.638 38.1665 31.2138 38.1665 26.0269H31.0554ZM30.2919 24.9183C30.8963 25.2911 31.0554 25.7395 31.0554 26.0269H38.1665C38.1665 22.8967 36.3878 20.3235 34.0256 18.8662L30.2919 24.9183ZM28.903 23.2837C28.8535 23.1847 28.7616 22.9822 28.695 22.695L35.6225 21.0895C35.5291 20.6863 35.3876 20.3518 35.2634 20.1035L28.903 23.2837ZM32.0832 18.8047C28.903 17.2146 28.9024 17.2158 28.9018 17.2171C28.9015 17.2175 28.9009 17.2188 28.9005 17.2196C28.8996 17.2214 28.8988 17.2231 28.8979 17.2249C28.8961 17.2284 28.8943 17.232 28.8925 17.2358C28.8888 17.2433 28.8849 17.2512 28.8809 17.2596C28.8728 17.2763 28.864 17.2947 28.8546 17.3148C28.8358 17.355 28.8144 17.4022 28.7912 17.4559C28.7448 17.5629 28.6901 17.6977 28.6332 17.8571C28.5208 18.1718 28.3916 18.6043 28.3052 19.1229C28.1351 20.1435 28.1038 21.6852 28.903 23.2837L35.2634 20.1035C35.3404 20.2575 35.3091 20.3547 35.3195 20.292C35.3212 20.2823 35.3235 20.2719 35.3261 20.2622C35.3286 20.2527 35.3305 20.2476 35.33 20.2488C35.3296 20.2502 35.3257 20.2609 35.316 20.2833C35.3111 20.2946 35.3045 20.3093 35.2959 20.3277C35.2916 20.3369 35.2868 20.347 35.2814 20.3582C35.2787 20.3638 35.2758 20.3696 35.2728 20.3757C35.2713 20.3788 35.2698 20.3819 35.2682 20.385C35.2674 20.3866 35.2666 20.3882 35.2658 20.3899C35.2654 20.3907 35.2648 20.3919 35.2646 20.3923C35.264 20.3935 35.2634 20.3948 32.0832 18.8047Z" fill="white" mask="url(#path-30-outside-5_29_4896)"/>
</g>
<g filter="url(#filter4_i_29_4896)">
<path fill-rule="evenodd" clip-rule="evenodd" d="M32.0832 18.8047C32.0832 18.8047 31.361 18.8047 30.2776 19.5269C29.5876 19.9869 29.1906 20.5935 28.9932 20.9733C28.9401 20.972 28.8867 20.9714 28.8332 20.9714C25.6422 20.9714 23.0554 23.2348 23.0554 26.0269C23.0554 28.819 25.6422 31.0825 28.8332 31.0825C32.0242 31.0825 34.611 28.819 34.611 26.0269C34.611 24.3968 33.7293 22.947 32.3604 22.0225C32.2401 21.9076 32.1306 21.7885 32.0832 21.6936C31.361 20.2491 32.0832 18.8047 32.0832 18.8047Z" fill="url(#paint3_linear_29_4896)"/>
</g>
<path d="M30.2776 19.5269L28.3054 16.5685L28.3054 16.5685L30.2776 19.5269ZM32.0832 18.8047L35.2634 20.3948C35.8145 19.2926 35.7556 17.9837 35.1077 16.9354C34.4599 15.8872 33.3155 15.2491 32.0832 15.2491V18.8047ZM28.9932 20.9733L28.9087 24.5278C30.2656 24.5601 31.5225 23.817 32.1483 22.6126L28.9932 20.9733ZM32.3604 22.0225L29.9059 24.5949C30.05 24.7324 30.2054 24.8575 30.3704 24.969L32.3604 22.0225ZM32.0832 21.6936L35.2634 20.1035L35.2634 20.1035L32.0832 21.6936ZM32.2499 22.4853C32.4826 22.3302 32.5977 22.3039 32.5635 22.3137C32.5489 22.3179 32.5033 22.3297 32.4233 22.3403C32.3835 22.3456 32.3356 22.3506 32.279 22.3543C32.2507 22.3561 32.2203 22.3576 32.1876 22.3586C32.1713 22.3591 32.1545 22.3596 32.1371 22.3598C32.1284 22.36 32.1195 22.3601 32.1106 22.3601C32.1061 22.3602 32.1015 22.3602 32.097 22.3602C32.0947 22.3602 32.0924 22.3602 32.0901 22.3602C32.089 22.3602 32.0872 22.3602 32.0867 22.3602C32.0849 22.3602 32.0832 22.3602 32.0832 18.8047C32.0832 15.2491 32.0815 15.2491 32.0797 15.2491C32.0791 15.2491 32.0774 15.2491 32.0762 15.2491C32.0739 15.2491 32.0715 15.2492 32.0691 15.2492C32.0644 15.2492 32.0596 15.2492 32.0548 15.2492C32.0451 15.2493 32.0352 15.2494 32.0251 15.2496C32.0049 15.2499 31.9839 15.2504 31.962 15.2511C31.9183 15.2525 31.8713 15.2547 31.8211 15.2579C31.7208 15.2644 31.6079 15.275 31.4835 15.2916C31.2343 15.3248 30.9404 15.3818 30.6099 15.4762C29.9437 15.6665 29.156 16.0014 28.3054 16.5685L32.2499 22.4853ZM32.1483 22.6126C32.1566 22.5967 32.1753 22.5649 32.2014 22.5331C32.2261 22.5029 32.2436 22.4895 32.2499 22.4853L28.3054 16.5685C26.9497 17.4723 26.2024 18.6329 25.8382 19.3339L32.1483 22.6126ZM28.8332 24.5269C28.8585 24.5269 28.8836 24.5272 28.9087 24.5278L29.0778 17.4187C28.9965 17.4168 28.915 17.4158 28.8332 17.4158V24.5269ZM26.611 26.0269C26.611 25.7792 26.7174 25.4531 27.089 25.1279C27.4677 24.7966 28.0737 24.5269 28.8332 24.5269V17.4158C24.1394 17.4158 19.4999 20.84 19.4999 26.0269H26.611ZM28.8332 27.5269C28.0737 27.5269 27.4677 27.2572 27.089 26.9259C26.7174 26.6007 26.611 26.2746 26.611 26.0269H19.4999C19.4999 31.2138 24.1394 34.638 28.8332 34.638V27.5269ZM31.0554 26.0269C31.0554 26.2746 30.949 26.6007 30.5774 26.9259C30.1987 27.2572 29.5927 27.5269 28.8332 27.5269V34.638C33.527 34.638 38.1665 31.2138 38.1665 26.0269H31.0554ZM30.3704 24.969C30.9112 25.3342 31.0554 25.7491 31.0554 26.0269H38.1665C38.1665 23.0445 36.5474 20.5597 34.3505 19.076L30.3704 24.969ZM28.903 23.2836C29.2614 24.0004 29.8098 24.5031 29.9059 24.5949L34.8149 19.45C34.8019 19.4376 34.8329 19.4657 34.8861 19.5274C34.9144 19.5601 34.9633 19.6189 35.0218 19.7007C35.077 19.778 35.1692 19.915 35.2634 20.1035L28.903 23.2836ZM32.0832 18.8047C28.903 17.2146 28.9024 17.2158 28.9018 17.2171C28.9015 17.2175 28.9009 17.2188 28.9005 17.2196C28.8996 17.2214 28.8988 17.2231 28.8979 17.2249C28.8961 17.2284 28.8944 17.232 28.8925 17.2358C28.8888 17.2433 28.8849 17.2512 28.8809 17.2595C28.8728 17.2763 28.864 17.2947 28.8546 17.3148C28.8358 17.355 28.8144 17.4022 28.7912 17.4559C28.7448 17.5629 28.6901 17.6977 28.6332 17.8571C28.5208 18.1718 28.3916 18.6043 28.3052 19.1229C28.1351 20.1435 28.1038 21.6852 28.903 23.2837L35.2634 20.1035C35.3404 20.2575 35.3091 20.3547 35.3195 20.292C35.3212 20.2823 35.3235 20.2719 35.3261 20.2622C35.3286 20.2527 35.3305 20.2476 35.33 20.2488C35.3296 20.2502 35.3257 20.2609 35.316 20.2833C35.3111 20.2946 35.3045 20.3093 35.2959 20.3277C35.2916 20.3369 35.2868 20.347 35.2814 20.3582C35.2787 20.3638 35.2758 20.3696 35.2728 20.3757C35.2713 20.3788 35.2698 20.3819 35.2682 20.385C35.2674 20.3866 35.2666 20.3882 35.2658 20.3899C35.2654 20.3907 35.2648 20.3919 35.2646 20.3923C35.264 20.3935 35.2634 20.3948 32.0832 18.8047Z" fill="#FFECD0"/>
<circle cx="26.8471" cy="25.4848" r="0.902778" fill="#FFECD0"/>
<ellipse cx="30.8193" cy="25.4848" rx="0.902777" ry="0.902778" fill="#FFECD0"/>
<path d="M28.9524 31.707C25.0324 31.707 22.9124 30.167 22.9124 27.467V27.247H25.1124V27.467C25.1124 29.047 26.3124 29.747 28.9924 29.747C31.3924 29.747 32.4924 29.027 32.4924 27.147C32.4924 25.307 31.4324 24.607 28.9924 24.607C27.0724 24.607 25.9524 24.927 25.1924 25.607L25.0524 25.567V25.607L23.0524 25.467L23.7724 18.107H34.1124V20.047H25.6524L25.1724 24.427L25.3324 24.447C26.0124 23.707 27.5724 22.887 29.7924 22.887C32.9124 22.887 34.7524 24.387 34.7524 27.147C34.7524 29.927 32.7324 31.707 28.9524 31.707Z" fill="black"/>
<defs>
<filter id="filter0_d_29_4896" x="15.9443" y="26.0273" width="25.7779" height="36.4232" filterUnits="userSpaceOnUse" color-interpolation-filters="sRGB">
<feFlood flood-opacity="0" result="BackgroundImageFix"/>
<feColorMatrix in="SourceAlpha" type="matrix" values="0 0 0 0 0 0 0 0 0 0 0 0 0 0 0 0 0 0 127 0" result="hardAlpha"/>
<feOffset dy="7.11111"/>
<feGaussianBlur stdDeviation="3.55556"/>
<feColorMatrix type="matrix" values="0 0 0 0 0.937255 0 0 0 0 0.67451 0 0 0 0 0.235294 0 0 0 0.2 0"/>
<feBlend mode="darken" in2="BackgroundImageFix" result="effect1_dropShadow_29_4896"/>
<feBlend mode="normal" in="SourceGraphic" in2="effect1_dropShadow_29_4896" result="shape"/>
</filter>
<filter id="filter1_d_29_4896" x="0.166694" y="4.47202" width="57.3334" height="57.3334" filterUnits="userSpaceOnUse" color-interpolation-filters="sRGB">
<feFlood flood-opacity="0" result="BackgroundImageFix"/>
<feColorMatrix in="SourceAlpha" type="matrix" values="0 0 0 0 0 0 0 0 0 0 0 0 0 0 0 0 0 0 127 0" result="hardAlpha"/>
<feOffset dy="7.11111"/>
<feGaussianBlur stdDeviation="7.11111"/>
<feColorMatrix type="matrix" values="0 0 0 0 0.752941 0 0 0 0 0.266667 0 0 0 0 0.266667 0 0 0 0.2 0"/>
<feBlend mode="normal" in2="BackgroundImageFix" result="effect1_dropShadow_29_4896"/>
<feBlend mode="normal" in="SourceGraphic" in2="effect1_dropShadow_29_4896" result="shape"/>
</filter>
<filter id="filter2_d_29_4896" x="7.33322" y="8.0836" width="43.0001" height="42.9999" filterUnits="userSpaceOnUse" color-interpolation-filters="sRGB">
<feFlood flood-opacity="0" result="BackgroundImageFix"/>
<feColorMatrix in="SourceAlpha" type="matrix" values="0 0 0 0 0 0 0 0 0 0 0 0 0 0 0 0 0 0 127 0" result="hardAlpha"/>
<feOffset dy="3.55556"/>
<feGaussianBlur stdDeviation="3.55556"/>
<feColorMatrix type="matrix" values="0 0 0 0 0.643137 0 0 0 0 0.301509 0 0 0 0 0.0196078 0 0 0 0.2 0"/>
<feBlend mode="normal" in2="BackgroundImageFix" result="effect1_dropShadow_29_4896"/>
<feBlend mode="normal" in="SourceGraphic" in2="effect1_dropShadow_29_4896" result="shape"/>
</filter>
<filter id="filter3_d_29_4896" x="12.3886" y="11.6936" width="32.889" height="33.6111" filterUnits="userSpaceOnUse" color-interpolation-filters="sRGB">
<feFlood flood-opacity="0" result="BackgroundImageFix"/>
<feColorMatrix in="SourceAlpha" type="matrix" values="0 0 0 0 0 0 0 0 0 0 0 0 0 0 0 0 0 0 127 0" result="hardAlpha"/>
<feOffset dy="3.55556"/>
<feGaussianBlur stdDeviation="3.55556"/>
<feColorMatrix type="matrix" values="0 0 0 0 0.625 0 0 0 0 0.409034 0 0 0 0 0.12934 0 0 0 0.22 0"/>
<feBlend mode="normal" in2="BackgroundImageFix" result="effect1_dropShadow_29_4896"/>
<feBlend mode="normal" in="SourceGraphic" in2="effect1_dropShadow_29_4896" result="shape"/>
</filter>
<filter id="filter4_i_29_4896" x="19.4998" y="15.2491" width="18.6667" height="22.9445" filterUnits="userSpaceOnUse" color-interpolation-filters="sRGB">
<feFlood flood-opacity="0" result="BackgroundImageFix"/>
<feBlend mode="normal" in="SourceGraphic" in2="BackgroundImageFix" result="shape"/>
<feColorMatrix in="SourceAlpha" type="matrix" values="0 0 0 0 0 0 0 0 0 0 0 0 0 0 0 0 0 0 127 0" result="hardAlpha"/>
<feOffset dy="3.55556"/>
<feGaussianBlur stdDeviation="1.77778"/>
<feComposite in2="hardAlpha" operator="arithmetic" k2="-1" k3="1"/>
<feColorMatrix type="matrix" values="0 0 0 0 0.801791 0 0 0 0 0.623822 0 0 0 0 0.41026 0 0 0 1 0"/>
<feBlend mode="normal" in2="shape" result="effect1_innerShadow_29_4896"/>
</filter>
<linearGradient id="paint0_linear_29_4896" x1="6.44434" y1="4.36072" x2="6.44434" y2="47.694" gradientUnits="userSpaceOnUse">
<stop stop-color="#FFDD72"/>
<stop offset="1" stop-color="#FFC32B"/>
</linearGradient>
<linearGradient id="paint1_linear_29_4896" x1="14.3889" y1="11.5831" x2="14.3889" y2="40.472" gradientUnits="userSpaceOnUse">
<stop stop-color="#F9C685"/>
<stop offset="1" stop-color="#DB963B"/>
</linearGradient>
<linearGradient id="paint2_linear_29_4896" x1="18" y1="15.1947" x2="18" y2="36.8614" gradientUnits="userSpaceOnUse">
<stop stop-color="#FDDA9D"/>
<stop offset="1" stop-color="#EFB35E"/>
</linearGradient>
<linearGradient id="paint3_linear_29_4896" x1="23.0554" y1="18.8047" x2="23.0554" y2="31.0825" gradientUnits="userSpaceOnUse">
<stop stop-color="#F6C280"/>
<stop offset="1" stop-color="#E2A65E"/>
</linearGradient>
</defs>
</svg>
