<svg width="1440" height="340" viewBox="0 0 1440 340" fill="none" xmlns="http://www.w3.org/2000/svg">
<path d="M1113.44 252.142H309.473C358.482 245.993 404.281 234.95 445.212 219.946C555.772 179.458 630.847 147.347 637.93 67.7811H638.06C640.274 29.9784 672.283 0.000244141 711.454 0.000244141C750.625 0.000244141 782.634 29.9784 784.848 67.7811H784.978C792.061 147.347 867.136 179.458 977.696 219.946C1018.63 234.95 1064.43 245.993 1113.44 252.142Z" fill="#272945"/>
<path d="M1438.01 273.588L1150.56 262.854L1129.28 266.467C1129.28 266.467 1109.19 265.151 1100.18 266.467C1091.17 267.784 1075.24 272.714 1075.24 272.714H956.207C956.207 272.714 940.855 265.116 924.705 265.151C908.556 265.185 892.266 272.714 892.266 272.714L273.736 270.563L211.436 282.279L-11.4249 273.588C-17.6685 213.777 180.568 252.974 438.865 228.182C554.009 188.703 632.986 153.792 640.185 73.2376H640.311C642.472 36.4512 673.733 7.27759 711.993 7.27759C750.254 7.27759 781.515 36.4512 783.675 73.2376H783.801C791 153.792 869.978 188.703 985.122 228.182C1255.34 240.941 1438.01 228.182 1438.01 273.588Z" fill="url(#paint0_linear_29_4406)"/>
<path d="M544.672 133.61C533.82 133.61 524.185 138.827 518.109 146.882C515.944 146.433 513.697 146.203 511.398 146.203C499.391 146.203 488.861 152.589 483.013 162.147C473.836 155.761 462.693 152.015 450.676 152.015C420.679 152.015 396.123 175.335 394.011 204.874C389.745 203.591 385.219 202.891 380.527 202.891C356.013 202.891 335.901 221.756 333.82 245.796C328.233 235.237 317.162 228.037 304.416 228.037C292.638 228.037 282.296 234.183 276.386 243.438C270.299 236.792 261.569 232.618 251.862 232.618C249.437 232.618 247.086 232.879 244.807 233.38C239.47 222.09 228.014 214.285 214.727 214.285C204.447 214.285 195.26 218.96 189.152 226.316C184.21 223.405 178.467 221.725 172.317 221.725C163.349 221.725 155.222 225.283 149.24 231.074C143.496 221.047 132.727 214.296 120.367 214.296C120.221 214.296 120.086 214.296 119.95 214.306C120.221 212.585 120.367 210.811 120.367 209.016C120.367 190.59 105.467 175.648 87.0922 175.648C84.7095 175.648 82.3893 175.899 80.1523 176.379C80.6517 174.073 80.9326 171.673 80.9326 169.21C80.9326 150.784 66.033 135.842 47.6582 135.842C32.7691 135.842 20.1689 145.65 15.9134 159.173C14.8937 159.079 13.8637 159.027 12.8128 159.027C-5.562 159.027 -20.4616 173.968 -20.4616 192.395C-20.4616 203.006 -15.5089 212.459 -7.80943 218.574C-17.9436 224.292 -24.8004 235.174 -24.8004 247.674C-24.8004 254.258 -22.8859 260.393 -19.6084 265.569C-25.2478 271.547 -28.7021 279.602 -28.7021 288.482C-28.7021 306.908 -13.8026 321.85 4.57222 321.85C12.4486 321.85 19.6799 319.095 25.3817 314.515C30.8858 325.335 42.0917 332.753 55.0352 332.753C62.1729 332.753 68.7695 330.499 74.1903 326.66C79.247 329.769 85.1986 331.574 91.5663 331.574C104.666 331.574 115.997 323.978 121.417 312.949C126.526 316.153 132.561 318.01 139.022 318.01C145.484 318.01 151.841 316.048 157.033 312.699C163.109 319.272 171.787 323.383 181.432 323.383C186.458 323.383 191.223 322.257 195.489 320.264C199.765 322.267 204.52 323.383 209.546 323.383C225.226 323.383 238.356 312.511 241.884 297.872C245.026 298.864 248.366 299.396 251.831 299.396C263.609 299.396 273.951 293.25 279.861 283.995C285.948 290.642 294.677 294.815 304.385 294.815C320.627 294.815 334.142 283.139 337.066 267.697C344.048 284.872 360.862 296.985 380.506 296.985C402.793 296.985 421.438 281.397 426.204 260.498C433.612 264.045 441.894 266.028 450.644 266.028C480.797 266.028 505.456 242.478 507.35 212.71C508.672 212.866 510.003 212.96 511.366 212.96C522.219 212.96 531.853 207.743 537.93 199.688C540.094 200.137 542.341 200.366 544.641 200.366C563.016 200.366 577.915 185.425 577.915 166.998C577.915 148.572 563.016 133.63 544.641 133.63L544.672 133.61Z" fill="#272945"/>
<path d="M894.554 133.609C905.406 133.609 915.041 138.826 921.117 146.881C923.281 146.433 925.529 146.203 927.828 146.203C939.835 146.203 950.365 152.589 956.212 162.146C965.389 155.761 976.533 152.015 988.55 152.015C1018.55 152.015 1043.1 175.335 1045.21 204.874C1049.48 203.59 1054.01 202.891 1058.7 202.891C1083.21 202.891 1103.32 221.756 1105.41 245.796C1110.99 235.237 1122.06 228.037 1134.81 228.037C1146.59 228.037 1156.93 234.183 1162.84 243.438C1168.93 236.791 1177.66 232.618 1187.36 232.618C1189.79 232.618 1192.14 232.879 1194.42 233.379C1199.76 222.09 1211.21 214.285 1224.5 214.285C1234.78 214.285 1243.97 218.96 1250.07 226.316C1255.02 223.405 1260.76 221.725 1266.91 221.725C1275.88 221.725 1284 225.283 1289.99 231.074C1295.73 221.046 1306.5 214.296 1318.86 214.296C1319 214.296 1319.14 214.296 1319.28 214.306C1319 212.584 1318.86 210.811 1318.86 209.016C1318.86 190.59 1333.76 175.648 1352.13 175.648C1354.52 175.648 1356.84 175.898 1359.07 176.378C1358.57 174.072 1358.29 171.673 1358.29 169.21C1358.29 150.784 1373.19 135.842 1391.57 135.842C1406.46 135.842 1419.06 145.65 1423.31 159.173C1424.33 159.079 1425.36 159.027 1426.41 159.027C1444.79 159.027 1459.69 173.968 1459.69 192.395C1459.69 203.006 1454.73 212.459 1447.04 218.574C1457.17 224.291 1464.03 235.174 1464.03 247.674C1464.03 254.258 1462.11 260.393 1458.83 265.568C1464.47 271.547 1467.93 279.602 1467.93 288.481C1467.93 306.908 1453.03 321.849 1434.65 321.849C1426.78 321.849 1419.55 319.095 1413.84 314.514C1408.34 325.334 1397.13 332.753 1384.19 332.753C1377.05 332.753 1370.46 330.499 1365.04 326.66C1359.98 329.769 1354.03 331.574 1347.66 331.574C1334.56 331.574 1323.23 323.978 1317.81 312.949C1312.7 316.152 1306.66 318.01 1300.2 318.01C1293.57 318.01 1287.38 316.048 1282.19 312.699C1276.12 319.272 1267.44 323.383 1257.79 323.383C1252.77 323.383 1248 322.256 1243.74 320.263C1239.46 322.267 1234.71 323.383 1229.68 323.383C1214 323.383 1200.87 312.511 1197.34 297.872C1194.2 298.863 1190.86 299.395 1187.4 299.395C1175.62 299.395 1165.27 293.25 1159.36 283.995C1153.28 290.641 1144.55 294.815 1134.84 294.815C1118.6 294.815 1105.08 283.139 1102.16 267.697C1095.18 284.871 1078.36 296.985 1058.72 296.985C1036.43 296.985 1017.79 281.397 1013.02 260.497C1005.61 264.045 997.332 266.027 988.581 266.027C958.428 266.027 933.769 242.478 931.876 212.71C930.554 212.866 929.222 212.96 927.859 212.96C917.007 212.96 907.372 207.743 901.296 199.688C899.132 200.137 896.884 200.366 894.585 200.366C876.21 200.366 861.311 185.425 861.311 166.998C861.311 148.572 876.21 133.63 894.585 133.63L894.554 133.609Z" fill="#272945"/>
<path d="M549.585 140.223C538.733 140.223 529.098 145.44 523.022 153.495C520.858 153.047 518.61 152.817 516.311 152.817C504.304 152.817 493.774 159.203 487.927 168.76C478.75 162.375 467.606 158.629 455.589 158.629C425.592 158.629 401.037 181.949 398.925 211.488C394.659 210.204 390.133 209.505 385.44 209.505C360.927 209.505 340.814 228.37 338.733 252.41C333.146 241.851 322.075 234.651 309.329 234.651C297.551 234.651 287.209 240.797 281.299 250.052C275.212 243.405 266.483 239.232 256.775 239.232C254.351 239.232 251.999 239.492 249.721 239.993C244.383 228.704 232.927 220.899 219.641 220.899C209.361 220.899 200.173 225.574 194.066 232.929C189.123 230.018 183.38 228.339 177.231 228.339C168.262 228.339 160.136 231.897 154.153 237.687C148.41 227.66 137.641 220.909 125.28 220.909C125.134 220.909 124.999 220.91 124.864 220.92C125.134 219.198 125.28 217.425 125.28 215.63C125.28 197.203 110.38 182.262 92.0056 182.262C89.6229 182.262 87.3026 182.512 85.0656 182.992C85.565 180.686 85.8459 178.287 85.8459 175.824C85.8459 157.398 70.9464 142.456 52.5716 142.456C37.6824 142.456 25.0823 152.264 20.8267 165.787C19.807 165.693 18.777 165.641 17.7261 165.641C-0.648674 165.641 -15.5483 180.582 -15.5483 199.009C-15.5483 209.62 -10.5956 219.073 -2.8961 225.187C-13.0303 230.905 -19.887 241.788 -19.887 254.288C-19.887 260.872 -17.9726 267.007 -14.6951 272.182C-20.3344 278.161 -23.7888 286.216 -23.7888 295.095C-23.7888 313.522 -8.88923 328.463 9.48555 328.463C17.3619 328.463 24.5932 325.709 30.295 321.128C35.7991 331.948 47.005 339.367 59.9485 339.367C67.0862 339.367 73.6828 337.113 79.1037 333.273C84.1604 336.383 90.1119 338.188 96.4796 338.188C109.579 338.188 120.91 330.592 126.331 319.563C131.44 322.766 137.474 324.624 143.936 324.624C150.397 324.624 156.754 322.662 161.946 319.313C168.023 325.886 176.7 329.997 186.345 329.997C191.371 329.997 196.136 328.87 200.402 326.877C204.678 328.881 209.433 329.997 214.459 329.997C230.139 329.997 243.27 319.125 246.797 304.486C249.939 305.477 253.279 306.009 256.744 306.009C268.522 306.009 278.864 299.864 284.774 290.609C290.861 297.255 299.591 301.429 309.298 301.429C325.54 301.429 339.056 289.753 341.979 274.311C348.961 291.485 365.775 303.599 385.419 303.599C407.706 303.599 426.352 288.011 431.117 267.111C438.525 270.659 446.807 272.641 455.558 272.641C485.711 272.641 510.37 249.092 512.263 219.324C513.585 219.48 514.917 219.574 516.28 219.574C527.132 219.574 536.767 214.357 542.843 206.302C545.007 206.751 547.255 206.98 549.554 206.98C567.929 206.98 582.828 192.039 582.828 173.612C582.828 155.186 567.929 140.244 549.554 140.244L549.585 140.223Z" fill="url(#paint1_linear_29_4406)"/>
<path d="M897.478 140.223C908.33 140.223 917.965 145.44 924.041 153.495C926.205 153.047 928.453 152.817 930.752 152.817C942.759 152.817 953.289 159.203 959.136 168.76C968.313 162.375 979.457 158.629 991.474 158.629C1021.47 158.629 1046.03 181.949 1048.14 211.488C1052.4 210.204 1056.93 209.505 1061.62 209.505C1086.14 209.505 1106.25 228.37 1108.33 252.41C1113.92 241.851 1124.99 234.651 1137.73 234.651C1149.51 234.651 1159.85 240.797 1165.76 250.052C1171.85 243.405 1180.58 239.232 1190.29 239.232C1192.71 239.232 1195.06 239.492 1197.34 239.993C1202.68 228.704 1214.14 220.899 1227.42 220.899C1237.7 220.899 1246.89 225.574 1253 232.929C1257.94 230.018 1263.68 228.339 1269.83 228.339C1278.8 228.339 1286.93 231.897 1292.91 237.687C1298.65 227.66 1309.42 220.909 1321.78 220.909C1321.93 220.909 1322.06 220.91 1322.2 220.92C1321.93 219.198 1321.78 217.425 1321.78 215.63C1321.78 197.203 1336.68 182.262 1355.06 182.262C1357.44 182.262 1359.76 182.512 1362 182.992C1361.5 180.686 1361.22 178.287 1361.22 175.824C1361.22 157.398 1376.12 142.456 1394.49 142.456C1409.38 142.456 1421.98 152.264 1426.24 165.787C1427.26 165.693 1428.29 165.641 1429.34 165.641C1447.71 165.641 1462.61 180.582 1462.61 199.009C1462.61 209.62 1457.66 219.073 1449.96 225.187C1460.09 230.905 1466.95 241.788 1466.95 254.288C1466.95 260.872 1465.04 267.007 1461.76 272.182C1467.4 278.161 1470.85 286.216 1470.85 295.095C1470.85 313.522 1455.95 328.463 1437.58 328.463C1429.7 328.463 1422.47 325.709 1416.77 321.128C1411.26 331.948 1400.06 339.367 1387.11 339.367C1379.98 339.367 1373.38 337.113 1367.96 333.273C1362.9 336.383 1356.95 338.188 1350.58 338.188C1337.48 338.188 1326.15 330.592 1320.73 319.563C1315.62 322.766 1309.59 324.624 1303.13 324.624C1296.49 324.624 1290.31 322.662 1285.12 319.313C1279.04 325.886 1270.36 329.997 1260.72 329.997C1255.69 329.997 1250.93 328.87 1246.66 326.877C1242.38 328.881 1237.63 329.997 1232.6 329.997C1216.92 329.997 1203.79 319.125 1200.27 304.486C1197.12 305.477 1193.78 306.009 1190.32 306.009C1178.54 306.009 1168.2 299.864 1162.29 290.609C1156.2 297.255 1147.47 301.429 1137.77 301.429C1121.52 301.429 1108.01 289.753 1105.08 274.311C1098.1 291.485 1081.29 303.599 1061.64 303.599C1039.36 303.599 1020.71 288.011 1015.95 267.111C1008.54 270.659 1000.26 272.641 991.506 272.641C961.353 272.641 936.693 249.092 934.8 219.324C933.478 219.48 932.147 219.574 930.784 219.574C919.931 219.574 910.297 214.357 904.22 206.302C902.056 206.751 899.809 206.98 897.509 206.98C879.134 206.98 864.235 192.039 864.235 173.612C864.235 155.186 879.134 140.244 897.509 140.244L897.478 140.223Z" fill="url(#paint2_linear_29_4406)"/>
<defs>
<linearGradient id="paint0_linear_29_4406" x1="711.993" y1="135.393" x2="711.993" y2="262.229" gradientUnits="userSpaceOnUse">
<stop stop-color="#181834"/>
<stop offset="1" stop-color="#0B0B23"/>
</linearGradient>
<linearGradient id="paint1_linear_29_4406" x1="273.432" y1="166.986" x2="279.527" y2="291.704" gradientUnits="userSpaceOnUse">
<stop stop-color="#181834"/>
<stop offset="1" stop-color="#0B0B23"/>
</linearGradient>
<linearGradient id="paint2_linear_29_4406" x1="1161.46" y1="166.986" x2="1167.55" y2="291.704" gradientUnits="userSpaceOnUse">
<stop stop-color="#181834"/>
<stop offset="1" stop-color="#0B0B23"/>
</linearGradient>
</defs>
</svg>
