<svg width="1440" height="419" viewBox="0 0 1440 419" fill="none" xmlns="http://www.w3.org/2000/svg">
<path d="M686.984 319.435C675.799 312.971 662.766 312.611 651.712 317.297C649.749 315.545 647.569 313.97 645.199 312.6C632.823 305.448 618.173 305.76 606.461 312.132C600.8 300.08 591.543 289.58 579.156 282.421C548.238 264.552 509.061 273.971 489.316 303.172C485.683 299.307 481.433 295.89 476.597 293.095C451.331 278.492 419.382 285.964 402.94 309.514C403.461 295.297 396.332 281.278 383.195 273.686C371.055 266.669 356.74 266.846 345.145 272.868C342.824 262.389 336.309 252.885 326.303 247.102C323.804 245.658 321.226 244.526 318.579 243.685C319.792 228.864 312.626 213.992 298.931 206.077C288.336 199.954 276.086 199.301 265.416 203.248C262.054 197.302 257.133 192.148 250.795 188.485C241.551 183.142 231.059 181.97 221.449 184.378C221.493 170.617 214.408 157.241 201.668 149.877C201.517 149.791 201.378 149.71 201.233 149.64C202.535 148.026 203.74 146.284 204.807 144.433C215.766 125.432 209.295 101.15 190.356 90.2037C187.9 88.7843 185.36 87.6604 182.769 86.8228C184.655 84.7425 186.372 82.4352 187.836 79.8961C198.795 60.8953 192.324 36.6124 173.385 25.6665C158.039 16.797 139.219 19.4048 126.79 30.8137C125.795 30.1094 124.765 29.442 123.681 28.816C104.743 17.8701 80.4997 24.4017 69.5411 43.4024C63.2303 54.3445 62.7131 67.0427 67.0126 77.9342C53.1668 77.7932 39.6274 84.9306 32.1935 97.8201C28.278 104.609 26.6025 112.076 26.9028 119.365C17.5347 122.171 9.18375 128.419 3.90304 137.575C-7.05552 156.576 -0.584552 180.859 18.3543 191.804C26.4725 196.496 35.564 197.964 44.165 196.637C43.4032 211.073 50.5411 225.398 63.8819 233.109C71.2387 237.361 79.3781 238.966 87.2489 238.236C90.6117 244.454 95.6725 249.861 102.236 253.654C115.737 261.458 131.933 260.375 144.08 252.232C147.44 258.578 152.556 264.088 159.215 267.937C166.057 271.891 173.594 273.55 180.937 273.189C183.291 283.587 189.79 292.996 199.731 298.742C204.911 301.735 210.493 303.412 216.075 303.898C219.291 308.511 223.528 312.495 228.708 315.489C244.869 324.829 264.869 321.44 277.211 308.446C279.86 311.34 282.986 313.879 286.557 315.943C298.697 322.959 313.011 322.783 324.607 316.76C326.928 327.239 333.443 336.743 343.449 342.526C360.189 352.201 381.064 348.213 393.261 334.031C390.243 355.9 400.369 378.407 420.616 390.109C443.587 403.385 472.076 398.418 489.416 379.706C494.942 387.777 502.3 394.755 511.319 399.968C542.397 417.93 581.819 408.336 601.474 378.768C602.743 379.717 604.06 380.607 605.465 381.419C616.65 387.884 629.684 388.243 640.737 383.557C642.701 385.309 644.881 386.884 647.251 388.254C666.19 399.2 690.433 392.668 701.391 373.668C712.35 354.667 705.879 330.384 686.94 319.438L686.984 319.435Z" fill="#272945"/>
<path d="M677.974 323.326C666.788 316.861 653.755 316.501 642.702 321.188C640.738 319.436 638.558 317.861 636.188 316.491C623.812 309.338 609.162 309.65 597.451 316.022C591.79 303.971 582.532 293.47 570.145 286.311C539.228 268.442 500.05 277.862 480.306 307.063C476.672 303.198 472.423 299.781 467.586 296.986C442.32 282.383 410.371 289.855 393.929 313.404C394.45 299.188 387.321 285.169 374.184 277.576C362.044 270.56 347.73 270.736 336.134 276.759C333.813 266.28 327.298 256.776 317.292 250.993C314.794 249.549 312.215 248.417 309.568 247.576C310.781 232.755 303.615 217.883 289.921 209.968C279.325 203.844 267.076 203.191 256.406 207.138C253.043 201.192 248.123 196.039 241.785 192.376C232.54 187.033 222.049 185.861 212.438 188.269C212.482 174.508 205.397 161.131 192.657 153.768C192.507 153.681 192.367 153.601 192.222 153.531C193.524 151.917 194.729 150.174 195.797 148.324C206.755 129.323 200.284 105.04 181.346 94.0944C178.89 92.675 176.349 91.551 173.758 90.7133C175.644 88.6331 177.361 86.3258 178.825 83.7867C189.784 64.7859 183.313 40.5031 164.374 29.5572C149.028 20.6877 130.208 23.2954 117.78 34.7043C116.785 34.0001 115.754 33.3327 114.671 32.7067C95.7319 21.7608 71.489 28.2923 60.5304 47.2931C54.2196 58.2352 53.7024 70.9333 58.0019 81.8248C44.1561 81.6839 30.6167 88.8212 23.1827 101.711C19.2672 108.5 17.5917 115.967 17.892 123.256C8.52386 126.061 0.172952 132.31 -5.10775 141.466C-16.0663 160.466 -9.59524 184.749 9.34366 195.695C17.4618 200.387 26.5533 201.854 35.1543 200.528C34.3925 214.964 41.5304 229.289 54.8713 236.999C62.228 241.251 70.3674 242.857 78.2382 242.127C81.601 248.345 86.6618 253.752 93.225 257.545C106.727 265.349 122.923 264.266 135.069 256.122C138.43 262.469 143.545 267.979 150.205 271.828C157.047 275.782 164.583 277.441 171.927 277.08C174.28 287.478 180.779 296.887 190.721 302.632C195.9 305.626 201.482 307.303 207.064 307.789C210.281 312.402 214.518 316.386 219.697 319.38C235.859 328.72 255.858 325.331 268.2 312.337C270.849 315.231 273.975 317.769 277.546 319.833C289.686 326.849 304.001 326.673 315.596 320.65C317.917 331.13 324.432 340.634 334.438 346.417C351.178 356.092 372.053 352.104 384.25 337.922C381.232 359.79 391.358 382.298 411.605 394C434.576 407.276 463.065 402.309 480.406 383.597C485.932 391.668 493.289 398.646 502.308 403.859C533.387 421.821 572.808 412.227 592.464 382.659C593.733 383.607 595.049 384.498 596.454 385.31C607.64 391.774 620.673 392.134 631.726 387.448C633.69 389.199 635.87 390.775 638.24 392.145C657.179 403.091 681.422 396.559 692.38 377.558C703.339 358.558 696.868 334.275 677.929 323.329L677.974 323.326Z" fill="url(#paint0_linear_29_4107)"/>
<path d="M763.127 319.171C775.06 312.274 788.964 311.89 800.756 316.89C802.851 315.021 805.177 313.34 807.705 311.879C820.908 304.248 836.537 304.581 849.031 311.379C855.07 298.522 864.946 287.32 878.161 279.683C911.144 260.62 952.94 270.668 974.003 301.821C977.88 297.698 982.413 294.053 987.573 291.07C1014.53 275.492 1048.61 283.463 1066.15 308.586C1065.6 293.419 1073.2 278.464 1087.22 270.364C1100.17 262.879 1115.44 263.067 1127.81 269.492C1130.28 258.313 1137.23 248.174 1147.91 242.004C1150.57 240.464 1153.33 239.256 1156.15 238.359C1154.86 222.548 1162.5 206.682 1177.11 198.238C1188.41 191.705 1201.48 191.009 1212.86 195.219C1216.45 188.876 1221.7 183.378 1228.46 179.471C1238.32 173.771 1249.52 172.521 1259.77 175.089C1259.72 160.408 1267.28 146.138 1280.87 138.283C1281.03 138.19 1281.18 138.105 1281.34 138.03C1279.95 136.308 1278.66 134.449 1277.52 132.475C1265.83 112.205 1272.74 86.2994 1292.94 74.6221C1295.56 73.1079 1298.27 71.9089 1301.03 71.0153C1299.02 68.796 1297.19 66.3345 1295.63 63.6257C1283.94 43.3554 1290.84 17.4499 1311.04 5.77263C1327.42 -3.68951 1347.49 -0.907515 1360.75 11.2637C1361.81 10.5124 1362.91 9.80038 1364.07 9.13256C1384.27 -2.5447 1410.14 4.42324 1421.83 24.6936C1428.56 36.3668 1429.11 49.9135 1424.52 61.5327C1439.3 61.3824 1453.74 68.9966 1461.67 82.7474C1465.85 89.9901 1467.64 97.9559 1467.31 105.732C1477.31 108.725 1486.22 115.391 1491.85 125.159C1503.54 145.429 1496.64 171.334 1476.43 183.012C1467.77 188.017 1458.07 189.583 1448.9 188.167C1449.71 203.568 1442.1 218.85 1427.86 227.076C1420.02 231.612 1411.33 233.325 1402.94 232.546C1399.35 239.18 1393.95 244.948 1386.95 248.994C1372.54 257.319 1355.27 256.164 1342.31 247.477C1338.72 254.247 1333.27 260.125 1326.16 264.231C1318.86 268.45 1310.82 270.22 1302.99 269.835C1300.48 280.928 1293.54 290.965 1282.94 297.094C1277.41 300.288 1271.46 302.077 1265.5 302.595C1262.07 307.517 1257.55 311.767 1252.03 314.961C1234.78 324.925 1213.45 321.31 1200.28 307.447C1197.46 310.535 1194.12 313.243 1190.31 315.445C1177.36 322.93 1162.09 322.742 1149.72 316.316C1147.24 327.496 1140.29 337.635 1129.62 343.804C1111.76 354.126 1089.49 349.871 1076.48 334.742C1079.7 358.071 1068.89 382.083 1047.29 394.567C1022.79 408.73 992.396 403.431 973.896 383.469C968.001 392.079 960.152 399.524 950.531 405.085C917.376 424.247 875.32 414.012 854.351 382.468C852.997 383.48 851.592 384.43 850.094 385.296C838.161 392.193 824.257 392.576 812.465 387.577C810.37 389.446 808.044 391.127 805.516 392.588C785.312 404.265 759.449 397.297 747.758 377.027C736.067 356.756 742.971 330.851 763.175 319.174L763.127 319.171Z" fill="#272945"/>
<path d="M772.738 323.321C784.67 316.425 798.574 316.041 810.366 321.04C812.461 319.171 814.787 317.49 817.315 316.029C830.518 308.399 846.147 308.732 858.641 315.53C864.68 302.673 874.557 291.471 887.771 283.833C920.754 264.77 962.55 274.819 983.614 305.971C987.49 301.848 992.023 298.203 997.183 295.221C1024.14 279.642 1058.22 287.613 1075.76 312.736C1075.21 297.57 1082.81 282.614 1096.83 274.514C1109.78 267.029 1125.05 267.217 1137.42 273.643C1139.89 262.463 1146.85 252.324 1157.52 246.155C1160.18 244.614 1162.94 243.407 1165.76 242.51C1164.47 226.698 1172.11 210.832 1186.72 202.389C1198.02 195.856 1211.09 195.159 1222.47 199.37C1226.06 193.027 1231.31 187.529 1238.07 183.621C1247.93 177.921 1259.13 176.671 1269.38 179.239C1269.33 164.559 1276.89 150.289 1290.48 142.433C1290.64 142.341 1290.79 142.255 1290.95 142.18C1289.56 140.458 1288.27 138.6 1287.13 136.626C1275.44 116.355 1282.35 90.4498 1302.55 78.7726C1305.17 77.2583 1307.88 76.0593 1310.64 75.1656C1308.63 72.9463 1306.8 70.4849 1305.24 67.7761C1293.55 47.5057 1300.45 21.6003 1320.66 9.92305C1337.03 0.460915 1357.1 3.24291 1370.36 15.4141C1371.42 14.6628 1372.52 13.9508 1373.68 13.283C1393.88 1.60573 1419.75 8.57366 1431.44 28.844C1438.17 40.5173 1438.72 54.0639 1434.14 65.6832C1448.91 65.5328 1463.35 73.147 1471.28 86.8978C1475.46 94.1405 1477.25 102.106 1476.93 109.882C1486.92 112.875 1495.83 119.541 1501.46 129.309C1513.15 149.579 1506.25 175.485 1486.04 187.162C1477.38 192.168 1467.69 193.733 1458.51 192.318C1459.32 207.718 1451.71 223.001 1437.47 231.226C1429.63 235.762 1420.94 237.475 1412.55 236.696C1408.96 243.33 1403.56 249.098 1396.56 253.145C1382.15 261.47 1364.88 260.314 1351.92 251.627C1348.33 258.397 1342.88 264.276 1335.77 268.382C1328.47 272.6 1320.43 274.37 1312.6 273.985C1310.09 285.078 1303.15 295.115 1292.55 301.245C1287.02 304.438 1281.07 306.227 1275.11 306.746C1271.68 311.667 1267.16 315.917 1261.64 319.111C1244.39 329.076 1223.06 325.46 1209.89 311.598C1207.07 314.685 1203.73 317.393 1199.92 319.595C1186.97 327.08 1171.7 326.892 1159.33 320.467C1156.85 331.646 1149.9 341.785 1139.23 347.955C1121.37 358.276 1099.1 354.022 1086.09 338.892C1089.31 362.222 1078.5 386.233 1056.9 398.717C1032.4 412.881 1002.01 407.582 983.507 387.619C977.612 396.23 969.763 403.674 960.141 409.235C926.986 428.397 884.93 418.162 863.961 386.619C862.608 387.631 861.203 388.58 859.704 389.446C847.771 396.343 833.867 396.727 822.075 391.727C819.98 393.596 817.655 395.277 815.126 396.738C794.922 408.416 769.059 401.448 757.368 381.177C745.678 360.907 752.581 335.001 772.785 323.324L772.738 323.321Z" fill="url(#paint1_linear_29_4107)"/>
<defs>
<linearGradient id="paint0_linear_29_4107" x1="257.766" y1="106.021" x2="238.619" y2="234.81" gradientUnits="userSpaceOnUse">
<stop stop-color="#181834"/>
<stop offset="1" stop-color="#0B0B23"/>
</linearGradient>
<linearGradient id="paint1_linear_29_4107" x1="1221.02" y1="91.4964" x2="1241.45" y2="228.891" gradientUnits="userSpaceOnUse">
<stop stop-color="#181834"/>
<stop offset="1" stop-color="#0B0B23"/>
</linearGradient>
</defs>
</svg>
