<svg width="164" height="164" viewBox="0 0 164 164" fill="none" xmlns="http://www.w3.org/2000/svg">
<path d="M97.2193 147.675C133.694 139.066 156.284 102.519 147.675 66.0436C139.066 29.5686 102.519 6.97867 66.0438 15.5875C29.5688 24.1964 6.97887 60.7441 15.5878 97.2191C24.1966 133.694 60.7443 156.284 97.2193 147.675Z" fill="#F58466"/>
<path d="M68.9262 112.766C78.4517 112.766 89.2466 112.35 90.3924 112.766C91.5494 113.181 95.627 115.911 104.849 115.911C114.071 115.911 122.867 111.935 127.787 111.193C131.842 110.587 139.919 109.07 143.771 108.891C138.436 121.045 129.64 131.323 118.632 138.501C108.5 138.748 97.3681 138.939 92.0661 138.737C84.4165 138.444 57.1765 137.04 41.2931 136.209C33.1716 130.199 26.4431 122.415 21.6691 113.44C31.2733 113.271 60.962 112.755 68.9262 112.755V112.766Z" fill="#E05B41"/>
<path d="M144.839 56.9376H144.232C144.232 56.9376 135.223 58.2968 134.392 58.2968H122.238L112.083 58.0834L76.5759 57.3532L64.4218 56.3086C64.4218 56.3086 48.8192 55.2639 47.8756 55.2639C46.932 55.2639 29.9703 56.9376 29.4423 56.9376C28.9144 56.9376 23.0507 56.7242 23.0507 56.7242L18.8496 55.8143C20.9726 50.6584 23.7023 45.8282 26.971 41.4024C28.2291 41.2901 29.4535 41.1665 30.3859 41.0205C33.7333 40.4925 40.0238 41.0205 43.0567 41.335C46.0896 41.6495 87.1461 41.2339 87.1461 41.2339C87.1461 41.2339 90.4935 41.7619 91.336 41.863C92.1785 41.964 102.962 41.4473 103.49 41.2339C104.018 41.0205 111.342 40.2903 111.769 40.1892C112.184 40.0881 118.789 39.5602 119.935 39.0435C121.092 38.5155 123.912 38.4144 123.912 38.4144L135.055 39.841C139.099 44.9969 142.401 50.7595 144.827 56.9601L144.839 56.9376Z" fill="#E05B41"/>
<path d="M138.963 62.5652H135.335L116.621 60.3299C116.621 60.3299 102.378 58.937 100.142 58.6561C97.907 58.3753 92.3242 58.3753 92.3242 58.3753C92.3242 58.3753 66.3535 58.0945 64.9494 58.0945C63.5453 58.0945 46.5161 56.9824 46.5161 56.9824C46.5161 56.9824 36.1818 57.2633 34.7889 57.2633C33.396 57.2633 23.6121 58.6561 21.9384 58.937C21.0397 59.083 19.0852 59.3189 17.4789 59.4986C18.1304 57.6002 18.8718 55.7356 19.6918 53.9046H20.8263C22.5 53.9046 26.1283 53.9046 27.5324 53.9046H31.1606C32.2727 53.9046 48.7515 53.9046 48.7515 53.9046L52.9414 53.6238C52.9414 53.6238 60.4787 53.0621 63.2757 52.7813C66.0727 52.5005 70.5322 52.7813 71.9363 52.7813C73.3405 52.7813 82.8323 52.7813 84.506 52.7813C86.1797 52.7813 102.939 53.343 104.613 53.6238C106.287 53.9046 111.6 54.1854 113.554 54.4663C115.509 54.7471 119.418 54.4663 121.934 54.4663C124.45 54.4663 126.686 54.7471 126.686 54.7471L135.066 55.5895L144.355 55.6906C145.041 57.3644 145.67 59.0605 146.231 60.7904C143.108 61.7003 138.975 62.5652 138.975 62.5652H138.963Z" fill="#FED09E"/>
<path d="M47.3584 133.03C47.3584 133.03 61.6018 134.423 63.8372 134.703C66.0726 134.984 71.6553 134.984 71.6553 134.984C71.6553 134.984 97.626 135.265 99.0301 135.265C100.434 135.265 117.463 136.388 117.463 136.388C117.463 136.388 119.497 136.332 121.889 136.276C120.361 137.399 118.789 138.466 117.171 139.466H115.228L111.038 139.747C111.038 139.747 103.501 140.309 100.704 140.59C97.9068 140.87 93.4473 140.59 92.0432 140.59C90.6391 140.59 81.1472 140.59 79.4735 140.59C77.7998 140.59 61.0402 140.028 59.3665 139.747C57.6928 139.466 52.3796 139.185 50.425 138.905C49.1669 138.725 47.1001 138.781 45.1118 138.837C41.7869 136.714 38.6529 134.31 35.7548 131.659L47.3472 133.041L47.3584 133.03Z" fill="#FED09E"/>
<path d="M20.422 110.969C21.3206 112.833 22.3091 114.653 23.365 116.428C24.3423 116.405 26.207 116.316 27.2179 116.001C28.6221 115.563 32.8232 115.125 35.0586 115.125C37.2939 115.125 47.3811 114.473 50.1781 114.473H59.4229C64.9158 114.473 70.4087 114.294 75.8904 114.619C81.4507 114.956 86.5842 116.147 91.9199 117.652C95.0651 118.54 98.4911 118.742 101.737 119.068C109.836 119.865 117.194 115.877 124.608 113.305C128.292 112.025 132.336 111.643 136.178 110.969C138.694 110.531 140.66 109.879 141.502 109.879H143.333C143.771 108.924 144.187 107.969 144.58 106.992C136.784 106.768 128.989 106.565 121.204 106.206C106.702 105.543 91.976 107.801 77.4855 108.475C73.2731 108.677 69.0495 108.879 64.8484 109.171C60.3328 109.486 55.8283 109.991 51.3127 110.317C45.1458 110.755 38.1476 110.969 35.9123 110.969C33.6769 110.969 30.0262 110.969 24.9826 110.969H20.422ZM98.7607 112.743C98.7046 111.238 101.356 109.924 104.658 109.812C107.961 109.699 110.69 110.834 110.735 112.339C110.78 113.844 108.14 115.159 104.838 115.271C101.535 115.383 98.8057 114.249 98.7607 112.743Z" fill="#FED09E"/>
<path d="M128.831 32.8993C124.495 32.259 120.148 31.6524 115.778 31.2817C102.647 30.1584 88.4036 31.2817 75.2835 32.3938C67.1846 32.9554 59.0856 34.3483 50.9866 33.5059C45.4038 32.9442 40.3715 32.3938 34.7887 32.6634C34.7437 32.6634 34.6988 32.6634 34.6426 32.6634C30.3067 36.8308 26.51 41.5599 23.3984 46.7495C28.3746 46.9068 33.935 46.9854 39.529 46.9068C56.839 46.626 65.4996 44.1098 71.3632 44.1098C77.2268 44.1098 91.4702 43.829 94.8177 43.829C98.1651 43.829 113.813 42.7169 116.879 42.7169C119.946 42.7169 131.965 42.4361 135.874 42.7169C136.357 42.7506 136.818 42.7843 137.267 42.8068C134.773 39.2347 131.943 35.9097 128.82 32.888L128.831 32.8993ZM110.476 37.1678C110.544 39.2122 104.343 41.0881 96.6374 41.3465C88.9204 41.6048 82.6187 40.1558 82.5513 38.1001C82.4839 36.0557 88.6845 34.1798 96.3903 33.9215C104.107 33.6631 110.409 35.1122 110.476 37.1678Z" fill="#FED09E"/>
<path d="M149.489 81.4256C149.489 79.3925 149.376 77.393 149.197 75.416H147.062C138.155 75.416 129.236 75.3823 120.328 75.416C113.195 75.4385 105.77 76.09 98.7382 74.6185C89.3699 72.6639 80.9114 67.8787 71.1163 68.0696C64.9494 68.1932 58.9173 69.6423 53.1098 71.6417C45.7859 74.1691 39.0012 77.7974 31.0932 78.1568C25.3082 78.4152 19.5794 78.5612 13.8281 79.0443C13.7944 79.9092 13.7607 80.7741 13.7607 81.6391C13.7607 82.4591 13.7944 83.2679 13.8169 84.0766H23.0616C28.5096 84.7394 33.879 85.2449 39.1697 86.8062C44.5166 88.3901 49.6838 90.5244 55.143 91.715C66.376 94.1638 78.2268 93.737 89.1227 89.9852C92.9869 88.6597 96.7162 86.7388 100.738 85.9188C106.399 84.7618 112.364 84.5372 118.104 83.5936C125.012 82.4591 132.055 82.987 138.986 82.1221C141.221 81.8413 144.85 81.2796 145.692 81.2796C145.973 81.2796 147.545 81.347 149.511 81.4256H149.489ZM85.3372 80.8977C85.472 84.8292 78.575 88.2441 69.9481 88.5361C61.3099 88.8282 54.2107 85.8739 54.0759 81.9424C53.9411 78.0108 60.8381 74.5848 69.465 74.3039C78.1032 74.0119 85.2024 76.9662 85.3372 80.8977Z" fill="#FED09E"/>
<path opacity="0.2" d="M135.167 123.347C119.542 143.375 93.2566 153.777 66.8254 147.868C30.2396 139.68 7.22329 103.408 15.4009 66.8225C17.5127 57.3532 21.5341 48.7936 26.9372 41.4473C43.3036 67.2382 89.4711 132.041 135.167 123.336V123.347Z" fill="#212A3C"/>
<path opacity="0.2" d="M131.685 127.436C115.813 144.757 91.3921 153.35 66.8144 147.857C32.3628 140.163 9.95304 107.52 14.3002 73.1807C32.5313 99.4434 74.8684 147.161 131.696 127.436H131.685Z" fill="#212A3C"/>
<path opacity="0.3" d="M81.6863 27.1704C76.2945 36.0557 83.023 49.9846 96.716 58.297C110.409 66.6094 125.877 66.1488 131.269 57.2635C136.66 48.3783 129.932 34.4381 116.25 26.1257C102.557 17.8133 87.0894 18.2739 81.6975 27.1592L81.6863 27.1704Z" fill="white"/>
</svg>
