<svg width="41" height="40" viewBox="0 0 41 40" fill="none" xmlns="http://www.w3.org/2000/svg">
<g filter="url(#filter0_ii_4_101)">
<path d="M34.3686 6.5978C38.1159 10.3451 37.7611 16.7755 33.6147 20.9219L26.0756 28.461L12.5054 14.8907L20.0444 7.3517C24.1909 3.20524 30.6212 2.85048 34.3686 6.5978Z" fill="#14F195"/>
<path d="M18.5366 36L4.96631 22.4297C9.13 18.266 15.5431 17.9285 19.2905 21.6758C23.0378 25.4231 22.7003 31.8363 18.5366 36Z" fill="#9945FF"/>
<path d="M32.8608 35.246L19.2905 21.6758C23.4542 17.5121 29.8674 17.1746 33.6147 20.9219C37.362 24.6692 37.0245 31.0824 32.8608 35.246Z" fill="#14F195"/>
<path d="M19.2905 21.6757L5.72021 8.10549C9.88391 3.9418 16.2971 3.60427 20.0444 7.35159C23.7917 11.0989 23.4542 17.512 19.2905 21.6757Z" fill="#14F195"/>
</g>
<defs>
<filter id="filter0_ii_4_101" x="0.966309" y="0" width="40" height="40" filterUnits="userSpaceOnUse" color-interpolation-filters="sRGB">
<feFlood flood-opacity="0" result="BackgroundImageFix"/>
<feBlend mode="normal" in="SourceGraphic" in2="BackgroundImageFix" result="shape"/>
<feColorMatrix in="SourceAlpha" type="matrix" values="0 0 0 0 0 0 0 0 0 0 0 0 0 0 0 0 0 0 127 0" result="hardAlpha"/>
<feOffset dy="3"/>
<feComposite in2="hardAlpha" operator="arithmetic" k2="-1" k3="1"/>
<feColorMatrix type="matrix" values="0 0 0 0 1 0 0 0 0 1 0 0 0 0 1 0 0 0 0.5 0"/>
<feBlend mode="normal" in2="shape" result="effect1_innerShadow_4_101"/>
<feColorMatrix in="SourceAlpha" type="matrix" values="0 0 0 0 0 0 0 0 0 0 0 0 0 0 0 0 0 0 127 0" result="hardAlpha"/>
<feOffset dy="-3"/>
<feComposite in2="hardAlpha" operator="arithmetic" k2="-1" k3="1"/>
<feColorMatrix type="matrix" values="0 0 0 0 0 0 0 0 0 0 0 0 0 0 0 0 0 0 0.5 0"/>
<feBlend mode="normal" in2="effect1_innerShadow_4_101" result="effect2_innerShadow_4_101"/>
</filter>
</defs>
</svg>
