<svg width="65" height="64" viewBox="0 0 65 64" fill="none" xmlns="http://www.w3.org/2000/svg">
<path d="M32.6351 63.8084C50.227 63.8084 64.4881 49.5473 64.4881 31.9555C64.4881 14.3636 50.227 0.102539 32.6351 0.102539C15.0433 0.102539 0.782227 14.3636 0.782227 31.9555C0.782227 49.5473 15.0433 63.8084 32.6351 63.8084Z" fill="#EA3232"/>
<path d="M32.6353 0.102539C46.3925 0.102539 58.1093 8.82149 62.5646 21.038C58.5091 19.8888 55.1031 20.4634 51.8554 22.4537C48.1079 24.7438 43.1114 21.8958 39.5056 15.1005C35.8997 8.29686 33.0517 16.283 28.8879 21.138C24.7242 25.9929 22.5756 18.2899 24.2412 11.2865C24.4827 10.2788 25.1572 7.20595 23.5583 6.91448C21.7679 6.58971 20.2439 8.22191 19.0364 9.27951C17.5791 10.5453 16.1301 11.911 14.3897 12.7771C12.441 13.7431 10.2842 14.3677 8.17729 14.8923C7.66931 15.0172 7.16133 15.1421 6.65335 15.2587C6.47014 15.3003 5.43752 15.3836 5.35425 15.5252C10.9254 6.28159 21.06 0.102539 32.6353 0.102539Z" fill="#F15A29"/>
<path opacity="0.2" d="M24.6407 62.7927C21.4096 61.9599 18.37 60.6192 15.6219 58.8788C14.8891 58.3874 14.1813 57.8628 13.4901 57.3132C11.0418 55.3562 8.79334 53.1078 6.85302 50.6428C3.039 45.3881 0.782227 38.9342 0.782227 31.9558C0.782227 30.665 0.865502 29.3992 1.0154 28.1501C1.50672 29.3742 2.23122 31.1147 2.44774 31.6393C3.49701 34.2125 3.86342 37.5769 6.37835 39.2424C7.13615 39.742 8.44358 39.6254 9.19306 39.1175C11.2583 37.7184 12.2493 35.1785 13.2569 33.005C13.8149 31.8142 14.2979 30.6067 14.7226 29.3576C14.9308 28.758 15.1722 28.1584 15.3388 27.5421C15.3388 27.5172 15.3471 27.4922 15.3555 27.4672C14.5893 31.148 13.1237 37.9932 16.0966 41.1077C22.2757 47.5699 31.5609 39.0175 33.7594 32.9717C34.6671 30.4734 35.3583 27.4172 35.4415 24.7607C35.1584 33.7295 43.4027 40.7247 51.1806 43.5727C53.4374 44.4055 57.1432 45.0467 59.4832 44.1556C60.4492 43.7892 62.706 42.5151 63.0391 41.4575C63.0224 41.4991 63.0058 41.5491 62.9974 41.5907C62.8725 41.9821 62.7393 42.3652 62.606 42.7483C62.5394 42.9315 62.4645 43.123 62.3978 43.3062C62.2979 43.5644 62.198 43.8225 62.0897 44.0807C62.0064 44.2722 61.9232 44.4637 61.8399 44.6636C61.7316 44.9134 61.6234 45.1549 61.5068 45.3964C61.4235 45.5796 61.3319 45.7712 61.2403 45.9544C61.1071 46.2209 60.9738 46.4873 60.8323 46.7455C60.749 46.8954 60.674 47.0536 60.5908 47.2035C60.3742 47.5949 60.1494 47.9863 59.9246 48.3694C59.833 48.5193 59.7414 48.6608 59.6497 48.8024C59.4915 49.0522 59.3333 49.3021 59.1667 49.5519C59.0585 49.7184 58.9419 49.8767 58.8336 50.0432C58.6754 50.2681 58.5172 50.4929 58.3506 50.7177C58.2341 50.876 58.1175 51.0342 58.0009 51.1924C57.826 51.4256 57.6428 51.6588 57.4513 51.8919C57.343 52.0252 57.2348 52.1584 57.1265 52.2917C56.835 52.6414 56.5436 52.9828 56.2354 53.3159C56.1522 53.4075 56.0689 53.4908 55.9856 53.5824C55.7524 53.8406 55.5109 54.0904 55.2695 54.3319C55.1445 54.4568 55.0113 54.5817 54.8864 54.7066C54.6782 54.9148 54.47 55.1147 54.2535 55.3146C54.1202 55.4395 53.9787 55.5644 53.8371 55.6893C53.6123 55.8892 53.3874 56.089 53.1543 56.2806C53.021 56.3888 52.8961 56.4971 52.7629 56.6053C52.4547 56.8552 52.1383 57.105 51.8135 57.3465C51.7635 57.3881 51.7053 57.4298 51.6553 57.4714C51.2889 57.7462 50.9058 58.0127 50.5311 58.2708C50.3978 58.3624 50.2646 58.4457 50.1397 58.529C49.8732 58.7039 49.6067 58.8787 49.3402 59.037C49.1903 59.1286 49.0404 59.2202 48.8905 59.3118C48.6241 59.47 48.3576 59.6199 48.0828 59.7781C47.9329 59.8614 47.7913 59.9447 47.6414 60.0196C47.3166 60.1945 46.9919 60.3611 46.6671 60.5193C46.5672 60.5693 46.4755 60.6192 46.3756 60.6609C45.9509 60.8607 45.5262 61.0606 45.0848 61.2438C44.9683 61.2937 44.8433 61.3437 44.7184 61.3937C44.3937 61.5269 44.0772 61.6518 43.7441 61.7767C43.5859 61.835 43.4277 61.8933 43.2694 61.9516C42.9696 62.0599 42.6699 62.1598 42.3617 62.2597C42.2035 62.3097 42.037 62.3597 41.8704 62.4096C41.5373 62.5096 41.2042 62.6012 40.8628 62.6928C40.7295 62.7261 40.6046 62.7677 40.4714 62.801C40.005 62.9176 39.5304 63.0259 39.0557 63.1258C38.9641 63.1425 38.8808 63.1591 38.7892 63.1758C38.3978 63.2507 38.0064 63.3257 37.615 63.384C37.4485 63.4089 37.2902 63.4339 37.1237 63.4506C36.7906 63.5005 36.4658 63.5422 36.1327 63.5755C35.9578 63.5922 35.783 63.6171 35.6081 63.6338C35.2667 63.6671 34.9252 63.6921 34.5755 63.7087C34.4172 63.7171 34.259 63.7337 34.1008 63.742C33.6011 63.767 33.1015 63.7837 32.5935 63.7837C30.8447 63.7837 29.021 63.5005 27.2888 63.259C26.3811 63.1341 25.4818 62.9676 24.5907 62.7677L24.6407 62.7927Z" fill="#212A3C"/>
<path opacity="0.3" d="M22.4347 7.8393C18.2126 15.026 23.0176 25.6936 33.1855 31.6644C43.3452 37.6353 55.0121 36.6443 59.2342 29.4576C63.4562 22.271 58.6429 11.595 48.4833 5.63249C38.3237 -0.338367 26.6651 0.652613 22.4347 7.8393Z" fill="url(#paint0_linear_29_4568)"/>
<path opacity="0.3" d="M31.7697 6.90624C29.2465 11.2033 32.5692 17.832 39.1896 21.721C45.81 25.6099 53.2215 25.2852 55.7448 20.9881C58.268 16.6911 54.9537 10.0624 48.3249 6.17341C41.7045 2.28444 34.293 2.60922 31.7697 6.90624Z" fill="white"/>
<defs>
<linearGradient id="paint0_linear_29_4568" x1="57.8808" y1="10.6075" x2="43.5212" y2="28.8849" gradientUnits="userSpaceOnUse">
<stop stop-color="white"/>
<stop offset="1" stop-color="white" stop-opacity="0"/>
</linearGradient>
</defs>
</svg>
