<svg width="1440" height="908" viewBox="0 0 1440 908" fill="none" xmlns="http://www.w3.org/2000/svg">
<path d="M1766.13 667.959C1754.42 661.184 1740.77 660.807 1729.2 665.718C1727.15 663.882 1724.86 662.231 1722.38 660.796C1709.43 653.3 1694.09 653.627 1681.83 660.305C1675.9 647.675 1666.21 636.67 1653.24 629.167C1620.87 610.44 1579.86 620.312 1559.19 650.915C1555.38 646.865 1550.93 643.284 1545.87 640.354C1519.42 625.05 1485.97 632.881 1468.76 657.561C1469.3 642.662 1461.84 627.97 1448.08 620.013C1435.38 612.659 1420.39 612.844 1408.25 619.156C1405.82 608.174 1399 598.213 1388.52 592.153C1385.91 590.639 1383.21 589.453 1380.44 588.572C1381.71 573.039 1374.2 557.453 1359.87 549.158C1348.77 542.74 1335.95 542.056 1324.78 546.193C1321.26 539.961 1316.11 534.56 1309.47 530.721C1299.79 525.122 1288.81 523.894 1278.75 526.417C1278.79 511.995 1271.38 497.977 1258.04 490.26C1257.88 490.169 1257.74 490.084 1257.58 490.011C1258.95 488.32 1260.21 486.494 1261.33 484.554C1272.8 464.641 1266.03 439.192 1246.2 427.721C1243.63 426.233 1240.97 425.055 1238.25 424.178C1240.23 421.997 1242.03 419.579 1243.56 416.918C1255.03 397.005 1248.26 371.556 1228.43 360.085C1212.36 350.79 1192.66 353.523 1179.65 365.479C1178.61 364.741 1177.53 364.042 1176.39 363.386C1156.57 351.914 1131.19 358.759 1119.71 378.672C1113.11 390.14 1112.57 403.448 1117.07 414.862C1102.57 414.714 1088.4 422.195 1080.61 435.703C1076.51 442.818 1074.76 450.643 1075.07 458.282C1065.27 461.223 1056.52 467.771 1051 477.367C1039.52 497.28 1046.3 522.729 1066.13 534.2C1074.62 539.117 1084.14 540.655 1093.15 539.265C1092.35 554.394 1099.82 569.407 1113.79 577.487C1121.49 581.943 1130.01 583.626 1138.25 582.861C1141.77 589.378 1147.07 595.044 1153.94 599.02C1168.08 607.198 1185.03 606.063 1197.75 597.529C1201.27 604.18 1206.62 609.954 1213.6 613.988C1220.76 618.132 1228.65 619.871 1236.34 619.493C1238.8 630.39 1245.6 640.25 1256.01 646.272C1261.44 649.409 1267.28 651.166 1273.12 651.676C1276.49 656.511 1280.93 660.686 1286.35 663.823C1303.27 673.612 1324.21 670.06 1337.13 656.442C1339.9 659.475 1343.17 662.135 1346.91 664.298C1359.62 671.652 1374.61 671.467 1386.75 665.155C1389.18 676.138 1396 686.098 1406.47 692.158C1424 702.298 1445.85 698.118 1458.62 683.255C1455.46 706.174 1466.06 729.762 1487.26 742.026C1511.31 755.94 1541.14 750.734 1559.29 731.124C1565.08 739.583 1572.78 746.896 1582.22 752.358C1614.76 771.183 1656.03 761.128 1676.61 730.141C1677.93 731.135 1679.31 732.068 1680.78 732.919C1692.49 739.694 1706.14 740.071 1717.71 735.159C1719.77 736.995 1722.05 738.646 1724.53 740.082C1744.36 751.553 1769.74 744.708 1781.21 724.795C1792.68 704.882 1785.91 679.433 1766.08 667.962L1766.13 667.959Z" fill="#171932"/>
<path d="M1756.7 672.036C1744.99 665.261 1731.34 664.884 1719.77 669.796C1717.71 667.96 1715.43 666.308 1712.95 664.873C1699.99 657.377 1684.66 657.704 1672.4 664.382C1666.47 651.752 1656.78 640.747 1643.81 633.245C1611.44 614.517 1570.43 624.389 1549.75 654.992C1545.95 650.942 1541.5 647.361 1536.44 644.431C1509.99 629.127 1476.54 636.958 1459.33 661.638C1459.87 646.739 1452.41 632.047 1438.65 624.09C1425.94 616.737 1410.96 616.921 1398.82 623.234C1396.39 612.251 1389.57 602.291 1379.09 596.23C1376.48 594.717 1373.78 593.53 1371.01 592.649C1372.28 577.116 1364.77 561.53 1350.44 553.235C1339.34 546.818 1326.52 546.133 1315.35 550.27C1311.83 544.038 1306.68 538.637 1300.04 534.798C1290.36 529.199 1279.38 527.971 1269.32 530.494C1269.36 516.072 1261.95 502.054 1248.61 494.337C1248.45 494.246 1248.31 494.162 1248.15 494.088C1249.52 492.397 1250.78 490.571 1251.9 488.631C1263.37 468.718 1256.59 443.27 1236.77 431.798C1234.2 430.311 1231.54 429.133 1228.82 428.255C1230.8 426.075 1232.6 423.657 1234.13 420.996C1245.6 401.082 1238.83 375.634 1219 364.162C1202.93 354.867 1183.23 357.6 1170.22 369.557C1169.18 368.818 1168.1 368.119 1166.96 367.463C1147.14 355.992 1121.76 362.837 1110.28 382.75C1103.68 394.217 1103.13 407.525 1107.64 418.939C1093.14 418.792 1078.97 426.272 1071.18 439.78C1067.08 446.895 1065.33 454.721 1065.64 462.36C1055.84 465.3 1047.09 471.848 1041.56 481.444C1030.09 501.357 1036.87 526.806 1056.69 538.277C1065.19 543.195 1074.71 544.732 1083.72 543.342C1082.92 558.471 1090.39 573.484 1104.36 581.565C1112.06 586.021 1120.58 587.703 1128.82 586.938C1132.34 593.455 1137.64 599.122 1144.51 603.097C1158.65 611.275 1175.6 610.14 1188.32 601.606C1191.84 608.257 1197.19 614.032 1204.16 618.065C1211.33 622.21 1219.22 623.948 1226.91 623.57C1229.37 634.467 1236.17 644.327 1246.58 650.349C1252 653.486 1257.85 655.244 1263.69 655.753C1267.06 660.588 1271.5 664.763 1276.92 667.9C1293.84 677.689 1314.78 674.138 1327.7 660.52C1330.47 663.553 1333.74 666.213 1337.48 668.376C1350.19 675.729 1365.18 675.544 1377.32 669.232C1379.75 680.215 1386.57 690.175 1397.04 696.235C1414.57 706.375 1436.42 702.196 1449.19 687.333C1446.03 710.251 1456.63 733.84 1477.83 746.103C1501.88 760.017 1531.7 754.812 1549.86 735.201C1555.64 743.66 1563.35 750.973 1572.79 756.436C1605.33 775.26 1646.6 765.206 1667.18 734.218C1668.5 735.212 1669.88 736.145 1671.35 736.996C1683.06 743.771 1696.71 744.148 1708.28 739.237C1710.34 741.073 1712.62 742.724 1715.1 744.159C1734.93 755.631 1760.31 748.786 1771.78 728.873C1783.25 708.96 1776.48 683.511 1756.65 672.039L1756.7 672.036Z" fill="url(#paint0_linear_29_4107)"/>
<path d="M266.129 357.959C254.418 351.184 240.774 350.807 229.202 355.718C227.146 353.882 224.864 352.231 222.382 350.796C209.426 343.3 194.088 343.627 181.827 350.305C175.901 337.675 166.208 326.67 153.241 319.167C120.872 300.44 79.8563 310.312 59.1856 340.915C55.3815 336.865 50.9328 333.284 45.8693 330.354C19.4176 315.05 -14.0305 322.881 -31.2438 347.561C-30.6985 332.662 -38.1618 317.97 -51.9154 310.013C-64.6247 302.659 -79.6111 302.844 -91.7505 309.156C-94.1803 298.174 -101.002 288.213 -111.477 282.153C-114.093 280.639 -116.792 279.453 -119.563 278.572C-118.293 263.039 -125.795 247.453 -140.133 239.158C-151.225 232.74 -164.05 232.056 -175.22 236.193C-178.741 229.961 -183.892 224.56 -190.527 220.721C-200.205 215.122 -211.189 213.894 -221.251 216.417C-221.205 201.995 -228.622 187.977 -241.96 180.26C-242.117 180.169 -242.263 180.084 -242.416 180.011C-241.052 178.32 -239.79 176.494 -238.673 174.554C-227.2 154.641 -233.975 129.192 -253.802 117.721C-256.373 116.233 -259.033 115.055 -261.746 114.178C-259.771 111.997 -257.974 109.579 -256.441 106.918C-244.968 87.0052 -251.743 61.5563 -271.57 50.0849C-287.636 40.7896 -307.339 43.5225 -320.351 55.4792C-321.393 54.7412 -322.472 54.0417 -323.606 53.3856C-343.433 41.9142 -368.814 48.7593 -380.286 68.6724C-386.893 80.1399 -387.435 93.4477 -382.934 104.862C-397.429 104.714 -411.604 112.195 -419.386 125.703C-423.486 132.818 -425.24 140.643 -424.925 148.282C-434.733 151.223 -443.476 157.771 -449.004 167.367C-460.477 187.28 -453.702 212.729 -433.875 224.2C-425.376 229.117 -415.858 230.655 -406.853 229.265C-407.651 244.394 -400.178 259.407 -386.211 267.487C-378.509 271.943 -369.988 273.626 -361.748 272.861C-358.227 279.378 -352.929 285.044 -346.058 289.02C-331.922 297.198 -314.967 296.063 -302.25 287.529C-298.732 294.18 -293.377 299.954 -286.404 303.988C-279.241 308.132 -271.351 309.871 -263.663 309.493C-261.199 320.39 -254.395 330.25 -243.987 336.272C-238.565 339.409 -232.721 341.166 -226.877 341.676C-223.51 346.511 -219.074 350.686 -213.651 353.823C-196.731 363.612 -175.793 360.06 -162.873 346.442C-160.099 349.475 -156.826 352.135 -153.088 354.298C-140.378 361.652 -125.392 361.467 -113.252 355.155C-110.823 366.138 -104.002 376.098 -93.5264 382.158C-76.0005 392.298 -54.1466 388.118 -41.3769 373.255C-44.5366 396.174 -33.9356 419.762 -12.7383 432.026C11.3107 445.94 41.1359 440.734 59.2904 421.124C65.0755 429.583 72.7781 436.896 82.2203 442.358C114.757 461.183 156.029 451.128 176.606 420.141C177.935 421.135 179.313 422.068 180.784 422.919C192.494 429.694 206.139 430.071 217.711 425.159C219.767 426.995 222.049 428.646 224.53 430.082C244.358 441.553 269.739 434.708 281.211 414.795C292.684 394.882 285.909 369.433 266.082 357.962L266.129 357.959Z" fill="#171932"/>
<path d="M256.697 362.036C244.987 355.261 231.343 354.884 219.771 359.796C217.715 357.96 215.432 356.308 212.951 354.873C199.995 347.377 184.657 347.704 172.396 354.382C166.47 341.752 156.777 330.747 143.81 323.245C111.441 304.517 70.4251 314.389 49.7545 344.992C45.9503 340.942 41.5017 337.361 36.4382 334.431C9.98655 319.127 -23.4616 326.958 -40.6749 351.638C-40.1296 336.739 -47.5929 322.047 -61.3464 314.09C-74.0558 306.737 -89.0422 306.921 -101.182 313.234C-103.611 302.251 -110.433 292.291 -120.908 286.23C-123.524 284.717 -126.224 283.53 -128.994 282.649C-127.725 267.116 -135.227 251.53 -149.564 243.235C-160.656 236.818 -173.481 236.133 -184.651 240.27C-188.172 234.038 -193.323 228.637 -199.959 224.798C-209.637 219.199 -220.62 217.971 -230.682 220.494C-230.636 206.072 -238.053 192.054 -251.391 184.337C-251.548 184.246 -251.694 184.162 -251.847 184.088C-250.483 182.397 -249.221 180.571 -248.104 178.631C-236.631 158.718 -243.406 133.27 -263.233 121.798C-265.805 120.311 -268.464 119.133 -271.177 118.255C-269.202 116.075 -267.405 113.657 -265.872 110.996C-254.399 91.0824 -261.174 65.6336 -281.001 54.1622C-297.068 44.8669 -316.771 47.5998 -329.782 59.5565C-330.824 58.8185 -331.903 58.119 -333.037 57.463C-352.864 45.9915 -378.245 52.8366 -389.717 72.7497C-396.324 84.2172 -396.866 97.525 -392.365 108.939C-406.86 108.792 -421.035 116.272 -428.818 129.78C-432.917 136.895 -434.671 144.721 -434.357 152.36C-444.164 155.3 -452.907 161.848 -458.436 171.444C-469.908 191.357 -463.134 216.806 -443.306 228.277C-434.807 233.195 -425.289 234.732 -416.284 233.342C-417.082 248.471 -409.609 263.484 -395.642 271.565C-387.94 276.021 -379.419 277.703 -371.179 276.938C-367.658 283.455 -362.36 289.122 -355.489 293.097C-341.354 301.275 -324.398 300.14 -311.681 291.606C-308.163 298.257 -302.808 304.032 -295.835 308.065C-288.672 312.21 -280.782 313.948 -273.094 313.57C-270.63 324.467 -263.826 334.327 -253.418 340.349C-247.996 343.486 -242.152 345.244 -236.308 345.753C-232.941 350.588 -228.505 354.763 -223.082 357.9C-206.162 367.689 -185.224 364.138 -172.304 350.52C-169.53 353.553 -166.258 356.213 -162.519 358.376C-149.809 365.729 -134.823 365.544 -122.684 359.232C-120.254 370.215 -113.433 380.175 -102.958 386.235C-85.4316 396.375 -63.5777 392.196 -50.8081 377.333C-53.9677 400.251 -43.3667 423.84 -22.1694 436.103C1.87958 450.017 31.7047 444.812 49.8593 425.201C55.6443 433.66 63.347 440.973 72.7892 446.436C105.326 465.26 146.597 455.206 167.175 424.218C168.504 425.212 169.882 426.145 171.353 426.996C183.063 433.771 196.708 434.148 208.28 429.237C210.336 431.073 212.618 432.724 215.099 434.159C234.927 445.631 260.307 438.786 271.78 418.873C283.253 398.96 276.478 373.511 256.651 362.039L256.697 362.036Z" fill="url(#paint1_linear_29_4107)"/>
<defs>
<linearGradient id="paint0_linear_29_4107" x1="1360.02" y1="445.108" x2="1289.88" y2="578.025" gradientUnits="userSpaceOnUse">
<stop stop-color="#181834"/>
<stop offset="1" stop-color="#0B0B23"/>
</linearGradient>
<linearGradient id="paint1_linear_29_4107" x1="-139.982" y1="135.108" x2="-210.117" y2="268.025" gradientUnits="userSpaceOnUse">
<stop stop-color="#181834"/>
<stop offset="1" stop-color="#0B0B23"/>
</linearGradient>
</defs>
</svg>
