<svg width="64" height="64" viewBox="0 0 64 64" fill="none" xmlns="http://www.w3.org/2000/svg">
<path d="M57.7231 38.2731C61.051 24.1731 52.3185 10.045 38.2185 6.71708C24.1185 3.38917 9.99034 12.1217 6.66243 26.2217C3.33452 40.3217 12.067 54.4499 26.1671 57.7778C40.2671 61.1057 54.3952 52.3732 57.7231 38.2731Z" fill="#E6E7E8"/>
<path d="M29.0628 39.8472C29.0628 43.4079 26.1734 46.3092 22.6007 46.3092C19.028 46.3092 16.1387 43.4199 16.1387 39.8472C16.1387 36.2865 19.028 33.3851 22.6007 33.3851C26.1734 33.3851 29.0628 36.2745 29.0628 39.8472Z" fill="#D1D3D4"/>
<path d="M16.8104 20.1967C16.8104 18.1946 18.4409 16.5641 20.4431 16.5641C22.4452 16.5641 24.0757 18.1946 24.0757 20.1967C24.0757 22.1989 22.4452 23.8294 20.4431 23.8294C18.4409 23.8294 16.8104 22.1989 16.8104 20.1967Z" fill="#A7A9AC"/>
<path d="M14.3645 34.404C14.3645 38.3963 11.8348 41.7772 8.29805 43.084C6.79943 39.7751 5.96021 36.1184 5.96021 32.258C5.96021 29.8602 6.28391 27.5343 6.89534 25.3284C11.1514 26.1676 14.3645 29.9081 14.3645 34.404Z" fill="#D1D3D4"/>
<path d="M49.7677 38.9115C49.7677 38.1082 50.4271 37.4489 51.2303 37.4489C52.0336 37.4489 52.693 38.1082 52.693 38.9115C52.693 39.7148 52.0336 40.3742 51.2303 40.3742C50.4271 40.3742 49.7677 39.7148 49.7677 38.9115Z" fill="#D1D3D4"/>
<path d="M15.3474 27.9418C15.3474 27.1385 16.0068 26.4791 16.8101 26.4791C17.6133 26.4791 18.2727 27.1385 18.2727 27.9418C18.2727 28.745 17.6133 29.4044 16.8101 29.4044C16.0068 29.4044 15.3474 28.745 15.3474 27.9418Z" fill="#D1D3D4"/>
<path d="M48.2574 45.4934C48.2574 47.4955 46.6269 49.126 44.6247 49.126C42.6226 49.126 40.9921 47.4955 40.9921 45.4934C40.9921 43.4912 42.6226 41.8607 44.6247 41.8607C46.6269 41.8607 48.2574 43.4912 48.2574 45.4934Z" fill="#D1D3D4"/>
<path d="M34.2901 14.7061C34.2901 15.9889 33.2471 17.0319 31.9643 17.0319C30.6815 17.0319 29.6384 15.9889 29.6384 14.7061C29.6384 13.4233 30.6815 12.3922 31.9643 12.3922C33.2471 12.3922 34.2901 13.4353 34.2901 14.7061Z" fill="#D1D3D4"/>
<path d="M23.6083 57.0388C24.3516 52.6748 28.1521 49.3539 32.7199 49.3539C37.2877 49.3539 40.8724 52.495 41.7715 56.6671C38.7983 57.8301 35.5732 58.4775 32.1924 58.4775C29.1831 58.4775 26.2938 57.9619 23.6083 57.0388Z" fill="#A7A9AC"/>
<path d="M47.0221 31.6461C44.2886 31.6461 42.0826 29.4281 42.0826 26.7067C42.0826 23.9852 44.3006 21.7672 47.0221 21.7672C49.7436 21.7672 51.9615 23.9852 51.9615 26.7067C51.9615 29.4281 49.7436 31.6461 47.0221 31.6461Z" fill="#A7A9AC"/>
<path d="M31.7122 27.2587C31.7122 26.4554 32.3716 25.796 33.1748 25.796C33.9781 25.796 34.6375 26.4554 34.6375 27.2587C34.6375 28.0619 33.9781 28.7213 33.1748 28.7213C32.3716 28.7213 31.7122 28.0619 31.7122 27.2587Z" fill="#D1D3D4"/>
<path d="M36.352 37.6531C37.6348 37.6531 38.6778 38.6961 38.6778 39.9669C38.6778 41.2378 37.6348 42.2808 36.352 42.2808C35.0691 42.2808 34.0381 41.2378 34.0381 39.9669C34.0381 38.6961 35.0811 37.6531 36.352 37.6531Z" fill="#D1D3D4"/>
<path opacity="0.1" d="M10.9838 16.8278C18.2012 27.8216 34.5421 49.4976 51.4585 50.0491C46.6629 55.2403 39.8052 58.4893 32.1923 58.4893C17.7096 58.4893 5.96045 46.7402 5.96045 32.2575C5.96045 26.4908 7.83072 21.1558 10.9838 16.8278Z" fill="#212A3C"/>
<path opacity="0.1" d="M6.00841 30.6633C13.7053 41.0218 28.6196 56.1998 48.2455 52.9867C43.8096 56.4276 38.2347 58.4777 32.1923 58.4777C17.7096 58.4897 5.96045 46.7405 5.96045 32.2579C5.96045 31.7303 5.98443 31.1908 6.00841 30.6753V30.6633Z" fill="#212A3C"/>
<path opacity="0.3" d="M31.4366 11.6843C29.3625 15.1011 31.9522 20.4482 37.2033 23.6373C42.4665 26.8263 48.401 26.6465 50.4751 23.2416C52.5492 19.8368 49.9596 14.4777 44.7084 11.2887C39.4453 8.0996 33.5107 8.26745 31.4366 11.6843Z" fill="white"/>
</svg>
