<svg width="1295" height="433" viewBox="0 0 1295 433" fill="none" xmlns="http://www.w3.org/2000/svg">
<g clip-path="url(#clip0_29_4107)">
<path d="M685.671 58.1445C685.671 81.0971 668.113 99.7008 646.454 99.7008C646.013 99.7008 645.58 99.6939 645.146 99.6732C624.092 98.9484 607.236 80.6346 607.236 58.1445C607.236 35.6545 630.603 2.67177 645.222 0.856274C645.641 0.80105 646.054 0.773438 646.454 0.773438C662.972 0.773438 685.671 35.192 685.671 58.1445Z" fill="#9945FF"/>
<path d="M647.018 1.18077C646.412 1.0358 645.814 0.925354 645.222 0.856323C636.137 1.98152 623.686 15.2077 615.551 30.4151C620.871 23.7192 627.21 17.5271 632.688 10.6517C636.432 5.82651 641.422 2.67182 647.018 1.18077Z" fill="#9945FF"/>
<path d="M647.018 1.18066C641.429 2.67172 636.432 5.82641 632.688 10.6516C627.203 17.527 620.871 23.7191 615.551 30.415C610.588 39.6858 607.236 49.6952 607.236 58.1445C607.236 80.6346 624.092 98.9483 645.146 99.6731C666.193 98.9483 683.056 80.6346 683.056 58.1445C683.056 35.6544 663.117 5.06017 647.018 1.18066Z" fill="#9945FF"/>
<path d="M758.978 201.831C755.144 207.54 751.903 210.267 748.916 210.86C747.367 211.171 745.88 210.902 744.421 210.177H744.414C742.102 209.031 739.837 206.753 737.435 203.798C730.346 195.101 722.032 180.59 707.606 172.314C706.532 171.699 705.431 171.12 704.351 170.595L697.22 116.565L697.158 116.109C697.943 115.957 698.734 115.819 699.526 115.688C701.811 115.336 704.123 115.094 706.436 114.984C718.164 114.397 730.092 116.979 740.705 123.081C769.096 139.393 777.272 174.626 758.978 201.831Z" fill="white"/>
<path opacity="0.36" d="M756.652 202.708C753.788 206.967 751.256 209.569 748.915 210.86C747.367 211.171 745.88 210.902 744.421 210.177H744.414C742.102 209.031 739.837 206.753 737.435 203.798C730.346 195.101 722.032 180.59 707.606 172.314C706.532 171.699 705.431 171.12 704.35 170.595L697.22 116.565C699.498 116.213 701.804 115.971 704.109 115.861C715.838 115.274 727.765 117.856 738.378 123.958C766.769 140.27 774.946 175.503 756.652 202.708Z" fill="#EFD8D6"/>
<path opacity="0.36" d="M738.826 201.831C738.358 202.528 737.897 203.184 737.435 203.799C730.346 195.101 722.032 180.591 707.606 172.314C706.532 171.699 705.431 171.12 704.351 170.595L697.158 116.109C697.943 115.957 698.734 115.819 699.526 115.688C706.801 116.841 713.931 119.278 720.552 123.081C748.943 139.393 757.12 174.626 738.826 201.831Z" fill="#EFD8D6"/>
<path d="M595.852 116.109L588.667 170.595C587.58 171.12 586.485 171.699 585.411 172.314C566.78 183.007 558.342 204.095 549.574 209.625C544.99 212.524 540.31 211.164 534.039 201.831C515.745 174.626 523.922 139.393 552.306 123.081C563.208 116.813 575.487 114.259 587.518 115.039C590.319 115.212 593.099 115.571 595.852 116.109Z" fill="white"/>
<path opacity="0.36" d="M560.703 123.081C532.312 139.393 524.135 174.626 542.429 201.831C545.052 205.738 547.399 208.244 549.574 209.625C554.006 206.829 558.349 200.071 563.965 192.678C567.317 166.108 572.575 139.821 583.904 115.378C575.879 116.365 567.992 118.891 560.703 123.074V123.081Z" fill="#EFD8D6"/>
<path opacity="0.79" d="M587.518 115.039C586.313 115.115 585.102 115.233 583.904 115.384C572.582 139.828 567.324 166.108 563.965 192.685C569.471 185.443 576.189 177.608 585.412 172.321C586.485 171.706 587.58 171.126 588.667 170.602L595.853 116.116C593.1 115.578 590.319 115.219 587.518 115.046V115.039Z" fill="#EFD8D6"/>
<path d="M646.584 24.7063C627.292 24.7063 610.451 37.8152 605.66 56.5569L570.173 195.467H724.145L687.426 56.2394C682.526 37.6495 665.759 24.7063 646.584 24.7063Z" fill="white"/>
<path opacity="0.36" d="M638.972 36.9799C625.4 36.5795 613.204 48.0248 609.342 64.7922L580.711 189.04L689.037 192.236L666.874 66.2004C663.915 49.3708 652.462 37.3803 638.972 36.9799Z" fill="#EFD8D6"/>
<path opacity="0.36" d="M632.207 44.3868C621.766 43.5723 611.738 54.6171 607.835 71.2396L578.921 194.397L662.242 200.927L652.097 74.4219C650.742 57.5302 642.572 45.2014 632.2 44.3937L632.207 44.3868Z" fill="#EFD8D6"/>
<path d="M646.454 286.483C689.221 286.483 723.89 251.711 723.89 208.817C723.89 165.923 689.221 131.151 646.454 131.151C603.687 131.151 569.017 165.923 569.017 208.817C569.017 251.711 603.687 286.483 646.454 286.483Z" fill="#471B52"/>
<path d="M647.163 276.198C689.181 276.198 723.243 244.63 723.243 205.69C723.243 166.75 689.181 135.182 647.163 135.182C605.144 135.182 571.082 166.75 571.082 205.69C571.082 244.63 605.144 276.198 647.163 276.198Z" fill="#9945FF"/>
<path d="M646.454 304.417C692.342 304.417 729.541 267.108 729.541 221.084C729.541 175.06 692.342 137.75 646.454 137.75C600.566 137.75 563.366 175.06 563.366 221.084C563.366 267.108 600.566 304.417 646.454 304.417Z" fill="white"/>
<path d="M646.454 299.309C689.529 299.309 724.448 264.286 724.448 221.084C724.448 177.881 689.529 142.859 646.454 142.859C603.379 142.859 568.459 177.881 568.459 221.084C568.459 264.286 603.379 299.309 646.454 299.309Z" fill="#151731"/>
<path opacity="0.36" d="M640.342 92.7011C634.946 87.7862 627.657 80.0548 627.409 73.8766C627.038 64.0259 634.705 55.7354 644.513 55.3764C654.334 55.0037 662.587 62.6729 662.958 72.5305C663.206 78.7087 656.502 86.9647 651.492 92.287C648.505 95.4485 643.563 95.628 640.342 92.6942V92.7011Z" fill="#EFD8D6"/>
<path d="M642.255 91.3619C636.845 86.4194 629.543 78.6534 629.24 72.5028C628.786 62.6867 636.336 54.4928 646.075 54.2236C655.835 53.9406 664.101 61.6513 664.548 71.4674C664.844 77.6249 658.257 85.7912 653.329 91.0513C650.391 94.1715 645.476 94.3095 642.255 91.3619Z" fill="#DDDDDD"/>
<path d="M653.336 91.0513C658.264 85.7912 664.858 77.6249 664.555 71.4674C664.101 61.6513 655.842 53.9406 646.082 54.2236C646.006 54.2236 645.931 54.2305 645.855 54.2374C645.937 67.1668 644.368 80.6898 646.736 93.4259C649.117 93.709 651.574 92.922 653.329 91.0582L653.336 91.0513Z" fill="#BCBCBC"/>
<path d="M645.855 54.2305C636.226 54.6171 628.8 62.7558 629.247 72.496C629.543 78.6466 636.852 86.4194 642.262 91.355C643.563 92.5424 645.132 93.2189 646.743 93.4121C644.375 80.683 645.937 67.153 645.862 54.2236L645.855 54.2305Z" fill="#999999"/>
<path d="M664.72 69.9349C664.053 75.9198 657.955 83.382 653.309 88.3108C652.621 89.0356 651.836 89.6016 650.989 90.0158C651.168 89.864 651.333 89.6983 651.499 89.5257C656.144 84.597 662.242 77.1348 662.91 71.1498C662.965 70.6804 662.986 70.2179 662.965 69.7692C662.593 59.9186 654.341 52.2493 644.52 52.6152C641.526 52.7256 638.731 53.5747 636.302 54.9829C639.103 52.8499 642.558 51.5383 646.33 51.4003C656.151 51.0344 664.404 58.7037 664.775 68.5543C664.796 69.003 664.775 69.4655 664.72 69.9349Z" fill="#9945FF"/>
<path d="M662.91 71.1499C662.242 77.1348 656.144 84.597 651.499 89.5257C651.333 89.6983 651.168 89.864 650.989 90.0159H650.982C648.14 91.3896 644.637 90.9754 642.159 88.725C636.887 83.9274 629.811 76.4376 629.254 70.3353C629.24 70.1903 629.233 70.0454 629.226 69.9004C628.999 63.8465 631.807 58.3793 636.288 54.9899C636.295 54.9899 636.302 54.983 636.302 54.983C638.731 53.5747 641.526 52.7257 644.52 52.6152C654.341 52.2494 662.593 59.9186 662.965 69.7693C662.986 70.218 662.965 70.6805 662.91 71.1499Z" fill="#9945FF"/>
<path d="M662.91 71.1499C662.242 77.1348 656.144 84.597 651.499 89.5257C651.333 89.6983 651.168 89.864 650.989 90.0159H650.982C648.14 91.3896 644.637 90.9754 642.159 88.725C636.887 83.9274 629.811 76.4376 629.254 70.3353C629.24 70.1903 629.233 70.0454 629.226 69.9004C628.999 63.8465 631.807 58.3793 636.288 54.9899C636.295 54.9899 636.302 54.983 636.302 54.983C638.731 53.5747 641.526 52.7257 644.52 52.6152C654.341 52.2494 662.593 59.9186 662.965 69.7693C662.986 70.218 662.965 70.6805 662.91 71.1499Z" fill="#9945FF"/>
</g>
<path d="M1005.11 405.793H287.473C331.22 400.438 372.101 390.821 408.638 377.754C507.327 342.493 574.341 282.126 580.663 212.832H580.779C582.755 179.91 611.328 153.802 646.293 153.802C681.258 153.802 709.83 179.91 711.807 212.832H711.923C718.245 282.126 785.259 342.493 883.948 377.754C920.484 390.821 961.366 400.438 1005.11 405.793Z" fill="#272945"/>
<path d="M542.223 298.831C535.461 298.831 529.458 302.081 525.672 307.1C524.323 306.821 522.923 306.678 521.49 306.678C514.008 306.678 507.447 310.657 503.804 316.612C498.085 312.633 491.142 310.299 483.654 310.299C464.963 310.299 449.662 324.83 448.346 343.236C445.688 342.436 442.868 342 439.944 342C424.669 342 412.137 353.755 410.84 368.734C407.359 362.155 400.461 357.669 392.519 357.669C385.18 357.669 378.735 361.498 375.053 367.265C371.26 363.124 365.821 360.523 359.772 360.523C358.261 360.523 356.796 360.686 355.376 360.998C352.05 353.963 344.912 349.1 336.633 349.1C330.228 349.1 324.503 352.013 320.698 356.596C317.618 354.782 314.039 353.736 310.208 353.736C304.619 353.736 299.556 355.953 295.828 359.561C292.249 353.313 285.539 349.106 277.837 349.106C277.746 349.106 277.662 349.106 277.578 349.113C277.746 348.04 277.837 346.935 277.837 345.817C277.837 334.335 268.553 325.025 257.103 325.025C255.619 325.025 254.173 325.181 252.779 325.48C253.09 324.043 253.265 322.548 253.265 321.014C253.265 309.532 243.981 300.222 232.532 300.222C223.254 300.222 215.403 306.333 212.752 314.759C212.116 314.701 211.474 314.668 210.82 314.668C199.37 314.668 190.086 323.978 190.086 335.46C190.086 342.072 193.172 347.962 197.97 351.772C191.655 355.335 187.383 362.116 187.383 369.905C187.383 374.007 188.576 377.83 190.618 381.055C187.104 384.78 184.952 389.799 184.952 395.332C184.952 406.814 194.236 416.124 205.685 416.124C210.593 416.124 215.099 414.407 218.651 411.553C222.081 418.295 229.063 422.918 237.129 422.918C241.576 422.918 245.686 421.513 249.064 419.121C252.215 421.058 255.924 422.183 259.891 422.183C268.054 422.183 275.114 417.45 278.492 410.578C281.675 412.574 285.435 413.731 289.461 413.731C293.487 413.731 297.449 412.509 300.684 410.422C304.47 414.518 309.877 417.079 315.887 417.079C319.018 417.079 321.988 416.377 324.646 415.135C327.31 416.384 330.273 417.079 333.405 417.079C343.175 417.079 351.357 410.305 353.555 401.183C355.513 401.801 357.594 402.133 359.753 402.133C367.092 402.133 373.536 398.303 377.218 392.536C381.011 396.678 386.451 399.278 392.499 399.278C402.62 399.278 411.041 392.003 412.863 382.381C417.213 393.082 427.69 400.631 439.931 400.631C453.818 400.631 465.436 390.917 468.405 377.895C473.021 380.106 478.182 381.341 483.634 381.341C502.423 381.341 517.788 366.667 518.968 348.118C519.791 348.216 520.621 348.274 521.47 348.274C528.232 348.274 534.236 345.024 538.022 340.004C539.371 340.284 540.771 340.427 542.204 340.427C553.653 340.427 562.937 331.117 562.937 319.635C562.937 308.154 553.653 298.844 542.204 298.844L542.223 298.831Z" fill="#272945"/>
<path d="M747.774 298.831C754.536 298.831 760.54 302.081 764.326 307.1C765.674 306.821 767.075 306.678 768.507 306.678C775.989 306.678 782.55 310.657 786.194 316.612C791.912 312.633 798.855 310.299 806.344 310.299C825.035 310.299 840.335 324.83 841.651 343.236C844.309 342.436 847.13 342 850.054 342C865.328 342 877.86 353.755 879.157 368.734C882.638 362.155 889.536 357.669 897.478 357.669C904.817 357.669 911.262 361.498 914.944 367.265C918.737 363.124 924.176 360.523 930.225 360.523C931.736 360.523 933.201 360.686 934.621 360.998C937.947 353.963 945.085 349.1 953.364 349.1C959.769 349.1 965.494 352.013 969.3 356.596C972.379 354.782 975.958 353.736 979.79 353.736C985.378 353.736 990.442 355.953 994.169 359.561C997.748 353.313 1004.46 349.106 1012.16 349.106C1012.25 349.106 1012.34 349.106 1012.42 349.113C1012.25 348.04 1012.16 346.935 1012.16 345.817C1012.16 334.335 1021.44 325.025 1032.89 325.025C1034.38 325.025 1035.82 325.181 1037.22 325.48C1036.91 324.043 1036.73 322.548 1036.73 321.014C1036.73 309.532 1046.02 300.222 1057.47 300.222C1066.74 300.222 1074.59 306.333 1077.25 314.759C1077.88 314.701 1078.52 314.668 1079.18 314.668C1090.63 314.668 1099.91 323.978 1099.91 335.46C1099.91 342.072 1096.82 347.962 1092.03 351.772C1098.34 355.335 1102.61 362.116 1102.61 369.905C1102.61 374.007 1101.42 377.83 1099.38 381.055C1102.89 384.78 1105.05 389.799 1105.05 395.332C1105.05 406.814 1095.76 416.124 1084.31 416.124C1079.4 416.124 1074.9 414.407 1071.35 411.553C1067.92 418.295 1060.93 422.918 1052.87 422.918C1048.42 422.918 1044.31 421.513 1040.93 419.121C1037.78 421.058 1034.07 422.183 1030.11 422.183C1021.94 422.183 1014.88 417.45 1011.51 410.578C1008.32 412.574 1004.56 413.731 1000.54 413.731C996.4 413.731 992.549 412.509 989.314 410.422C985.527 414.518 980.12 417.079 974.11 417.079C970.979 417.079 968.01 416.377 965.351 415.135C962.687 416.384 959.724 417.079 956.593 417.079C946.822 417.079 938.641 410.305 936.443 401.183C934.485 401.801 932.404 402.133 930.245 402.133C922.906 402.133 916.461 398.303 912.779 392.536C908.986 396.678 903.547 399.278 897.498 399.278C887.378 399.278 878.956 392.003 877.134 382.381C872.784 393.082 862.307 400.631 850.067 400.631C836.179 400.631 824.561 390.917 821.592 377.895C816.976 380.106 811.815 381.341 806.363 381.341C787.575 381.341 772.209 366.667 771.029 348.118C770.206 348.216 769.376 348.274 768.527 348.274C761.765 348.274 755.761 345.024 751.975 340.004C750.627 340.284 749.226 340.427 747.793 340.427C736.344 340.427 727.06 331.117 727.06 319.635C727.06 308.154 736.344 298.844 747.793 298.844L747.774 298.831Z" fill="#272945"/>
<path d="M545.285 302.953C538.523 302.953 532.519 306.203 528.733 311.222C527.385 310.943 525.984 310.8 524.552 310.8C517.07 310.8 510.509 314.779 506.865 320.734C501.147 316.755 494.203 314.421 486.715 314.421C468.024 314.421 452.724 328.952 451.408 347.358C448.75 346.558 445.929 346.122 443.005 346.122C427.731 346.122 415.199 357.877 413.902 372.856C410.421 366.277 403.522 361.791 395.58 361.791C388.241 361.791 381.797 365.62 378.115 371.387C374.322 367.246 368.883 364.645 362.834 364.645C361.323 364.645 359.858 364.808 358.438 365.12C355.112 358.085 347.974 353.222 339.695 353.222C333.29 353.222 327.565 356.135 323.759 360.718C320.68 358.904 317.101 357.857 313.269 357.857C307.681 357.857 302.617 360.074 298.889 363.683C295.311 357.435 288.601 353.228 280.899 353.228C280.808 353.228 280.723 353.228 280.639 353.235C280.808 352.162 280.899 351.057 280.899 349.939C280.899 338.457 271.615 329.147 260.165 329.147C258.68 329.147 257.235 329.303 255.841 329.602C256.152 328.165 256.327 326.67 256.327 325.136C256.327 313.654 247.043 304.344 235.594 304.344C226.316 304.344 218.465 310.455 215.813 318.881C215.178 318.823 214.536 318.79 213.881 318.79C202.432 318.79 193.148 328.1 193.148 339.582C193.148 346.194 196.234 352.084 201.032 355.894C194.717 359.457 190.444 366.238 190.444 374.027C190.444 378.129 191.637 381.952 193.68 385.177C190.166 388.902 188.013 393.921 188.013 399.454C188.013 410.936 197.297 420.246 208.747 420.246C213.654 420.246 218.16 418.529 221.713 415.675C225.143 422.417 232.125 427.04 240.19 427.04C244.638 427.04 248.748 425.635 252.126 423.243C255.277 425.18 258.985 426.305 262.953 426.305C271.115 426.305 278.176 421.572 281.553 414.7C284.737 416.696 288.497 417.853 292.523 417.853C296.549 417.853 300.51 416.631 303.745 414.544C307.532 418.64 312.939 421.201 318.949 421.201C322.08 421.201 325.049 420.499 327.707 419.257C330.372 420.506 333.335 421.201 336.466 421.201C346.237 421.201 354.418 414.427 356.616 405.305C358.574 405.923 360.655 406.254 362.814 406.254C370.153 406.254 376.598 402.425 380.28 396.658C384.073 400.8 389.512 403.4 395.561 403.4C405.681 403.4 414.103 396.125 415.925 386.503C420.275 397.204 430.752 404.753 442.992 404.753C456.879 404.753 468.497 395.039 471.467 382.017C476.083 384.227 481.243 385.463 486.696 385.463C505.484 385.463 520.85 370.789 522.03 352.24C522.853 352.338 523.683 352.396 524.532 352.396C531.294 352.396 537.298 349.145 541.084 344.126C542.432 344.406 543.833 344.549 545.265 344.549C556.715 344.549 565.999 335.239 565.999 323.757C565.999 312.276 556.715 302.966 545.265 302.966L545.285 302.953Z" fill="url(#paint0_linear_29_4107)"/>
<path d="M750.842 302.953C757.604 302.953 763.608 306.203 767.394 311.222C768.743 310.943 770.143 310.8 771.576 310.8C779.057 310.8 785.618 314.779 789.262 320.734C794.98 316.755 801.924 314.421 809.412 314.421C828.103 314.421 843.404 328.952 844.72 347.358C847.378 346.558 850.198 346.122 853.122 346.122C868.396 346.122 880.928 357.877 882.225 372.856C885.707 366.277 892.605 361.791 900.547 361.791C907.886 361.791 914.33 365.62 918.013 371.387C921.805 367.246 927.245 364.645 933.294 364.645C934.804 364.645 936.269 364.808 937.689 365.12C941.015 358.085 948.153 353.222 956.432 353.222C962.838 353.222 968.562 356.135 972.368 360.718C975.448 358.904 979.026 357.857 982.858 357.857C988.446 357.857 993.51 360.074 997.238 363.683C1000.82 357.435 1007.53 353.228 1015.23 353.228C1015.32 353.228 1015.4 353.228 1015.49 353.235C1015.32 352.162 1015.23 351.057 1015.23 349.939C1015.23 338.457 1024.51 329.147 1035.96 329.147C1037.45 329.147 1038.89 329.303 1040.29 329.602C1039.98 328.165 1039.8 326.67 1039.8 325.136C1039.8 313.654 1049.08 304.344 1060.53 304.344C1069.81 304.344 1077.66 310.455 1080.31 318.881C1080.95 318.823 1081.59 318.79 1082.25 318.79C1093.7 318.79 1102.98 328.1 1102.98 339.582C1102.98 346.194 1099.89 352.084 1095.1 355.894C1101.41 359.457 1105.68 366.238 1105.68 374.027C1105.68 378.129 1104.49 381.952 1102.45 385.177C1105.96 388.902 1108.11 393.921 1108.11 399.454C1108.11 410.936 1098.83 420.246 1087.38 420.246C1082.47 420.246 1077.97 418.529 1074.41 415.675C1070.98 422.417 1064 427.04 1055.94 427.04C1051.49 427.04 1047.38 425.635 1044 423.243C1040.85 425.18 1037.14 426.305 1033.17 426.305C1025.01 426.305 1017.95 421.572 1014.57 414.7C1011.39 416.696 1007.63 417.853 1003.6 417.853C999.468 417.853 995.617 416.631 992.382 414.544C988.596 418.64 983.189 421.201 977.179 421.201C974.047 421.201 971.078 420.499 968.42 419.257C965.755 420.506 962.792 421.201 959.661 421.201C949.891 421.201 941.709 414.427 939.511 405.305C937.553 405.923 935.472 406.254 933.313 406.254C925.974 406.254 919.53 402.425 915.847 396.658C912.054 400.8 906.615 403.4 900.566 403.4C890.446 403.4 882.024 396.125 880.202 386.503C875.852 397.204 865.375 404.753 853.135 404.753C839.248 404.753 827.63 395.039 824.66 382.017C820.044 384.227 814.884 385.463 809.431 385.463C790.643 385.463 775.278 370.789 774.098 352.24C773.274 352.338 772.444 352.396 771.595 352.396C764.833 352.396 758.83 349.145 755.043 344.126C753.695 344.406 752.295 344.549 750.862 344.549C739.412 344.549 730.128 335.239 730.128 323.757C730.128 312.276 739.412 302.966 750.862 302.966L750.842 302.953Z" fill="url(#paint1_linear_29_4107)"/>
<path d="M1294.84 424.47L1038.25 415.122L1019.25 418.269C1019.25 418.269 1001.32 417.122 993.28 418.269C985.24 419.415 971.015 423.709 971.015 423.709H864.766C864.766 423.709 851.063 417.092 836.647 417.122C822.231 417.152 807.691 423.709 807.691 423.709L255.574 421.835L199.962 432.039L1.0308 424.47C-4.54242 372.381 172.409 406.517 402.972 384.926C505.753 350.544 576.25 289.608 582.676 219.453H582.789C584.717 187.416 612.622 162.009 646.774 162.009C680.926 162.009 708.831 187.416 710.759 219.453H710.872C717.298 289.608 787.796 350.544 890.576 384.926C1131.78 396.038 1294.84 384.926 1294.84 424.47Z" fill="url(#paint2_linear_29_4107)"/>
<path opacity="0.25" d="M646.355 281.335C678.421 281.335 704.415 255.487 704.415 223.603C704.415 191.718 678.421 165.87 646.355 165.87C614.289 165.87 588.294 191.718 588.294 223.603C588.294 255.487 614.289 281.335 646.355 281.335Z" fill="url(#paint3_radial_29_4107)"/>
<path d="M681.412 219.125C681.412 219.247 681.412 219.376 681.405 219.498C681.154 205.015 665.988 193.338 647.323 193.338C628.657 193.338 613.491 205.015 613.24 219.498C613.234 219.376 613.234 219.247 613.234 219.125C613.234 204.474 628.495 192.593 647.323 192.593C666.15 192.593 681.412 204.474 681.412 219.125Z" fill="white"/>
<path d="M681.412 219.87C681.412 234.528 666.15 246.403 647.323 246.403C628.495 246.403 613.234 234.528 613.234 219.87C613.234 219.748 613.234 219.62 613.24 219.498C613.491 205.015 628.657 193.338 647.323 193.338C665.988 193.338 681.154 205.015 681.405 219.498C681.412 219.62 681.412 219.748 681.412 219.87Z" fill="#3A1643"/>
<path opacity="0.7" d="M679.429 227.057C679.429 243.991 651.275 321.408 647.323 321.408C643.803 321.408 615.217 243.991 615.217 227.057C615.217 210.123 629.591 196.393 647.323 196.393C665.054 196.393 679.429 210.123 679.429 227.057Z" fill="#FFC65B"/>
<path opacity="0.8" d="M680.396 221.367C682.474 237.279 664.019 312.995 660.093 313.415C656.601 313.787 618.702 244.079 616.624 228.168C614.547 212.257 627.134 197.835 644.744 195.952C662.354 194.076 678.319 205.449 680.396 221.36V221.367Z" fill="#D98C05"/>
<path opacity="0.8" d="M678.508 226.061C676.173 240.293 637.651 301.615 633.74 301.094C630.261 300.626 612.651 231.785 614.986 217.554C617.321 203.322 633.435 193.69 650.977 196.04C668.519 198.391 680.85 211.83 678.515 226.061H678.508Z" fill="#F8A60A"/>
<defs>
<linearGradient id="paint0_linear_29_4107" x1="373.213" y1="319.629" x2="377.011" y2="397.341" gradientUnits="userSpaceOnUse">
<stop stop-color="#181834"/>
<stop offset="1" stop-color="#0B0B23"/>
</linearGradient>
<linearGradient id="paint1_linear_29_4107" x1="915.328" y1="319.629" x2="919.126" y2="397.341" gradientUnits="userSpaceOnUse">
<stop stop-color="#181834"/>
<stop offset="1" stop-color="#0B0B23"/>
</linearGradient>
<linearGradient id="paint2_linear_29_4107" x1="646.774" y1="304.116" x2="646.774" y2="414.577" gradientUnits="userSpaceOnUse">
<stop stop-color="#181834"/>
<stop offset="1" stop-color="#0B0B23"/>
</linearGradient>
<radialGradient id="paint3_radial_29_4107" cx="0" cy="0" r="1" gradientUnits="userSpaceOnUse" gradientTransform="translate(646.355 223.603) scale(57.8708 57.9218)">
<stop stop-color="#FB9925" stop-opacity="0.8"/>
<stop offset="0.44" stop-color="#FB9925" stop-opacity="0.79"/>
<stop offset="0.6" stop-color="#FB9925" stop-opacity="0.77"/>
<stop offset="0.71" stop-color="#FB9925" stop-opacity="0.72"/>
<stop offset="0.8" stop-color="#FFBD70" stop-opacity="0.66"/>
<stop offset="0.88" stop-color="#FFCF96" stop-opacity="0.57"/>
<stop offset="0.94" stop-color="#FFD29C" stop-opacity="0.47"/>
<stop offset="1" stop-color="white" stop-opacity="0.36"/>
</radialGradient>
<clipPath id="clip0_29_4107">
<rect width="244.458" height="303.644" fill="white" transform="translate(524.28 0.773438)"/>
</clipPath>
</defs>
</svg>
