<svg width="1252" height="1226" viewBox="0 0 1252 1226" fill="none" xmlns="http://www.w3.org/2000/svg">
<g opacity="0.2">
<path d="M1168.69 6.90858C1166.84 6.90858 1165.33 5.40478 1165.33 3.54975C1165.33 1.69472 1166.84 0.190918 1168.69 0.190918C1170.55 0.190918 1172.05 1.69472 1172.05 3.54975C1172.05 5.40478 1170.55 6.90858 1168.69 6.90858Z" fill="white"/>
<path d="M86.0882 337.897C87.8983 337.897 89.3658 336.43 89.3658 334.62C89.3658 332.81 87.8983 331.343 86.0882 331.343C84.278 331.343 82.8105 332.81 82.8105 334.62C82.8105 336.43 84.278 337.897 86.0882 337.897Z" fill="white"/>
<path d="M1242.53 172.805C1242.16 170.988 1243.33 169.213 1245.15 168.84C1246.97 168.468 1248.74 169.639 1249.12 171.457C1249.49 173.274 1248.32 175.049 1246.5 175.422C1244.68 175.794 1242.91 174.623 1242.53 172.805Z" fill="white"/>
<path d="M14.0448 499.755C14.4082 497.982 13.2651 496.25 11.4916 495.886C9.71805 495.523 7.98575 496.666 7.62235 498.439C7.25895 500.212 8.40206 501.944 10.1756 502.308C11.9491 502.671 13.6814 501.528 14.0448 499.755Z" fill="white"/>
<path d="M1244.78 366.817C1244.78 368.67 1246.29 370.176 1248.14 370.176C1249.99 370.176 1251.5 368.67 1251.5 366.817C1251.5 364.965 1249.99 363.458 1248.14 363.458C1246.29 363.458 1244.78 364.965 1244.78 366.817Z" fill="white"/>
<path d="M11.8511 689.044C11.8511 690.851 10.381 692.321 8.57351 692.321C6.76605 692.321 5.2959 690.851 5.2959 689.044C5.2959 687.237 6.76605 685.767 8.57351 685.767C10.381 685.767 11.8511 687.237 11.8511 689.044Z" fill="white"/>
<path d="M1182.61 491.433C1182.61 493.285 1184.12 494.791 1185.97 494.791C1187.82 494.791 1189.33 493.285 1189.33 491.433C1189.33 489.58 1187.82 488.074 1185.97 488.074C1184.12 488.074 1182.61 489.58 1182.61 491.433Z" fill="white"/>
<path d="M72.5103 810.626C72.5103 812.433 71.0401 813.903 69.2327 813.903C67.4252 813.903 65.9551 812.433 65.9551 810.626C65.9551 808.819 67.4252 807.349 69.2327 807.349C71.0401 807.349 72.5103 808.819 72.5103 810.626Z" fill="white"/>
<path d="M967.366 638.496C966.054 637.184 966.054 635.057 967.366 633.745C968.678 632.434 970.805 632.434 972.117 633.745C973.429 635.057 973.429 637.184 972.117 638.496C970.805 639.807 968.678 639.807 967.366 638.496Z" fill="white"/>
<path d="M282.512 954.108C283.792 952.828 283.792 950.753 282.512 949.473C281.232 948.193 279.157 948.193 277.877 949.473C276.597 950.753 276.597 952.828 277.877 954.108C279.157 955.388 281.232 955.388 282.512 954.108Z" fill="white"/>
<path d="M892.5 774.369C891.188 773.057 891.188 770.93 892.5 769.618C893.812 768.307 895.939 768.307 897.251 769.618C898.563 770.93 898.563 773.057 897.251 774.369C895.939 775.681 893.812 775.681 892.5 774.369Z" fill="white"/>
<path d="M355.555 1086.67C356.835 1085.39 356.835 1083.32 355.555 1082.04C354.275 1080.76 352.2 1080.76 350.92 1082.04C349.64 1083.32 349.64 1085.39 350.92 1086.67C352.2 1087.95 354.275 1087.95 355.555 1086.67Z" fill="white"/>
<path d="M927.783 832.343C927.358 830.537 928.478 828.728 930.284 828.303C932.09 827.879 933.899 828.998 934.324 830.804C934.749 832.61 933.629 834.418 931.823 834.843C930.017 835.268 928.208 834.149 927.783 832.343Z" fill="white"/>
<path d="M321.131 1143.24C321.546 1141.47 320.454 1139.71 318.691 1139.3C316.929 1138.88 315.164 1139.97 314.75 1141.74C314.335 1143.5 315.428 1145.26 317.19 1145.68C318.952 1146.09 320.717 1145 321.131 1143.24Z" fill="white"/>
<path d="M947.766 883.102C945.91 883.102 944.406 881.598 944.406 879.743C944.406 877.888 945.91 876.384 947.766 876.384C949.621 876.384 951.125 877.888 951.125 879.743C951.125 881.598 949.621 883.102 947.766 883.102Z" fill="white"/>
<path d="M301.635 1192.76C303.445 1192.76 304.913 1191.29 304.913 1189.48C304.913 1187.67 303.445 1186.2 301.635 1186.2C299.825 1186.2 298.357 1187.67 298.357 1189.48C298.357 1191.29 299.825 1192.76 301.635 1192.76Z" fill="white"/>
<path d="M776.62 915.967C774.778 915.741 773.469 914.064 773.696 912.223C773.923 910.382 775.599 909.073 777.441 909.3C779.282 909.527 780.591 911.203 780.364 913.044C780.138 914.885 778.461 916.194 776.62 915.967Z" fill="white"/>
<path d="M468.614 1224.82C470.411 1224.6 471.688 1222.97 471.467 1221.17C471.245 1219.38 469.61 1218.1 467.813 1218.32C466.016 1218.54 464.739 1220.18 464.961 1221.97C465.182 1223.77 466.818 1225.05 468.614 1224.82Z" fill="white"/>
<path d="M575.261 843.097C575.261 844.949 576.767 846.456 578.62 846.456C580.473 846.456 581.979 844.949 581.979 843.097C581.979 841.244 580.473 839.738 578.62 839.738C576.767 839.738 575.261 841.244 575.261 843.097Z" fill="white"/>
<path d="M665.071 1153.73C665.071 1155.53 663.601 1157 661.793 1157C659.986 1157 658.516 1155.53 658.516 1153.73C658.516 1151.92 659.986 1150.45 661.793 1150.45C663.601 1150.45 665.071 1151.92 665.071 1153.73Z" fill="white"/>
<path d="M494.082 507.662C492.226 507.662 490.722 506.159 490.722 504.304C490.722 502.449 492.226 500.945 494.082 500.945C495.937 500.945 497.441 502.449 497.441 504.304C497.441 506.159 495.937 507.662 494.082 507.662Z" fill="white"/>
<path d="M744.274 826.46C746.084 826.46 747.551 824.993 747.551 823.183C747.551 821.373 746.084 819.906 744.274 819.906C742.464 819.906 740.996 821.373 740.996 823.183C740.996 824.993 742.464 826.46 744.274 826.46Z" fill="white"/>
<path d="M468.754 184.056C467.442 182.745 467.442 180.618 468.754 179.306C470.066 177.994 472.193 177.994 473.505 179.306C474.817 180.618 474.817 182.745 473.505 184.056C472.193 185.368 470.066 185.368 468.754 184.056Z" fill="white"/>
<path d="M768.985 510.733C770.265 509.453 770.265 507.378 768.985 506.098C767.705 504.818 765.63 504.818 764.349 506.098C763.069 507.378 763.069 509.453 764.349 510.733C765.63 512.013 767.705 512.013 768.985 510.733Z" fill="white"/>
<path d="M375.681 162.286C375.681 164.138 377.188 165.645 379.04 165.645C380.893 165.645 382.4 164.138 382.4 162.286C382.4 160.434 380.893 158.927 379.04 158.927C377.188 158.927 375.681 160.434 375.681 162.286Z" fill="white"/>
<path d="M859.791 489.493C859.791 491.301 858.321 492.77 856.513 492.77C854.706 492.77 853.236 491.301 853.236 489.493C853.236 487.686 854.706 486.216 856.513 486.216C858.321 486.216 859.791 487.686 859.791 489.493Z" fill="white"/>
<path d="M179.61 229.036C179.478 227.185 180.872 225.578 182.723 225.447C184.573 225.315 186.181 226.708 186.312 228.559C186.444 230.41 185.05 232.016 183.2 232.148C181.349 232.28 179.741 230.886 179.61 229.036Z" fill="white"/>
<path d="M1051.09 554.618C1051.22 552.812 1049.86 551.244 1048.05 551.116C1046.25 550.987 1044.68 552.347 1044.55 554.152C1044.42 555.958 1045.78 557.526 1047.59 557.654C1049.39 557.782 1050.96 556.423 1051.09 554.618Z" fill="white"/>
<path d="M162.394 394.194C162.394 396.047 163.901 397.553 165.753 397.553C167.606 397.553 169.113 396.047 169.113 394.194C169.113 392.342 167.606 390.835 165.753 390.835C163.901 390.835 162.394 392.342 162.394 394.194Z" fill="white"/>
<path d="M1067.89 715.755C1067.89 717.562 1066.42 719.032 1064.61 719.032C1062.8 719.032 1061.33 717.562 1061.33 715.755C1061.33 713.948 1062.8 712.478 1064.61 712.478C1066.42 712.478 1067.89 713.948 1067.89 715.755Z" fill="white"/>
<path d="M856.858 328.506C855.546 327.194 855.546 325.067 856.858 323.755C858.17 322.443 860.297 322.443 861.609 323.755C862.921 325.067 862.921 327.194 861.609 328.506C860.297 329.817 858.17 329.817 856.858 328.506Z" fill="white"/>
<path d="M390.329 651.665C391.609 650.385 391.609 648.31 390.329 647.03C389.049 645.75 386.974 645.75 385.694 647.03C384.414 648.31 384.414 650.385 385.694 651.665C386.974 652.944 389.049 652.944 390.329 651.665Z" fill="white"/>
<path d="M899.094 279.89C899.094 281.742 900.601 283.248 902.453 283.248C904.306 283.248 905.812 281.742 905.812 279.89C905.812 278.037 904.306 276.531 902.453 276.531C900.601 276.531 899.094 278.037 899.094 279.89Z" fill="white"/>
<path d="M349.122 604.234C349.122 606.041 347.652 607.511 345.844 607.511C344.037 607.511 342.567 606.041 342.567 604.234C342.567 602.426 344.037 600.957 345.844 600.957C347.652 600.957 349.122 602.426 349.122 604.234Z" fill="white"/>
<path d="M637.964 222.4C636.652 221.088 636.652 218.961 637.964 217.65C639.276 216.338 641.403 216.338 642.715 217.65C644.027 218.961 644.027 221.088 642.715 222.4C641.403 223.712 639.276 223.712 637.964 222.4Z" fill="white"/>
<path d="M603.895 548.143C605.175 546.863 605.175 544.788 603.895 543.508C602.615 542.228 600.539 542.228 599.259 543.508C597.979 544.788 597.979 546.863 599.259 548.143C600.539 549.423 602.615 549.423 603.895 548.143Z" fill="white"/>
<path d="M324.645 201.712C324.645 203.564 326.151 205.071 328.004 205.071C329.857 205.071 331.363 203.564 331.363 201.712C331.363 199.86 329.857 198.353 328.004 198.353C326.151 198.353 324.645 199.86 324.645 201.712Z" fill="white"/>
<path d="M909.585 527.958C909.585 529.765 908.115 531.235 906.308 531.235C904.5 531.235 903.03 529.765 903.03 527.958C903.03 526.151 904.5 524.681 906.308 524.681C908.115 524.681 909.585 526.151 909.585 527.958Z" fill="white"/>
<path d="M56.8339 281.231C56.8339 283.084 58.3408 284.59 60.1933 284.59C62.0459 284.59 63.5527 283.084 63.5527 281.231C63.5527 279.379 62.0459 277.873 60.1933 277.873C58.3408 277.873 56.8339 279.379 56.8339 281.231Z" fill="white"/>
<path d="M1170.88 605.542C1170.88 607.349 1169.41 608.819 1167.6 608.819C1165.79 608.819 1164.32 607.349 1164.32 605.542C1164.32 603.735 1165.79 602.265 1167.6 602.265C1169.41 602.265 1170.88 603.735 1170.88 605.542Z" fill="white"/>
<path d="M0.0615225 251.378C0.0615225 253.23 1.56838 254.737 3.42094 254.737C5.2735 254.737 6.78027 253.23 6.78027 251.378C6.78027 249.526 5.2735 248.019 3.42094 248.019C1.56838 248.019 0.0615225 249.526 0.0615225 251.378Z" fill="white"/>
<path d="M1226.27 576.415C1226.27 578.222 1224.8 579.692 1222.99 579.692C1221.18 579.692 1219.71 578.222 1219.71 576.415C1219.71 574.608 1221.18 573.138 1222.99 573.138C1224.8 573.138 1226.27 574.608 1226.27 576.415Z" fill="white"/>
<path d="M8.16917 231.941C6.85718 230.629 6.85716 228.502 8.16916 227.191C9.48115 225.879 11.6083 225.879 12.9203 227.191C14.2323 228.503 14.2323 230.629 12.9203 231.941C11.6083 233.253 9.48116 233.253 8.16917 231.941Z" fill="white"/>
<path d="M1218.36 557.452C1219.64 556.172 1219.64 554.097 1218.36 552.817C1217.08 551.537 1215 551.537 1213.72 552.817C1212.44 554.097 1212.44 556.172 1213.72 557.452C1215 558.731 1217.08 558.731 1218.36 557.452Z" fill="white"/>
<path d="M105.394 312.811C105.394 314.664 106.901 316.17 108.754 316.17C110.606 316.17 112.113 314.664 112.113 312.811C112.113 310.959 110.606 309.453 108.754 309.453C106.901 309.453 105.394 310.959 105.394 312.811Z" fill="white"/>
<path d="M1123.5 636.353C1123.5 638.16 1122.03 639.63 1120.22 639.63C1118.41 639.63 1116.94 638.16 1116.94 636.353C1116.94 634.546 1118.41 633.076 1120.22 633.076C1122.03 633.076 1123.5 634.546 1123.5 636.353Z" fill="white"/>
<path d="M195.666 485.585C195.666 487.437 197.173 488.944 199.026 488.944C200.878 488.944 202.385 487.437 202.385 485.585C202.385 483.733 200.878 482.226 199.026 482.226C197.173 482.226 195.666 483.733 195.666 485.585Z" fill="white"/>
<path d="M1035.42 804.921C1035.42 806.728 1033.95 808.198 1032.15 808.198C1030.34 808.198 1028.87 806.728 1028.87 804.921C1028.87 803.114 1030.34 801.644 1032.15 801.644C1033.95 801.644 1035.42 803.114 1035.42 804.921Z" fill="white"/>
<path d="M437.563 490.88C437.563 492.732 439.07 494.239 440.922 494.239C442.775 494.239 444.282 492.732 444.282 490.88C444.282 489.028 442.775 487.521 440.922 487.521C439.07 487.521 437.563 489.028 437.563 490.88Z" fill="white"/>
<path d="M799.416 810.087C799.416 811.894 797.946 813.364 796.138 813.364C794.331 813.364 792.861 811.894 792.861 810.087C792.861 808.28 794.331 806.81 796.138 806.81C797.946 806.81 799.416 808.28 799.416 810.087Z" fill="white"/>
</g>
</svg>
