<svg width="1440" height="1106" viewBox="0 0 1440 1106" fill="none" xmlns="http://www.w3.org/2000/svg">
<g opacity="0.2">
<path d="M1289.69 88.91C1287.84 88.91 1286.33 87.4062 1286.33 85.5512C1286.33 83.6962 1287.84 82.1924 1289.69 82.1924C1291.55 82.1924 1293.05 83.6962 1293.05 85.5512C1293.05 87.4062 1291.55 88.91 1289.69 88.91Z" fill="white"/>
<path d="M1363.53 254.807C1363.16 252.989 1364.33 251.214 1366.15 250.842C1367.97 250.469 1369.74 251.641 1370.12 253.458C1370.49 255.276 1369.32 257.051 1367.5 257.423C1365.68 257.796 1363.91 256.624 1363.53 254.807Z" fill="white"/>
<path d="M1365.78 448.819C1365.78 450.671 1367.29 452.178 1369.14 452.178C1370.99 452.178 1372.5 450.671 1372.5 448.819C1372.5 446.967 1370.99 445.46 1369.14 445.46C1367.29 445.46 1365.78 446.967 1365.78 448.819Z" fill="white"/>
<path d="M1303.61 573.434C1303.61 575.286 1305.12 576.793 1306.97 576.793C1308.82 576.793 1310.33 575.286 1310.33 573.434C1310.33 571.582 1308.82 570.075 1306.97 570.075C1305.12 570.075 1303.61 571.582 1303.61 573.434Z" fill="white"/>
<path d="M1088.37 720.497C1087.05 719.185 1087.05 717.058 1088.37 715.747C1089.68 714.435 1091.81 714.435 1093.12 715.747C1094.43 717.058 1094.43 719.185 1093.12 720.497C1091.81 721.809 1089.68 721.809 1088.37 720.497Z" fill="white"/>
<path d="M1013.5 856.37C1012.19 855.059 1012.19 852.932 1013.5 851.62C1014.81 850.308 1016.94 850.308 1018.25 851.62C1019.56 852.932 1019.56 855.059 1018.25 856.37C1016.94 857.682 1014.81 857.682 1013.5 856.37Z" fill="white"/>
<path d="M1048.78 914.344C1048.36 912.538 1049.48 910.73 1051.28 910.305C1053.09 909.88 1054.9 910.999 1055.32 912.805C1055.75 914.611 1054.63 916.42 1052.82 916.845C1051.02 917.269 1049.21 916.15 1048.78 914.344Z" fill="white"/>
<path d="M1068.77 965.103C1066.91 965.103 1065.41 963.6 1065.41 961.745C1065.41 959.89 1066.91 958.386 1068.77 958.386C1070.62 958.386 1072.12 959.89 1072.12 961.745C1072.12 963.6 1070.62 965.103 1068.77 965.103Z" fill="white"/>
<path d="M897.62 997.969C895.778 997.742 894.469 996.066 894.696 994.225C894.923 992.383 896.599 991.075 898.441 991.301C900.282 991.528 901.591 993.204 901.364 995.046C901.138 996.887 899.461 998.195 897.62 997.969Z" fill="white"/>
<path d="M696.261 925.098C696.261 926.95 697.767 928.457 699.62 928.457C701.473 928.457 702.979 926.95 702.979 925.098C702.979 923.246 701.473 921.739 699.62 921.739C697.767 921.739 696.261 923.246 696.261 925.098Z" fill="white"/>
<path d="M615.082 589.664C613.226 589.664 611.722 588.16 611.722 586.305C611.722 584.45 613.226 582.946 615.082 582.946C616.937 582.946 618.441 584.45 618.441 586.305C618.441 588.16 616.937 589.664 615.082 589.664Z" fill="white"/>
<path d="M589.754 266.058C588.442 264.746 588.442 262.619 589.754 261.307C591.066 259.996 593.193 259.996 594.505 261.307C595.817 262.619 595.817 264.746 594.505 266.058C593.193 267.37 591.066 267.37 589.754 266.058Z" fill="white"/>
<path d="M496.681 244.288C496.681 246.14 498.188 247.646 500.04 247.646C501.893 247.646 503.4 246.14 503.4 244.288C503.4 242.435 501.893 240.929 500.04 240.929C498.188 240.929 496.681 242.435 496.681 244.288Z" fill="white"/>
<path d="M300.61 311.037C300.478 309.187 301.872 307.58 303.723 307.448C305.573 307.317 307.181 308.71 307.312 310.56C307.444 312.411 306.05 314.018 304.2 314.15C302.349 314.281 300.741 312.888 300.61 311.037Z" fill="white"/>
<path d="M283.394 476.196C283.394 478.048 284.901 479.555 286.753 479.555C288.606 479.555 290.113 478.048 290.113 476.196C290.113 474.343 288.606 472.837 286.753 472.837C284.901 472.837 283.394 474.343 283.394 476.196Z" fill="white"/>
<path d="M977.858 410.507C976.546 409.195 976.546 407.068 977.858 405.757C979.17 404.445 981.297 404.445 982.609 405.757C983.921 407.068 983.921 409.195 982.609 410.507C981.297 411.819 979.17 411.819 977.858 410.507Z" fill="white"/>
<path d="M1020.09 361.891C1020.09 363.743 1021.6 365.25 1023.45 365.25C1025.31 365.25 1026.81 363.743 1026.81 361.891C1026.81 360.039 1025.31 358.532 1023.45 358.532C1021.6 358.532 1020.09 360.039 1020.09 361.891Z" fill="white"/>
<path d="M758.964 304.402C757.652 303.09 757.652 300.963 758.964 299.651C760.276 298.339 762.403 298.339 763.715 299.651C765.027 300.963 765.027 303.09 763.715 304.402C762.403 305.713 760.276 305.713 758.964 304.402Z" fill="white"/>
<path d="M445.645 283.713C445.645 285.566 447.151 287.072 449.004 287.072C450.857 287.072 452.363 285.566 452.363 283.713C452.363 281.861 450.857 280.354 449.004 280.354C447.151 280.354 445.645 281.861 445.645 283.713Z" fill="white"/>
<path d="M177.834 363.233C177.834 365.085 179.341 366.592 181.193 366.592C183.046 366.592 184.553 365.085 184.553 363.233C184.553 361.381 183.046 359.874 181.193 359.874C179.341 359.874 177.834 361.381 177.834 363.233Z" fill="white"/>
<path d="M121.062 333.379C121.062 335.232 122.568 336.738 124.421 336.738C126.273 336.738 127.78 335.232 127.78 333.379C127.78 331.527 126.273 330.021 124.421 330.021C122.568 330.021 121.062 331.527 121.062 333.379Z" fill="white"/>
<path d="M129.169 313.943C127.857 312.631 127.857 310.504 129.169 309.192C130.481 307.88 132.608 307.88 133.92 309.192C135.232 310.504 135.232 312.631 133.92 313.943C132.608 315.254 130.481 315.254 129.169 313.943Z" fill="white"/>
<path d="M226.394 394.813C226.394 396.665 227.901 398.172 229.754 398.172C231.606 398.172 233.113 396.665 233.113 394.813C233.113 392.961 231.606 391.454 229.754 391.454C227.901 391.454 226.394 392.961 226.394 394.813Z" fill="white"/>
<path d="M316.666 567.586C316.666 569.439 318.173 570.945 320.026 570.945C321.878 570.945 323.385 569.439 323.385 567.586C323.385 565.734 321.878 564.228 320.026 564.228C318.173 564.228 316.666 565.734 316.666 567.586Z" fill="white"/>
<path d="M558.563 572.881C558.563 574.734 560.07 576.24 561.922 576.24C563.775 576.24 565.282 574.734 565.282 572.881C565.282 571.029 563.775 569.522 561.922 569.522C560.07 569.522 558.563 571.029 558.563 572.881Z" fill="white"/>
</g>
<g style="mix-blend-mode:overlay">
<path d="M755.216 446.339C756.536 446.339 757.606 445.269 757.606 443.949C757.606 442.63 756.536 441.56 755.216 441.56C753.896 441.56 752.826 442.63 752.826 443.949C752.826 445.269 753.896 446.339 755.216 446.339Z" fill="white"/>
<path d="M651.088 355.078C652.373 354.775 653.168 353.488 652.865 352.204C652.562 350.919 651.275 350.124 649.99 350.427C648.705 350.73 647.909 352.017 648.213 353.302C648.516 354.586 649.803 355.382 651.088 355.078Z" fill="white"/>
<path d="M636.229 386.731C636.229 388.051 635.159 389.12 633.839 389.12C632.519 389.12 631.449 388.051 631.449 386.731C631.449 385.411 632.519 384.341 633.839 384.341C635.159 384.341 636.229 385.411 636.229 386.731Z" fill="white"/>
<path d="M604.036 513.213C604.036 514.533 602.966 515.603 601.646 515.603C600.326 515.603 599.256 514.533 599.256 513.213C599.256 511.893 600.326 510.823 601.646 510.823C602.966 510.823 604.036 511.893 604.036 513.213Z" fill="white"/>
<path d="M618.546 567.538C619.866 567.538 620.936 566.468 620.936 565.149C620.936 563.829 619.866 562.759 618.546 562.759C617.226 562.759 616.156 563.829 616.156 565.149C616.156 566.468 617.226 567.538 618.546 567.538Z" fill="white"/>
<path d="M735.822 646.98C736.125 645.695 735.329 644.408 734.045 644.105C732.76 643.801 731.472 644.597 731.169 645.882C730.865 647.167 731.661 648.454 732.946 648.757C734.231 649.06 735.519 648.265 735.822 646.98Z" fill="white"/>
<path d="M917.202 699.183C917.505 697.898 916.709 696.611 915.424 696.308C914.139 696.005 912.852 696.8 912.549 698.085C912.245 699.37 913.041 700.657 914.326 700.96C915.611 701.264 916.899 700.468 917.202 699.183Z" fill="white"/>
<path d="M1056.38 681.117C1056.59 679.814 1055.7 678.586 1054.4 678.374C1053.1 678.163 1051.87 679.048 1051.66 680.351C1051.45 681.654 1052.33 682.882 1053.64 683.093C1054.94 683.305 1056.17 682.42 1056.38 681.117Z" fill="white"/>
<path d="M1079.25 595.205C1079.25 596.525 1078.18 597.595 1076.86 597.595C1075.54 597.595 1074.47 596.525 1074.47 595.205C1074.47 593.885 1075.54 592.816 1076.86 592.816C1078.18 592.816 1079.25 593.885 1079.25 595.205Z" fill="white"/>
<path d="M906.701 433.83C906.912 432.527 906.027 431.299 904.724 431.087C903.421 430.876 902.193 431.761 901.981 433.064C901.77 434.367 902.655 435.594 903.958 435.806C905.261 436.017 906.489 435.133 906.701 433.83Z" fill="white"/>
<path d="M771.406 328.808C772.726 328.808 773.796 327.738 773.796 326.418C773.796 325.098 772.726 324.028 771.406 324.028C770.086 324.028 769.016 325.098 769.016 326.418C769.016 327.738 770.086 328.808 771.406 328.808Z" fill="white"/>
<path d="M775.028 282.016C775.028 283.336 773.959 284.406 772.638 284.406C771.318 284.406 770.248 283.336 770.248 282.016C770.248 280.696 771.318 279.626 772.638 279.626C773.959 279.626 775.028 280.696 775.028 282.016Z" fill="white"/>
<path d="M841.629 231.082C841.932 229.797 841.137 228.509 839.852 228.206C838.567 227.903 837.279 228.699 836.976 229.983C836.673 231.268 837.468 232.556 838.753 232.859C840.038 233.162 841.326 232.366 841.629 231.082Z" fill="white"/>
<path d="M875.065 194.753C876.385 194.753 877.455 193.683 877.455 192.364C877.455 191.044 876.385 189.974 875.065 189.974C873.745 189.974 872.675 191.044 872.675 192.364C872.675 193.683 873.745 194.753 875.065 194.753Z" fill="white"/>
<path d="M899.295 181.844C899.295 183.164 898.226 184.234 896.905 184.234C895.585 184.234 894.515 183.164 894.515 181.844C894.515 180.524 895.585 179.454 896.905 179.454C898.226 179.454 899.295 180.524 899.295 181.844Z" fill="white"/>
<path d="M906.055 189.341C907.375 189.341 908.445 188.271 908.445 186.951C908.445 185.632 907.375 184.562 906.055 184.562C904.735 184.562 903.665 185.632 903.665 186.951C903.665 188.271 904.735 189.341 906.055 189.341Z" fill="white"/>
<path d="M1126.61 118.504C1126.61 119.824 1125.54 120.894 1124.22 120.894C1122.9 120.894 1121.83 119.824 1121.83 118.504C1121.83 117.184 1122.9 116.114 1124.22 116.114C1125.54 116.114 1126.61 117.184 1126.61 118.504Z" fill="white"/>
<path d="M1256.79 211.197C1258.11 211.197 1259.18 210.127 1259.18 208.807C1259.18 207.487 1258.11 206.417 1256.79 206.417C1255.47 206.417 1254.4 207.487 1254.4 208.807C1254.4 210.127 1255.47 211.197 1256.79 211.197Z" fill="white"/>
<path d="M1394.68 404.348C1394.68 405.668 1393.61 406.738 1392.29 406.738C1390.97 406.738 1389.9 405.668 1389.9 404.348C1389.9 403.028 1390.97 401.958 1392.29 401.958C1393.61 401.958 1394.68 403.028 1394.68 404.348Z" fill="white"/>
<path d="M1423.22 691.62C1424.44 691.114 1425.02 689.716 1424.52 688.497C1424.01 687.278 1422.61 686.699 1421.39 687.204C1420.17 687.709 1419.6 689.107 1420.1 690.326C1420.61 691.546 1422 692.125 1423.22 691.62Z" fill="white"/>
<path d="M1309.67 814.614C1309.67 815.934 1308.6 817.003 1307.28 817.003C1305.96 817.003 1304.89 815.934 1304.89 814.614C1304.89 813.293 1305.96 812.224 1307.28 812.224C1308.6 812.224 1309.67 813.293 1309.67 814.614Z" fill="white"/>
<path d="M1197.13 887.165C1198.45 887.165 1199.52 886.095 1199.52 884.776C1199.52 883.456 1198.45 882.386 1197.13 882.386C1195.81 882.386 1194.74 883.456 1194.74 884.776C1194.74 886.095 1195.81 887.165 1197.13 887.165Z" fill="white"/>
<path d="M1115.6 904.739C1115.6 906.059 1114.53 907.128 1113.21 907.128C1111.89 907.128 1110.82 906.059 1110.82 904.739C1110.82 903.418 1111.89 902.349 1113.21 902.349C1114.53 902.349 1115.6 903.418 1115.6 904.739Z" fill="white"/>
<path d="M1012.63 931.899C1012.63 933.219 1011.56 934.288 1010.24 934.288C1008.92 934.288 1007.85 933.219 1007.85 931.899C1007.85 930.578 1008.92 929.509 1010.24 929.509C1011.56 929.509 1012.63 930.578 1012.63 931.899Z" fill="white"/>
<path d="M935.3 946.064C935.511 944.761 934.626 943.533 933.323 943.322C932.02 943.11 930.792 943.995 930.58 945.298C930.369 946.601 931.254 947.829 932.557 948.04C933.86 948.252 935.088 947.367 935.3 946.064Z" fill="white"/>
<path d="M807.498 947.672C807.498 948.992 806.428 950.062 805.107 950.062C803.787 950.062 802.717 948.992 802.717 947.672C802.717 946.352 803.787 945.282 805.107 945.282C806.428 945.282 807.498 946.352 807.498 947.672Z" fill="white"/>
<path d="M724.111 938.721C724.111 940.041 723.042 941.111 721.721 941.111C720.401 941.111 719.331 940.041 719.331 938.721C719.331 937.401 720.401 936.331 721.721 936.331C723.042 936.331 724.111 937.401 724.111 938.721Z" fill="white"/>
<path d="M603.564 917.373C603.868 916.088 603.072 914.8 601.787 914.497C600.502 914.194 599.214 914.99 598.911 916.274C598.608 917.559 599.404 918.847 600.688 919.15C601.973 919.453 603.261 918.657 603.564 917.373Z" fill="white"/>
<path d="M519.21 814.426C519.21 815.746 518.14 816.816 516.819 816.816C515.499 816.816 514.429 815.746 514.429 814.426C514.429 813.106 515.499 812.036 516.819 812.036C518.14 812.036 519.21 813.106 519.21 814.426Z" fill="white"/>
<path d="M418.154 725.662C418.154 726.982 417.085 728.052 415.764 728.052C414.444 728.052 413.374 726.982 413.374 725.662C413.374 724.342 414.444 723.273 415.764 723.273C417.085 723.273 418.154 724.342 418.154 725.662Z" fill="white"/>
<path d="M241.912 565.724C243.232 565.724 244.302 564.654 244.302 563.334C244.302 562.014 243.232 560.944 241.912 560.944C240.592 560.944 239.521 562.014 239.521 563.334C239.521 564.654 240.592 565.724 241.912 565.724Z" fill="white"/>
<path d="M151.87 362.04C153.19 362.04 154.26 360.97 154.26 359.651C154.26 358.331 153.19 357.261 151.87 357.261C150.55 357.261 149.479 358.331 149.479 359.651C149.479 360.97 150.55 362.04 151.87 362.04Z" fill="white"/>
<path d="M119.809 183.619C119.809 184.94 118.739 186.009 117.418 186.009C116.098 186.009 115.028 184.94 115.028 183.619C115.028 182.299 116.098 181.23 117.418 181.23C118.739 181.23 119.809 182.299 119.809 183.619Z" fill="white"/>
<path d="M148.038 51.3602C149.323 51.0579 150.12 49.7713 149.817 48.4866C149.515 47.2018 148.228 46.4054 146.943 46.7077C145.658 47.01 144.862 48.2965 145.164 49.5813C145.466 50.866 146.753 51.6625 148.038 51.3602Z" fill="white"/>
<path d="M205.822 9.58834C207.043 9.0856 207.624 7.68875 207.122 6.46839C206.619 5.24804 205.222 4.6663 204.001 5.16904C202.78 5.67179 202.199 7.06864 202.701 8.289C203.204 9.50935 204.601 10.0911 205.822 9.58834Z" fill="white"/>
<path d="M396.975 60.5178C396.975 61.8379 395.905 62.9076 394.585 62.9076C393.265 62.9076 392.195 61.8379 392.195 60.5178C392.195 59.1977 393.265 58.1281 394.585 58.1281C395.905 58.1281 396.975 59.1977 396.975 60.5178Z" fill="white"/>
<path d="M588.254 104.622C589.474 104.116 590.053 102.718 589.548 101.499C589.043 100.28 587.645 99.7006 586.425 100.206C585.205 100.711 584.626 102.109 585.131 103.328C585.637 104.548 587.035 105.127 588.254 104.622Z" fill="white"/>
<path d="M507.291 244.854C508.512 244.351 509.094 242.954 508.591 241.734C508.088 240.514 506.691 239.932 505.47 240.435C504.25 240.937 503.668 242.334 504.171 243.554C504.674 244.775 506.071 245.357 507.291 244.854Z" fill="white"/>
<path d="M171.432 475.755C172.752 475.755 173.822 474.685 173.822 473.365C173.822 472.046 172.752 470.976 171.432 470.976C170.112 470.976 169.042 472.046 169.042 473.365C169.042 474.685 170.112 475.755 171.432 475.755Z" fill="white"/>
<path d="M60.2249 614.34C60.2249 615.66 59.1551 616.73 57.8347 616.73C56.5144 616.73 55.4446 615.66 55.4446 614.34C55.4446 613.02 56.5144 611.95 57.8347 611.95C59.1551 611.95 60.2249 613.02 60.2249 614.34Z" fill="white"/>
<path d="M89.647 695.141C89.647 696.461 88.5772 697.531 87.2569 697.531C85.9365 697.531 84.8667 696.461 84.8667 695.141C84.8667 693.821 85.9365 692.751 87.2569 692.751C88.5772 692.751 89.647 693.821 89.647 695.141Z" fill="white"/>
<path d="M217.451 775.054C218.385 774.121 218.385 772.608 217.451 771.674C216.518 770.741 215.004 770.741 214.071 771.674C213.137 772.608 213.137 774.121 214.071 775.054C215.004 775.988 216.518 775.988 217.451 775.054Z" fill="white"/>
<path d="M179.152 850.207C179.259 848.892 178.279 847.738 176.963 847.631C175.647 847.524 174.494 848.504 174.387 849.82C174.28 851.136 175.26 852.289 176.576 852.396C177.892 852.503 179.045 851.523 179.152 850.207Z" fill="white"/>
<path d="M64.5184 1040.84C64.8501 1039.56 64.083 1038.25 62.8051 1037.92C61.5271 1037.59 60.2223 1038.36 59.8906 1039.63C59.5589 1040.91 60.326 1042.22 61.6039 1042.55C62.8819 1042.88 64.1867 1042.11 64.5184 1040.84Z" fill="white"/>
<path d="M105.936 1067.47C105.936 1068.79 104.866 1069.86 103.545 1069.86C102.225 1069.86 101.155 1068.79 101.155 1067.47C101.155 1066.15 102.225 1065.08 103.545 1065.08C104.866 1065.08 105.936 1066.15 105.936 1067.47Z" fill="white"/>
<path d="M356.016 1023.88C356.016 1025.2 354.946 1026.27 353.626 1026.27C352.306 1026.27 351.236 1025.2 351.236 1023.88C351.236 1022.56 352.306 1021.49 353.626 1021.49C354.946 1021.49 356.016 1022.56 356.016 1023.88Z" fill="white"/>
<path d="M562.385 1038.07C562.546 1036.76 561.614 1035.57 560.304 1035.41C558.994 1035.25 557.801 1036.18 557.639 1037.49C557.478 1038.8 558.409 1039.99 559.72 1040.15C561.03 1040.32 562.223 1039.38 562.385 1038.07Z" fill="white"/>
<path d="M713.502 1072.68C713.502 1074 712.432 1075.07 711.112 1075.07C709.791 1075.07 708.722 1074 708.722 1072.68C708.722 1071.36 709.791 1070.29 711.112 1070.29C712.432 1070.29 713.502 1071.36 713.502 1072.68Z" fill="white"/>
<path d="M950.947 1105.72C952.267 1105.72 953.337 1104.65 953.337 1103.33C953.337 1102.01 952.267 1100.94 950.947 1100.94C949.627 1100.94 948.557 1102.01 948.557 1103.33C948.557 1104.65 949.627 1105.72 950.947 1105.72Z" fill="white"/>
<path d="M1120.59 1024.54C1120.59 1025.86 1119.52 1026.93 1118.2 1026.93C1116.88 1026.93 1115.81 1025.86 1115.81 1024.54C1115.81 1023.22 1116.88 1022.15 1118.2 1022.15C1119.52 1022.15 1120.59 1023.22 1120.59 1024.54Z" fill="white"/>
<path d="M1130.62 1030.95C1130.62 1032.27 1129.55 1033.34 1128.23 1033.34C1126.91 1033.34 1125.84 1032.27 1125.84 1030.95C1125.84 1029.63 1126.91 1028.56 1128.23 1028.56C1129.55 1028.56 1130.62 1029.63 1130.62 1030.95Z" fill="white"/>
<path d="M1138.19 1026.77C1139.51 1026.77 1140.58 1025.7 1140.58 1024.38C1140.58 1023.06 1139.51 1021.99 1138.19 1021.99C1136.87 1021.99 1135.8 1023.06 1135.8 1024.38C1135.8 1025.7 1136.87 1026.77 1138.19 1026.77Z" fill="white"/>
<path d="M1259.03 1042.48C1260.25 1041.98 1260.83 1040.58 1260.32 1039.36C1259.82 1038.14 1258.42 1037.56 1257.2 1038.07C1255.98 1038.57 1255.4 1039.97 1255.9 1041.19C1256.41 1042.41 1257.81 1042.99 1259.03 1042.48Z" fill="white"/>
<path d="M1299.35 1050.66C1300.67 1050.66 1301.74 1049.59 1301.74 1048.27C1301.74 1046.95 1300.67 1045.88 1299.35 1045.88C1298.03 1045.88 1296.96 1046.95 1296.96 1048.27C1296.96 1049.59 1298.03 1050.66 1299.35 1050.66Z" fill="white"/>
<path d="M1351.33 1053.23C1352.65 1053.23 1353.72 1052.16 1353.72 1050.84C1353.72 1049.52 1352.65 1048.45 1351.33 1048.45C1350.01 1048.45 1348.94 1049.52 1348.94 1050.84C1348.94 1052.16 1350.01 1053.23 1351.33 1053.23Z" fill="white"/>
<path d="M1376.18 1046.05C1377.5 1046.05 1378.57 1044.98 1378.57 1043.66C1378.57 1042.34 1377.5 1041.27 1376.18 1041.27C1374.86 1041.27 1373.79 1042.34 1373.79 1043.66C1373.79 1044.98 1374.86 1046.05 1376.18 1046.05Z" fill="white"/>
<path d="M1394.01 1014.63C1394.01 1015.95 1392.94 1017.02 1391.62 1017.02C1390.3 1017.02 1389.23 1015.95 1389.23 1014.63C1389.23 1013.31 1390.3 1012.24 1391.62 1012.24C1392.94 1012.24 1394.01 1013.31 1394.01 1014.63Z" fill="white"/>
<path d="M1304.67 933.201C1304.83 931.891 1303.9 930.698 1302.59 930.537C1301.28 930.376 1300.08 931.307 1299.92 932.617C1299.76 933.927 1300.69 935.12 1302 935.281C1303.31 935.443 1304.51 934.512 1304.67 933.201Z" fill="white"/>
<path d="M966.458 730.171C967.778 730.171 968.848 729.101 968.848 727.781C968.848 726.462 967.778 725.392 966.458 725.392C965.138 725.392 964.067 726.462 964.067 727.781C964.067 729.101 965.138 730.171 966.458 730.171Z" fill="white"/>
<path d="M645.199 647.929C645.308 646.614 644.33 645.459 643.014 645.35C641.698 645.241 640.543 646.22 640.434 647.535C640.326 648.851 641.304 650.005 642.62 650.114C643.936 650.223 645.09 649.245 645.199 647.929Z" fill="white"/>
<path d="M459.355 568.07C460.675 568.07 461.745 567 461.745 565.68C461.745 564.36 460.675 563.29 459.355 563.29C458.035 563.29 456.965 564.36 456.965 565.68C456.965 567 458.035 568.07 459.355 568.07Z" fill="white"/>
<path d="M313.567 430.396C313.633 429.078 312.617 427.956 311.299 427.89C309.98 427.825 308.858 428.84 308.792 430.159C308.727 431.477 309.742 432.599 311.061 432.665C312.38 432.73 313.502 431.715 313.567 430.396Z" fill="white"/>
<path d="M396.541 355.252C396.541 356.572 395.471 357.642 394.15 357.642C392.83 357.642 391.76 356.572 391.76 355.252C391.76 353.932 392.83 352.862 394.15 352.862C395.471 352.862 396.541 353.932 396.541 355.252Z" fill="white"/>
<path d="M686.062 238.905C686.062 240.225 684.992 241.294 683.671 241.294C682.351 241.294 681.281 240.225 681.281 238.905C681.281 237.584 682.351 236.515 683.671 236.515C684.992 236.515 686.062 237.584 686.062 238.905Z" fill="white"/>
<path d="M814.691 177.156C816.011 177.156 817.082 176.086 817.082 174.766C817.082 173.446 816.011 172.376 814.691 172.376C813.371 172.376 812.301 173.446 812.301 174.766C812.301 176.086 813.371 177.156 814.691 177.156Z" fill="white"/>
<path d="M808.5 61.0736C809.82 61.0736 810.89 60.0036 810.89 58.6838C810.89 57.364 809.82 56.2941 808.5 56.2941C807.179 56.2941 806.109 57.364 806.109 58.6838C806.109 60.0036 807.179 61.0736 808.5 61.0736Z" fill="white"/>
<path d="M710.555 3.00555C710.664 1.68999 709.686 0.535297 708.37 0.426445C707.054 0.317593 705.899 1.2958 705.79 2.61136C705.682 3.92693 706.66 5.08165 707.976 5.1905C709.291 5.29935 710.446 4.32111 710.555 3.00555Z" fill="white"/>
<path d="M817.414 43.7822C818.734 43.7822 819.804 42.7123 819.804 41.3924C819.804 40.0726 818.734 39.0027 817.414 39.0027C816.094 39.0027 815.023 40.0726 815.023 41.3924C815.023 42.7123 816.094 43.7822 817.414 43.7822Z" fill="white"/>
<path d="M1042.51 169.277C1043.45 168.343 1043.45 166.83 1042.51 165.897C1041.58 164.963 1040.07 164.963 1039.13 165.897C1038.2 166.83 1038.2 168.343 1039.13 169.277C1040.07 170.21 1041.58 170.21 1042.51 169.277Z" fill="white"/>
<path d="M1011.6 412.751C1012.92 412.751 1013.99 411.681 1013.99 410.361C1013.99 409.041 1012.92 407.971 1011.6 407.971C1010.28 407.971 1009.21 409.041 1009.21 410.361C1009.21 411.681 1010.28 412.751 1011.6 412.751Z" fill="white"/>
<path d="M885.412 658.822C885.412 660.142 884.342 661.212 883.022 661.212C881.701 661.212 880.631 660.142 880.631 658.822C880.631 657.502 881.701 656.432 883.022 656.432C884.342 656.432 885.412 657.502 885.412 658.822Z" fill="white"/>
<path d="M995.194 742.303C995.194 743.623 994.124 744.692 992.804 744.692C991.483 744.692 990.414 743.623 990.414 742.303C990.414 740.982 991.483 739.913 992.804 739.913C994.124 739.913 995.194 740.982 995.194 742.303Z" fill="white"/>
<path d="M1174.99 500.383C1176.21 499.878 1176.79 498.48 1176.29 497.26C1175.78 496.041 1174.38 495.462 1173.16 495.967C1171.94 496.472 1171.37 497.87 1171.87 499.089C1172.38 500.309 1173.77 500.888 1174.99 500.383Z" fill="white"/>
<path d="M1217.35 180.745C1218.67 180.745 1219.74 179.675 1219.74 178.355C1219.74 177.035 1218.67 175.966 1217.35 175.966C1216.03 175.966 1214.96 177.035 1214.96 178.355C1214.96 179.675 1216.03 180.745 1217.35 180.745Z" fill="white"/>
<path d="M1225.26 156.705C1225.26 158.025 1224.19 159.095 1222.87 159.095C1221.55 159.095 1220.48 158.025 1220.48 156.705C1220.48 155.385 1221.55 154.315 1222.87 154.315C1224.19 154.315 1225.26 155.385 1225.26 156.705Z" fill="white"/>
<path d="M1289 103.898C1289.3 102.613 1288.5 101.326 1287.22 101.022C1285.93 100.719 1284.65 101.515 1284.34 102.8C1284.04 104.084 1284.84 105.372 1286.12 105.675C1287.41 105.978 1288.69 105.182 1289 103.898Z" fill="white"/>
<path d="M1312.79 99.0051C1312.9 97.6895 1311.92 96.5348 1310.61 96.4259C1309.29 96.3171 1308.14 97.2953 1308.03 98.6109C1307.92 99.9265 1308.9 101.081 1310.21 101.19C1311.53 101.299 1312.68 100.321 1312.79 99.0051Z" fill="white"/>
<path d="M1351.43 164.083C1352.75 164.083 1353.82 163.013 1353.82 161.693C1353.82 160.373 1352.75 159.303 1351.43 159.303C1350.11 159.303 1349.04 160.373 1349.04 161.693C1349.04 163.013 1350.11 164.083 1351.43 164.083Z" fill="white"/>
<path d="M1395.11 316.394C1396.04 315.46 1396.04 313.947 1395.11 313.014C1394.18 312.081 1392.66 312.081 1391.73 313.014C1390.8 313.947 1390.8 315.46 1391.73 316.394C1392.66 317.327 1394.18 317.327 1395.11 316.394Z" fill="white"/>
<path d="M1265.36 447.54C1266.68 447.54 1267.75 446.47 1267.75 445.15C1267.75 443.83 1266.68 442.76 1265.36 442.76C1264.04 442.76 1262.97 443.83 1262.97 445.15C1262.97 446.47 1264.04 447.54 1265.36 447.54Z" fill="white"/>
<path d="M1204.54 539.988C1204.54 541.308 1203.47 542.378 1202.15 542.378C1200.83 542.378 1199.76 541.308 1199.76 539.988C1199.76 538.668 1200.83 537.598 1202.15 537.598C1203.47 537.598 1204.54 538.668 1204.54 539.988Z" fill="white"/>
<path d="M1281.12 650.887C1281.12 652.207 1280.05 653.276 1278.73 653.276C1277.4 653.276 1276.33 652.207 1276.33 650.887C1276.33 649.566 1277.4 648.497 1278.73 648.497C1280.05 648.497 1281.12 649.566 1281.12 650.887Z" fill="white"/>
<path d="M1206.24 738.428C1206.24 739.748 1205.17 740.817 1203.85 740.817C1202.53 740.817 1201.46 739.748 1201.46 738.428C1201.46 737.107 1202.53 736.038 1203.85 736.038C1205.17 736.038 1206.24 737.107 1206.24 738.428Z" fill="white"/>
<path d="M871.988 766.46C873.308 766.46 874.378 765.39 874.378 764.07C874.378 762.75 873.308 761.68 871.988 761.68C870.668 761.68 869.598 762.75 869.598 764.07C869.598 765.39 870.668 766.46 871.988 766.46Z" fill="white"/>
<path d="M665.204 727.036C666.524 727.036 667.594 725.966 667.594 724.646C667.594 723.327 666.524 722.257 665.204 722.257C663.884 722.257 662.813 723.327 662.813 724.646C662.813 725.966 663.884 727.036 665.204 727.036Z" fill="white"/>
<path d="M490.705 752.092C490.705 753.412 489.635 754.481 488.314 754.481C486.994 754.481 485.924 753.412 485.924 752.092C485.924 750.771 486.994 749.702 488.314 749.702C489.635 749.702 490.705 750.771 490.705 752.092Z" fill="white"/>
<path d="M254.487 838.195C254.487 839.515 253.418 840.585 252.097 840.585C250.777 840.585 249.707 839.515 249.707 838.195C249.707 836.875 250.777 835.805 252.097 835.805C253.418 835.805 254.487 836.875 254.487 838.195Z" fill="white"/>
<path d="M114.711 796.789C114.711 798.109 113.642 799.179 112.321 799.179C111.001 799.179 109.931 798.109 109.931 796.789C109.931 795.469 111.001 794.399 112.321 794.399C113.642 794.399 114.711 795.469 114.711 796.789Z" fill="white"/>
<path d="M71.9341 783.476C73.2541 783.476 74.3243 782.406 74.3243 781.086C74.3243 779.766 73.2541 778.696 71.9341 778.696C70.6141 778.696 69.5439 779.766 69.5439 781.086C69.5439 782.406 70.6141 783.476 71.9341 783.476Z" fill="white"/>
<path d="M68.4211 769.657C68.632 768.354 67.7464 767.126 66.4431 766.915C65.1397 766.705 63.9122 767.59 63.7014 768.893C63.4905 770.196 64.3761 771.424 65.6795 771.634C66.9828 771.845 68.2103 770.96 68.4211 769.657Z" fill="white"/>
<path d="M19.9126 750.163C21.2327 750.163 22.3028 749.093 22.3028 747.773C22.3028 746.453 21.2327 745.384 19.9126 745.384C18.5926 745.384 17.5225 746.453 17.5225 747.773C17.5225 749.093 18.5926 750.163 19.9126 750.163Z" fill="white"/>
<path d="M0.768588 765.765C0.768588 767.086 -0.301199 768.155 -1.62157 768.155C-2.94193 768.155 -4.01172 767.086 -4.01172 765.765C-4.01172 764.445 -2.94193 763.376 -1.62157 763.376C-0.301199 763.376 0.768588 764.445 0.768588 765.765Z" fill="white"/>
</g>
</svg>
