<svg width="32" height="32" viewBox="0 0 32 32" fill="none" xmlns="http://www.w3.org/2000/svg">
  <path
    d="M29.4023 2.5978C33.1496 6.34512 32.7948 12.7755 28.6483 16.9219L21.1093 24.461L7.53906 10.8907L15.0781 3.3517C19.2246 -0.794759 25.6549 -1.14952 29.4023 2.5978Z"
    fill="#14F195" />
  <path
    d="M13.5703 32L0 18.4297C4.16369 14.266 10.5768 13.9285 14.3242 17.6758C18.0715 21.4231 17.7339 27.8363 13.5703 32Z"
    fill="#9945FF" />
  <path
    d="M27.8945 31.246L14.3242 17.6758C18.4879 13.5121 24.9011 13.1746 28.6484 16.9219C32.3957 20.6692 32.0582 27.0824 27.8945 31.246Z"
    fill="#14F195" />
  <path
    d="M14.3242 17.6757L0.753906 4.10549C4.9176 -0.0582008 11.3307 -0.395734 15.0781 3.35159C18.8254 7.09891 18.4879 13.512 14.3242 17.6757Z"
    fill="#14F195" />
</svg>