<svg width="33" height="32" viewBox="0 0 33 32" fill="none" xmlns="http://www.w3.org/2000/svg">
  <path
    d="M30.3686 2.5978C34.1159 6.34512 33.7611 12.7755 29.6147 16.9219L22.0756 24.461L8.50537 10.8907L16.0444 3.3517C20.1909 -0.794759 26.6212 -1.14952 30.3686 2.5978Z"
    fill="#14F195" />
  <path
    d="M14.5366 32L0.966309 18.4297C5.13 14.266 11.5431 13.9285 15.2905 17.6758C19.0378 21.4231 18.7003 27.8363 14.5366 32Z"
    fill="#9945FF" />
  <path
    d="M28.8608 31.246L15.2905 17.6758C19.4542 13.5121 25.8674 13.1746 29.6147 16.9219C33.362 20.6692 33.0245 27.0824 28.8608 31.246Z"
    fill="#14F195" />
  <path
    d="M15.2905 17.6757L1.72021 4.10549C5.88391 -0.0582008 12.2971 -0.395734 16.0444 3.35159C19.7917 7.09891 19.4542 13.512 15.2905 17.6757Z"
    fill="#14F195" />
</svg>