<svg width="24" height="24" viewBox="0 0 24 24" fill="none" xmlns="http://www.w3.org/2000/svg">
<path d="M5.25006 3.74976C4.85224 3.74976 4.47071 3.90779 4.1894 4.1891C3.9081 4.4704 3.75006 4.85193 3.75006 5.24976V18.7498C3.75006 19.1476 3.9081 19.5291 4.1894 19.8104C4.47071 20.0917 4.85224 20.2498 5.25006 20.2498H18.7501C19.1479 20.2498 19.5294 20.0917 19.8107 19.8104C20.092 19.5291 20.2501 19.1476 20.2501 18.7498V5.24976C20.2501 4.85193 20.092 4.4704 19.8107 4.1891C19.5294 3.90779 19.1479 3.74976 18.7501 3.74976H5.25006ZM5.25006 2.24976H18.7501C19.5457 2.24976 20.3088 2.56583 20.8714 3.12844C21.434 3.69104 21.7501 4.45411 21.7501 5.24976V18.7498C21.7501 19.5454 21.434 20.3085 20.8714 20.8711C20.3088 21.4337 19.5457 21.7498 18.7501 21.7498H5.25006C4.45441 21.7498 3.69135 21.4337 3.12874 20.8711C2.56613 20.3085 2.25006 19.5454 2.25006 18.7498V5.24976C2.25006 4.45411 2.56613 3.69104 3.12874 3.12844C3.69135 2.56583 4.45441 2.24976 5.25006 2.24976Z" fill="#8896AB"/>
<path d="M9.00006 9.75024C9.39789 9.75024 9.77942 9.59221 10.0607 9.3109C10.342 9.0296 10.5001 8.64807 10.5001 8.25024C10.5001 7.85242 10.342 7.47089 10.0607 7.18958C9.77942 6.90828 9.39789 6.75024 9.00006 6.75024C8.60224 6.75024 8.22071 6.90828 7.9394 7.18958C7.6581 7.47089 7.50006 7.85242 7.50006 8.25024C7.50006 8.64807 7.6581 9.0296 7.9394 9.3109C8.22071 9.59221 8.60224 9.75024 9.00006 9.75024ZM9.00006 11.2502C8.20441 11.2502 7.44135 10.9342 6.87874 10.3716C6.31613 9.80896 6.00006 9.04589 6.00006 8.25024C6.00006 7.45459 6.31613 6.69153 6.87874 6.12892C7.44135 5.56631 8.20441 5.25024 9.00006 5.25024C9.79571 5.25024 10.5588 5.56631 11.1214 6.12892C11.684 6.69153 12.0001 7.45459 12.0001 8.25024C12.0001 9.04589 11.684 9.80896 11.1214 10.3716C10.5588 10.9342 9.79571 11.2502 9.00006 11.2502Z" fill="#8896AB"/>
<path d="M11.2499 7.5H17.2499C17.7499 7.5 17.9999 7.75 17.9999 8.25C17.9999 8.75 17.7499 9 17.2499 9H11.2499C10.7499 9 10.4999 8.75 10.4999 8.25C10.4999 7.75 10.7499 7.5 11.2499 7.5ZM14.9999 17.25C15.3977 17.25 15.7792 17.092 16.0605 16.8107C16.3418 16.5294 16.4999 16.1478 16.4999 15.75C16.4999 15.3522 16.3418 14.9706 16.0605 14.6893C15.7792 14.408 15.3977 14.25 14.9999 14.25C14.6021 14.25 14.2205 14.408 13.9392 14.6893C13.6579 14.9706 13.4999 15.3522 13.4999 15.75C13.4999 16.1478 13.6579 16.5294 13.9392 16.8107C14.2205 17.092 14.6021 17.25 14.9999 17.25ZM14.9999 18.75C14.2042 18.75 13.4412 18.4339 12.8786 17.8713C12.3159 17.3087 11.9999 16.5457 11.9999 15.75C11.9999 14.9544 12.3159 14.1913 12.8786 13.6287C13.4412 13.0661 14.2042 12.75 14.9999 12.75C15.7955 12.75 16.5586 13.0661 17.1212 13.6287C17.6838 14.1913 17.9999 14.9544 17.9999 15.75C17.9999 16.5457 17.6838 17.3087 17.1212 17.8713C16.5586 18.4339 15.7955 18.75 14.9999 18.75Z" fill="#8896AB"/>
<path d="M6.75006 15H12.7501C13.2501 15 13.5001 15.25 13.5001 15.75C13.5001 16.25 13.2501 16.5 12.7501 16.5H6.75006C6.25006 16.5 6.00006 16.25 6.00006 15.75C6.00006 15.25 6.25006 15 6.75006 15Z" fill="#8896AB"/>
</svg>
