<?xml version="1.0" encoding="UTF-8"?>
<svg id="Layer_1" data-name="Layer 1" xmlns="http://www.w3.org/2000/svg" xmlns:xlink="http://www.w3.org/1999/xlink" viewBox="0 0 100 100">
  <defs>
    <style>
      .cls-1 {
        fill: url(#linear-gradient);
      }

      .cls-1, .cls-2, .cls-3 {
        stroke-width: 0px;
      }

      .cls-2 {
        fill: #000;
      }

      .cls-4 {
        stroke: #000;
        stroke-miterlimit: 10;
        stroke-width: 1.52px;
      }

      .cls-4, .cls-3 {
        fill: #fff;
      }
    </style>
    <linearGradient id="linear-gradient" x1="50" y1="0" x2="50" y2="100" gradientUnits="userSpaceOnUse">
      <stop offset="0" stop-color="#fff"/>
      <stop offset="0" stop-color="#ec6ead"/>
      <stop offset="1" stop-color="#3494e6"/>
    </linearGradient>
  </defs>
  <g>
    <circle class="cls-1" cx="50" cy="50" r="50"/>
    <path class="cls-2" d="M99.99,49.15c.49,28.55-22.79,50.8-49.74,50.85C22.13,100.05.45,77.37,0,51.02-.48,22.35,22.61.16,49.55,0c28.62-.17,50.16,22.96,50.44,49.15ZM66.22,95.5c-.23-.42-.38-.72-.54-1.01-.96-1.74-1.94-3.48-2.88-5.23-.98-1.82-.47-3.74,1.29-4.78,2.87-1.68,5.74-3.35,8.64-4.98,1.84-1.04,3.79-.47,4.85,1.36,1.03,1.78,2.05,3.56,3.08,5.33.13.23.28.44.46.72,8.72-7.57,14.2-16.88,16.4-28.23-.39-.03-.66-.06-.92-.06-2.18-.01-4.37.04-6.54-.05-1.9-.08-3.18-1.47-3.2-3.36-.03-3.41-.03-6.82,0-10.23.02-1.97,1.49-3.35,3.48-3.36,2.16,0,4.32,0,6.48,0,.22,0,.45,0,.77,0-2.18-11.44-7.62-20.85-16.38-28.46-.2.32-.36.56-.5.81-1.04,1.8-2.07,3.6-3.12,5.39-1.1,1.88-3.07,2.39-4.97,1.3-2.79-1.61-5.57-3.22-8.36-4.83-1.94-1.12-2.48-3.04-1.37-4.98,1.05-1.84,2.11-3.67,3.17-5.5.13-.23.25-.47.4-.75-7.45-2.67-15.01-3.47-22.77-2.47-3.44.44-6.79,1.26-10.09,2.48.17.32.28.55.41.77,1.06,1.83,2.12,3.67,3.18,5.5,1.05,1.8.53,3.83-1.26,4.88-2.78,1.62-5.56,3.23-8.36,4.83-2.11,1.21-3.99.69-5.22-1.41-1.08-1.85-2.14-3.7-3.21-5.55-.08-.14-.18-.26-.32-.45C10.06,20.78,4.61,30.18,2.44,41.62c.35,0,.58,0,.8,0,2.1,0,4.2.06,6.29-.01,2.02-.08,3.72,1.56,3.67,3.66-.08,3.24-.01,6.48-.02,9.72,0,2.21-1.39,3.59-3.63,3.59-2.1,0-4.19,0-6.29,0-.24,0-.48.04-.78.07,2.21,11.33,7.66,20.66,16.37,28.22.22-.36.38-.6.53-.85,1.03-1.75,2.05-3.51,3.1-5.25,1.11-1.83,3.02-2.3,4.88-1.23,2.79,1.6,5.58,3.21,8.36,4.82,2.02,1.17,2.53,3.11,1.35,5.14-1.02,1.76-2.04,3.52-3.05,5.28-.11.19-.2.4-.33.68,10.86,3.77,21.63,3.78,32.54.04ZM25.68,19.53c.17-.06.51-.14.8-.3,2.87-1.64,5.73-3.29,8.58-4.95.97-.57,1.22-1.48.68-2.44-1.17-2.06-2.37-4.11-3.55-6.17-.18-.31-.35-.41-.71-.26-3.9,1.66-7.53,3.76-10.9,6.33-.26.2-.36.35-.17.68,1.21,2.06,2.39,4.14,3.59,6.21.33.58.84.87,1.67.9ZM79.86,11.99c-.11-.06-.22-.1-.3-.16-3.39-2.61-7.06-4.74-11-6.42-.41-.17-.56,0-.74.31-1.16,2.02-2.33,4.03-3.49,6.05-.58,1.02-.32,1.95.69,2.54,2.84,1.65,5.68,3.29,8.53,4.92.98.56,1.93.31,2.5-.65.48-.8.94-1.61,1.4-2.42.78-1.35,1.56-2.71,2.4-4.17ZM11.5,50.13c0-1.65.02-3.3,0-4.95-.02-1.18-.7-1.85-1.87-1.86-2.31-.02-4.61,0-6.92-.01-.39,0-.56.12-.61.53-.52,4.16-.51,8.31.01,12.47.05.43.2.61.67.6,2.24-.03,4.49,0,6.73-.02,1.32,0,1.99-.67,1.99-2,0-1.59,0-3.17,0-4.76ZM88.52,50.08c0,1.61,0,3.22,0,4.82,0,1.33.66,2,1.98,2,2.22,0,4.44-.02,6.67.01.52,0,.69-.17.75-.66.51-4.14.52-8.27,0-12.4-.05-.39-.2-.54-.6-.53-2.29.02-4.57,0-6.86.02-1.33.01-1.94.68-1.95,2.04,0,1.57,0,3.13,0,4.7ZM64.01,87.63c.06.18.13.5.28.77,1.1,2.02,2.23,4.04,3.33,6.06.15.28.31.4.65.26,3.96-1.66,7.66-3.77,11.08-6.38.26-.2.35-.37.17-.68-1.19-2.03-2.34-4.07-3.54-6.09-.51-.85-1.46-1.11-2.32-.62-2.94,1.68-5.87,3.38-8.8,5.08-.56.32-.82.84-.86,1.61ZM20.25,87.94c.1.11.17.2.25.26,3.42,2.64,7.13,4.78,11.11,6.46.34.14.49.02.65-.26,1.15-2,2.32-3.99,3.46-6,.53-.93.3-1.88-.62-2.42-2.9-1.7-5.82-3.38-8.74-5.05-.86-.49-1.78-.23-2.33.6-.22.33-.41.69-.62,1.04-1.05,1.79-2.1,3.57-3.16,5.36Z"/>
    <path class="cls-3" d="M25.68,19.53c-.83-.03-1.34-.33-1.67-.9-1.2-2.07-2.38-4.15-3.59-6.21-.19-.32-.09-.48.17-.68,3.37-2.57,7-4.68,10.9-6.33.36-.15.53-.05.71.26,1.18,2.06,2.38,4.1,3.55,6.17.55.97.29,1.88-.68,2.44-2.85,1.66-5.71,3.31-8.58,4.95-.29.16-.62.24-.8.3Z"/>
    <path class="cls-3" d="M79.86,11.99c-.84,1.46-1.62,2.82-2.4,4.17-.47.81-.92,1.62-1.4,2.42-.58.97-1.52,1.22-2.5.65-2.85-1.63-5.69-3.27-8.53-4.92-1.01-.59-1.27-1.52-.69-2.54,1.15-2.02,2.33-4.03,3.49-6.05.18-.31.33-.48.74-.31,3.94,1.68,7.61,3.81,11,6.42.08.06.19.1.3.16Z"/>
    <path class="cls-3" d="M11.5,50.13c0,1.59,0,3.17,0,4.76,0,1.32-.67,1.99-1.99,2-2.24,0-4.49-.01-6.73.02-.47,0-.62-.17-.67-.6-.53-4.16-.54-8.31-.01-12.47.05-.4.22-.53.61-.53,2.31.01,4.61,0,6.92.01,1.17,0,1.86.68,1.87,1.86.02,1.65,0,3.3,0,4.95Z"/>
    <path class="cls-3" d="M88.52,50.08c0-1.57,0-3.13,0-4.7,0-1.36.61-2.03,1.95-2.04,2.29-.02,4.57,0,6.86-.02.41,0,.55.14.6.53.52,4.14.51,8.27,0,12.4-.06.49-.24.66-.75.66-2.22-.03-4.44,0-6.67-.01-1.32,0-1.97-.66-1.98-2,0-1.61,0-3.22,0-4.82Z"/>
    <path class="cls-3" d="M64.01,87.63c.04-.77.3-1.28.86-1.61,2.93-1.7,5.85-3.4,8.8-5.08.86-.49,1.81-.23,2.32.62,1.2,2.02,2.36,4.06,3.54,6.09.18.31.1.48-.17.68-3.42,2.6-7.12,4.72-11.08,6.38-.34.14-.5.02-.65-.26-1.11-2.02-2.23-4.04-3.33-6.06-.15-.27-.21-.59-.28-.77Z"/>
    <path class="cls-3" d="M20.25,87.94c1.05-1.79,2.11-3.58,3.16-5.36.2-.35.39-.7.62-1.04.55-.83,1.47-1.09,2.33-.6,2.92,1.67,5.84,3.35,8.74,5.05.91.54,1.15,1.49.62,2.42-1.14,2.01-2.31,3.99-3.46,6-.16.28-.31.4-.65.26-3.98-1.68-7.69-3.82-11.11-6.46-.08-.06-.14-.15-.25-.26Z"/>
    <path class="cls-2" d="M50.64,81.78c-17.61.24-31.76-13.46-32.38-30.57-.66-18.01,13.38-32.24,30.34-32.96,18.04-.76,32.74,13.33,33.19,30.94.45,17.63-13.55,32.21-31.14,32.58ZM50.04,19.93c-16.42-.12-30.02,13.41-30.1,29.94-.08,16.52,13.29,30.04,29.85,30.18,16.62.14,30.13-13.24,30.28-29.99.15-16.47-13.35-30.01-30.03-30.13Z"/>
    <path class="cls-3" d="M50.04,19.93c16.68.12,30.17,13.66,30.03,30.13-.15,16.75-13.66,30.13-30.28,29.99-16.56-.14-29.93-13.66-29.85-30.18.08-16.53,13.68-30.06,30.1-29.94ZM50.49,78.6c15.6-.17,28.28-13.18,28.13-28.85-.16-15.79-13.1-28.51-28.83-28.34-15.83.17-28.54,13.06-28.38,28.79.16,15.96,13.08,28.58,29.08,28.4Z"/>
    <path class="cls-2" d="M50.49,78.6c-16,.17-28.91-12.44-29.08-28.4-.16-15.72,12.54-28.61,28.38-28.79,15.73-.17,28.67,12.55,28.83,28.34.16,15.67-12.53,28.68-28.13,28.85ZM76.92,50c-.07-14.75-11.85-26.75-26.7-26.89-14.88-.14-27.11,11.95-27.13,26.77-.02,15.21,12.33,26.99,26.82,27.02,14.86.03,26.94-11.98,27-26.89Z"/>
  </g>
  <g id="usk-copy">
    <g id="Fill-1">
      <path id="path-3" class="cls-4" d="M46.35,51l-.14-.07v12.89q0,.34-.34.34c-1.21,0-2.42,0-3.64,0-.28,0-.29,0-.29-.29,0-2.67,0-5.34,0-8.02,0-.32-.02-.33-.32-.26-1.75.38-3.52.57-5.31.58-.2,0-.25-.07-.25-.25,0-1.25,0-2.51,0-3.76,0-.19.05-.26.25-.26,1.91-.02,3.79-.26,5.62-.79.96-.28,1.88-.65,2.82-.99.06-.02.12-.06.22-.12-.11-.06-.17-.11-.24-.14-1.49-.64-3.02-1.1-4.61-1.4-1.26-.23-2.52-.35-3.8-.38-.2,0-.26-.06-.26-.26,0-1.25,0-2.51,0-3.76,0-.19.06-.26.25-.25,1.2.03,2.39.1,3.58.29.62.1,1.23.22,1.85.33.17.03.2-.04.2-.19,0-.85,0-1.69,0-2.54,0-1.86,0-3.72,0-5.58,0-.3,0-.3.3-.3,1.23,0,2.47,0,3.7,0,.27,0,.27,0,.27.28,0,3.15,0,6.31,0,9.46,0,.21.07.3.25.39.9.44,1.79.88,2.68,1.34.17.09.28.09.44-.03,3.69-2.92,6.22-6.63,7.56-11.15.07-.23.16-.3.4-.3,1.27.01,2.53,0,3.8,0,.28,0,.3.03.23.3-1.35,5.42-4.13,9.97-8.33,13.65q-.25.22,0,.44c3.62,3.17,6.22,7.02,7.74,11.59.23.68.4,1.37.59,2.06.07.25.04.29-.23.29-1.29,0-2.58,0-3.86,0-.2,0-.27-.07-.33-.25-1.77-5.84-5.34-10.24-10.67-13.2-.05-.03-.11-.06-.17-.08-.02,0-.04,0-.1,0"/>
    </g>
  </g>
</svg>